<svg width="109" height="91" viewBox="0 0 109 91" fill="none" xmlns="http://www.w3.org/2000/svg">
<g clip-path="url(#clip0_175_2283)">
<path d="M0.491943 83.1759V20.4576C0.734245 19.7895 1.20155 19.2269 1.81337 18.8667C2.42519 18.5066 3.14324 18.3714 3.84386 18.4845C4.63815 18.5322 5.43245 18.4845 6.30617 18.4845V14.212C6.30617 9.9316 6.68742 9.5497 10.9131 9.5497H12.9862C12.9862 8.01416 12.9862 6.61389 12.9862 5.21361C12.9862 2.70742 13.9155 1.64925 16.3937 1.23553C21.1752 0.424641 26.0367 0.192251 30.8736 0.54335C36.1288 0.891869 41.2822 2.16016 46.1002 4.29069C49.0153 5.63528 51.7874 7.29014 54.7501 8.87342L54.9804 8.71431C62.6301 3.29613 71.7756 0.401069 81.1444 0.431953C85.0019 0.493632 88.8527 0.777878 92.6776 1.28327C95.1081 1.53786 96.0057 2.71538 96.0136 5.16587V9.62926C97.4592 9.62926 98.7619 9.54175 100.049 9.62926C100.722 9.6894 101.35 9.99025 101.82 10.4768C102.29 10.9633 102.569 11.6029 102.606 12.2787C102.702 13.3289 102.67 14.3871 102.686 15.4611C102.702 16.5352 102.686 17.4024 102.686 18.4606C103.726 18.4606 104.6 18.4606 105.474 18.4606C107.555 18.5083 108.5 19.4551 108.5 21.5158V82.0621C108.5 84.1307 107.706 84.9979 105.632 85.1809C105.341 85.2007 105.063 85.312 104.838 85.4991C103.639 86.7562 102.527 88.1087 101.28 89.3181C99.6912 90.8377 97.9755 90.7343 96.514 89.1431C95.4576 88.0133 94.4409 86.8437 93.3368 85.7537C93.0004 85.4209 92.554 85.2229 92.0818 85.1968C82.8786 85.165 73.6728 85.165 64.4643 85.1968C63.9171 85.2223 63.3953 85.4358 62.9869 85.8015C62.5416 86.2511 62.0103 86.6062 61.4248 86.8454C60.8393 87.0846 60.2116 87.2031 59.5794 87.1938C56.2036 87.1938 52.8279 87.2813 49.4601 87.146C48.3535 87.0656 47.2928 86.6709 46.4021 86.0083C45.7318 85.4547 44.8879 85.156 44.0192 85.165C30.6592 85.165 17.3071 85.165 3.95506 85.165C2.35853 85.1968 1.13532 84.7672 0.491943 83.1759ZM48.0463 58.5119C47.808 57.3344 47.3711 56.3557 47.4585 55.4249C47.6888 53.038 46.2829 52.1151 44.4243 51.4468C44.3401 51.4208 44.2578 51.3889 44.1781 51.3513C38.0684 48.7039 31.4285 47.5137 24.7814 47.8745C23.4152 47.9302 22.0491 48.0893 20.6829 48.153C20.4743 48.1712 20.2641 48.1482 20.0644 48.0851C19.8646 48.022 19.6793 47.9202 19.5189 47.7853C19.3584 47.6505 19.2261 47.4854 19.1294 47.2993C19.0327 47.1132 18.9735 46.9099 18.9553 46.701C18.937 46.492 18.96 46.2815 19.023 46.0814C19.086 45.8814 19.1877 45.6957 19.3223 45.535C19.4569 45.3743 19.6218 45.2418 19.8075 45.1449C19.9933 45.048 20.1963 44.9888 20.4049 44.9705C21.1992 44.8671 21.9935 44.7955 22.7878 44.7318C30.3715 44.0435 38.0081 45.2291 45.028 48.1848C45.8222 48.503 46.5212 48.869 47.3076 49.243C47.6015 48.0416 47.9033 46.9595 48.1019 45.8695C48.1416 45.6468 47.8556 45.2569 47.6173 45.0739C45.0396 43.3609 42.1858 42.1066 39.182 41.3664C36.6005 40.7458 33.9635 40.3241 31.3502 39.8706C30.0952 39.6478 29.4598 39.0193 29.5869 37.9532C29.714 36.887 30.4606 36.5449 31.7315 36.6643C36.1737 37.0258 40.5291 38.1003 44.6308 39.8467C46.2194 40.5628 47.808 41.438 49.3966 42.2336C50.3974 40.8015 51.422 39.3932 52.391 37.9373C52.6682 37.5523 52.8332 37.0978 52.8676 36.6245C52.8994 28.6259 52.8994 20.6326 52.8676 12.6447C52.8522 12.4153 52.7908 12.1914 52.6871 11.9864C52.5834 11.7813 52.4395 11.5993 52.2639 11.4512C48.8971 8.96688 45.1383 7.06552 41.1438 5.82622C34.9369 3.85371 28.3955 3.16086 21.914 3.78945C20.0474 3.95653 18.1967 4.28273 16.354 4.52937V68.1388C29.3009 65.9588 41.5092 67.558 52.8914 74.7424C52.8914 72.1169 52.8914 69.6664 52.8914 67.2159C52.8546 67.0088 52.7611 66.816 52.6214 66.659C51.6047 65.2348 50.5801 63.8186 49.754 62.6809C49.0091 62.4823 48.2748 62.246 47.5538 61.9728C45.0915 60.8907 42.7086 59.5859 40.1748 58.7108C34.3447 56.7058 28.3001 56.3239 22.192 56.8252C21.567 56.9265 20.9348 56.9771 20.3016 56.9763C19.9258 56.9764 19.5648 56.8291 19.2961 56.5659C19.0274 56.3026 18.8722 55.9445 18.8639 55.5681C18.8323 55.3752 18.839 55.178 18.8839 54.9877C18.9287 54.7975 19.0107 54.618 19.1252 54.4597C19.2397 54.3014 19.3843 54.1674 19.5508 54.0654C19.7173 53.9634 19.9023 53.8955 20.0951 53.8655C20.4039 53.7931 20.717 53.74 21.0324 53.7063C26.2778 53.1489 31.5771 53.3876 36.7514 54.4145C40.7041 55.2001 44.5151 56.5816 48.0542 58.5119H48.0463ZM86.9666 19.8609C85.7513 19.7893 84.6631 19.6858 83.5829 19.6699C79.4365 19.5713 75.2951 20.0153 71.2634 20.9906C69.9767 21.3169 69.095 20.9111 68.8806 19.9723C68.6661 19.0334 69.1586 18.2299 70.5247 17.8798C76.1611 16.4884 81.9961 16.09 87.7688 16.7023C89.5004 16.8614 90.2629 17.6888 90.3026 19.4472C90.3424 21.2055 90.3026 23.0354 90.3026 24.8335C90.3026 26.9896 89.3574 27.8488 87.2208 27.6499C81.4413 27.0726 75.6051 27.5744 70.0085 29.1298C69.1347 29.3764 68.2848 29.7026 67.427 29.9891C67.4678 30.0472 67.5228 30.0939 67.5868 30.1245C67.6508 30.1552 67.7216 30.1688 67.7924 30.1641C70.8139 29.9484 73.8472 30.3615 76.7015 31.3775C79.5558 32.3935 82.1692 33.9904 84.3772 36.0676C84.7397 36.3226 85.1661 36.4714 85.6084 36.4972C86.7522 36.6563 87.9118 36.6881 89.0476 36.887C89.2421 36.9158 89.4283 36.9848 89.5946 37.0897C89.7609 37.1946 89.9035 37.3331 90.0134 37.4963C90.1233 37.6595 90.198 37.8438 90.2327 38.0376C90.2675 38.2313 90.2615 38.4302 90.2153 38.6215C90.2022 38.8129 90.1515 38.9998 90.066 39.1714C89.9806 39.3431 89.8622 39.4962 89.7175 39.6219C89.5729 39.7476 89.4048 39.8434 89.2231 39.9038C89.0413 39.9642 88.8494 39.9881 88.6585 39.974C88.3328 39.974 88.0071 39.974 87.6259 39.974C90.3384 44.1135 91.5936 49.0416 91.1922 53.9769C90.8 58.9146 88.7927 63.5848 85.4813 67.2636L92.7252 68.107V6.14446C92.7252 4.59301 92.7252 4.59301 91.224 4.35433C90.4297 4.22703 89.7069 4.06791 88.9444 3.98039C83.8454 3.34573 78.68 3.48523 73.6225 4.39412C67.6292 5.4514 61.9375 7.80248 56.9423 11.2842C56.6632 11.4528 56.4371 11.6966 56.2896 11.9878C56.1421 12.279 56.0793 12.6058 56.1083 12.9311C56.1083 19.6858 56.1083 26.4565 56.1083 33.2113C56.1083 33.5455 56.1083 33.8717 56.1639 34.3252L59.214 32.4634C58.9248 31.7272 58.7171 30.9615 58.5945 30.18C58.4921 28.325 58.4921 26.4657 58.5945 24.6107C58.6598 23.8226 59.0033 23.0835 59.5635 22.5262C60.4835 21.8242 61.4833 21.2339 62.5421 20.7679C62.9062 20.581 63.3283 20.542 63.7205 20.6591C64.1126 20.7762 64.4445 21.0403 64.647 21.3964C64.8435 21.774 64.887 22.213 64.7687 22.6219C64.6503 23.0309 64.3792 23.3785 64.0115 23.5923C63.4794 23.9265 62.8916 24.189 62.3594 24.5232C62.145 24.6584 61.8511 24.8892 61.8431 25.0881C61.7955 26.2974 61.8431 27.4749 61.8431 28.8672C69.8814 24.8892 78.2373 23.8151 86.9348 24.4277L86.9666 19.8609ZM13.0021 12.9072H9.61837V76.3495H49.333C40.9294 71.5759 32.1127 69.9846 22.8354 70.6211C20.6034 70.7723 18.3794 71.1781 16.1475 71.3531C15.436 71.4212 14.7259 71.2106 14.1661 70.7656C13.6063 70.3206 13.2404 69.6757 13.145 68.9663C13.0527 68.4411 13.0128 67.9081 13.0259 67.375V12.9152L13.0021 12.9072ZM3.71677 81.9427H5.09884C18.2047 81.9427 31.3132 81.9427 44.4243 81.9427C45.1441 81.8976 45.8651 82.0085 46.5382 82.2681C47.2113 82.5276 47.8205 82.9295 48.3243 83.4465C48.6535 83.7452 49.0795 83.9147 49.5236 83.9238C52.8597 83.9556 56.1983 83.9556 59.5397 83.9238C59.9517 83.9212 60.3481 83.7653 60.6517 83.4862C61.177 82.9418 61.8164 82.5209 62.5238 82.254C63.2312 81.9871 63.9889 81.8808 64.7423 81.9427C72.6852 81.9427 80.5567 81.9427 88.4678 81.9427H89.7308C88.6187 80.4709 87.6259 79.5559 85.656 79.5559C60.4213 79.6514 35.1787 79.6196 9.94402 79.6196C9.49128 79.6196 9.03059 79.6196 8.57784 79.6196C8.0326 79.5723 7.5202 79.3385 7.12677 78.9575C6.73333 78.5764 6.48284 78.0713 6.41737 77.5271C6.35169 76.9993 6.3225 76.4677 6.33 75.9359C6.33 58.3315 6.33 40.7272 6.33 23.1229V21.7942H3.72472L3.71677 81.9427ZM50.4371 52.2106C50.4729 54.6972 50.9991 57.1522 51.9852 59.4344C52.9714 61.7167 54.3982 63.7812 56.1835 65.5092C57.9689 67.2373 60.0776 68.5949 62.3885 69.504C64.6994 70.4131 67.1668 70.8557 69.6491 70.8064C72.1313 70.7571 74.5793 70.217 76.8524 69.2169C79.1255 68.2168 81.1789 66.7766 82.8945 64.979C84.6101 63.1814 85.9541 61.0619 86.8492 58.7423C87.7443 56.4227 88.1729 53.9488 88.1104 51.4627C87.8165 41.438 79.2223 33.2193 68.7773 33.3306C63.8629 33.4573 59.1927 35.5038 55.7644 39.033C52.336 42.5622 50.4213 47.2943 50.4291 52.2185L50.4371 52.2106ZM99.3894 76.5326V12.8833H96.0215V14.3075C96.0215 32.0179 96.0215 49.7283 96.0215 67.4386C96.0215 69.1413 95.6482 70.5654 93.8452 71.3292C95.4338 73.008 96.8635 74.6151 98.3647 76.1825C98.5712 76.3973 98.9843 76.4132 99.3814 76.5405L99.3894 76.5326ZM105.291 81.8711V21.7863H102.694V74.5196C102.694 76.262 102.964 78.084 101.057 79.2933C102.559 80.2401 102.956 82.4599 105.283 81.8791L105.291 81.8711ZM85.9023 72.5624L84.7346 71.3213C84.2703 70.8308 83.6498 70.5181 82.9799 70.4367C82.3101 70.3554 81.6329 70.5106 81.065 70.8757C76.7385 73.7234 71.5095 74.8577 66.3944 74.0582C63.7097 73.6365 62.0258 75.363 59.9924 76.445H84.8697C84.6018 75.7747 84.5569 75.0357 84.7414 74.3377C84.926 73.6398 85.3303 73.02 85.8943 72.5704L85.9023 72.5624ZM98.9843 87.1063L101.709 84.5603L90.5886 72.5704L87.8642 75.1084L98.9843 87.1063ZM56.1957 74.7265L60.1195 72.3954L56.1957 70.1438V74.7265Z" fill="#0F1D3E"/>
<path d="M27.6964 16.3442C34.6941 16.6545 41.4139 17.9991 47.6411 21.3487C48.1018 21.5953 48.5466 21.8897 48.9994 22.1443C49.4276 22.3569 49.7861 22.6879 50.0325 23.0982C50.2788 23.5085 50.4027 23.9809 50.3894 24.4595C50.3894 26.4008 50.437 28.3342 50.3894 30.2755C50.3099 32.3998 48.6737 33.3545 46.7992 32.3202C42.6697 30.0538 38.1603 28.5652 33.4948 27.9284C29.63 27.377 25.7142 27.2782 21.8266 27.634C19.6899 27.8329 18.7765 26.9737 18.7527 24.8175C18.7527 23.0513 18.7527 21.293 18.7527 19.5347C18.7527 17.657 19.547 16.8216 21.4056 16.6863C23.5264 16.5511 25.5915 16.4795 27.6964 16.3442ZM47.0295 28.7638C47.5617 25.0085 47.3393 24.6027 44.0986 23.1945L43.7173 23.0195C39.6305 21.2269 35.2624 20.1633 30.81 19.8768C27.9188 19.6699 25.0117 19.837 22.0728 19.837V24.4118C30.7862 23.7912 39.1025 24.8494 47.0295 28.7877V28.7638Z" fill="#9BA839"/>
<path d="M20.5399 40.0135C20.1318 40.0545 19.7236 39.9358 19.4008 39.6822C19.0781 39.4287 18.8658 39.0599 18.8083 38.653C18.7675 38.444 18.7705 38.2288 18.8171 38.0211C18.8638 37.8133 18.9531 37.6175 19.0793 37.4462C19.2055 37.2749 19.366 37.1317 19.5504 37.0258C19.7349 36.9199 19.9393 36.8536 20.1507 36.8311C21.364 36.6573 22.5869 36.559 23.8124 36.5367C24.0145 36.5291 24.216 36.5628 24.4047 36.6356C24.5934 36.7083 24.7654 36.8187 24.9102 36.9601C25.055 37.1014 25.1697 37.2708 25.2472 37.4579C25.3247 37.6449 25.3636 37.8458 25.3613 38.0483C25.3834 38.4404 25.2524 38.8257 24.9959 39.1227C24.7394 39.4197 24.3777 39.6051 23.9871 39.6396C22.8434 39.8146 21.6916 39.8942 20.5399 40.0135Z" fill="#9BA839"/>
<path d="M52.7722 52.2345C52.7738 48.9705 53.7408 45.7801 55.5512 43.0662C57.3616 40.3522 59.9342 38.2364 62.9442 36.9859C65.9542 35.7354 69.2665 35.4062 72.4631 36.0399C75.6597 36.6736 78.5972 38.2418 80.9047 40.5465C83.2123 42.8512 84.7863 45.789 85.4282 48.9891C86.0701 52.1892 85.751 55.508 84.5112 58.5266C83.2714 61.5452 81.1666 64.1281 78.4624 65.9494C75.7582 67.7706 72.5759 68.7484 69.3173 68.7595C64.9369 68.7616 60.7346 67.0227 57.6327 63.9246C54.5308 60.8265 52.7827 56.6222 52.7722 52.2345ZM69.2538 65.4974C71.0047 65.5038 72.7396 65.1626 74.3581 64.4936C75.9767 63.8246 77.447 62.8411 78.684 61.5998C79.921 60.3586 80.9002 58.8841 81.5652 57.2616C82.2301 55.6392 82.5677 53.9008 82.5582 52.147C82.5499 50.398 82.1977 48.6677 81.5217 47.055C80.8458 45.4424 79.8594 43.9788 78.6188 42.748C77.3782 41.5171 75.9078 40.5431 74.2914 39.8815C72.675 39.2199 70.9443 38.8837 69.1982 38.892C67.4521 38.9004 65.7247 39.2532 64.1147 39.9302C62.5047 40.6073 61.0436 41.5953 59.8148 42.838C58.586 44.0806 57.6136 45.5536 56.9531 47.1727C56.2926 48.7917 55.9569 50.5253 55.9653 52.2743C55.9652 54.0182 56.3096 55.7448 56.9784 57.3549C57.6473 58.9649 58.6275 60.4265 59.8626 61.6555C61.0977 62.8846 62.5634 63.8567 64.1751 64.5161C65.7868 65.1754 67.5129 65.509 69.2538 65.4974Z" fill="#9BA839"/>
</g>
<defs>
<clipPath id="clip0_175_2283">
<rect width="108" height="90" fill="white" transform="translate(0.5 0.400391)"/>
</clipPath>
</defs>
</svg>
