<svg width="91" height="91" viewBox="0 0 91 91" fill="none" xmlns="http://www.w3.org/2000/svg">
<g clip-path="url(#clip0_175_2216)">
<path d="M10.4332 46.8859V34.8582H9.36288H1.88038C0.439898 34.8582 0.229834 34.6502 0.229834 33.273V20.1951C0.229834 18.7882 0.469915 18.5702 1.95041 18.5702H21.607C20.5737 17.2835 19.8377 15.7882 19.4506 14.1895C19.0634 12.5908 19.0347 10.9275 19.3662 9.3166C19.6801 7.71128 20.3547 6.19649 21.34 4.88448C22.3253 3.57246 23.5961 2.49685 25.0581 1.73734C27.6346 0.365798 30.6464 0.0329667 33.4647 0.808338C36.283 1.58371 38.69 3.40734 40.1832 5.8985C41.6698 4.93477 43.408 4.42146 45.1848 4.42146C46.9616 4.42146 48.6998 4.93477 50.1865 5.8985C50.9962 4.56322 52.0755 3.40791 53.3569 2.50491C54.6383 1.6019 56.0942 0.970663 57.6333 0.650721C59.1724 0.33078 60.7616 0.329021 62.3015 0.645566C63.8413 0.962111 65.2985 1.59014 66.5819 2.49031C70.9234 5.61118 73.3342 12.279 68.8127 18.5603H74.1345C75.595 18.5603 75.8851 18.8377 75.8851 20.2743V32.7578H88.6493C89.9197 32.7578 90.1598 32.9956 90.1598 34.2737C90.1598 38.6396 90.1598 43.0154 90.1598 47.4011C90.1598 48.7089 89.9097 48.9368 88.5793 48.9467H82.5773C82.7753 49.9796 82.889 51.0266 82.9174 52.0775C82.8725 52.7901 82.6341 53.4774 82.2273 54.0669C81.8206 54.6563 81.2606 55.126 80.6066 55.4263C80.3837 55.5161 80.1956 55.6742 80.0696 55.8773C79.9437 56.0805 79.8865 56.3181 79.9064 56.5557C79.9064 59.9045 79.9064 63.2631 79.9064 66.6217C79.9113 66.7991 79.955 66.9734 80.0345 67.1324C80.1139 67.2915 80.2272 67.4316 80.3665 67.5432C82.8574 69.0689 83.5476 71.1396 82.4172 73.8642C82.4172 73.9434 82.4172 74.0425 82.3372 74.2109H88.6293C89.8597 74.2109 90.1198 74.4487 90.1198 75.6475C90.1198 80.0861 90.1198 84.5247 90.1198 88.9632C90.1198 90.1323 89.8197 90.3899 88.6093 90.3899H11.9337C10.7434 90.3899 10.4633 90.1125 10.4633 88.9434V76.242C8.46259 76.242 6.4619 76.3014 4.59127 76.242C3.81637 76.2188 3.0606 75.9983 2.39679 75.6017C1.73297 75.2051 1.18353 74.6457 0.801497 73.9776C0.419466 73.3095 0.217743 72.5551 0.21573 71.7873C0.213717 71.0195 0.411495 70.2641 0.790018 69.594C1.28118 68.8613 1.91347 68.2317 2.65065 67.7413C2.84774 67.6445 3.01325 67.4946 3.12826 67.3088C3.24327 67.1231 3.3031 66.909 3.30086 66.6911C3.30086 63.3027 3.30086 59.9144 3.30086 56.526C3.32745 56.3027 3.27657 56.0771 3.15659 55.8863C3.03661 55.6954 2.85467 55.5507 2.64064 55.4758C1.75985 55.0153 1.05588 54.2814 0.636677 53.3866C0.217474 52.4918 0.106174 51.4855 0.31986 50.522C0.525232 49.5635 1.04648 48.6998 1.80159 48.0667C2.5567 47.4336 3.50285 47.067 4.49126 47.0247C6.05178 46.9256 7.61231 46.9751 9.18283 46.9652L10.4332 46.8859ZM24.808 76.242C24.808 78.164 24.808 80.0068 24.808 81.8496C24.808 82.9196 24.4579 83.2565 23.3776 83.2565H17.2955C15.745 83.2565 15.5149 83.0187 15.5049 81.483V76.2519H12.584V88.1409H75.765V76.242H24.808ZM61.5103 22.5828C59.0203 22.848 56.5089 22.3353 54.3279 21.1165C53.815 20.8378 53.2421 20.6849 52.6573 20.6706C47.6623 20.631 42.6606 20.631 37.6523 20.6706C37.099 20.688 36.5576 20.8339 36.0718 21.0967C34.3364 22.1249 32.3521 22.668 30.3299 22.668C28.3077 22.668 26.3233 22.1249 24.588 21.0967C24.1346 20.8453 23.6267 20.706 23.1075 20.6904C18.2158 20.6904 13.3242 20.6904 8.44256 20.6904C8.12246 20.6904 7.79235 20.6904 7.44223 20.6904V32.6488H61.4602L61.5103 22.5828ZM32.0204 46.8166H71.6836V34.9276H32.0204V46.8166ZM41.6937 69.1878H5.78167C5.31404 69.1777 4.84625 69.1976 4.38121 69.2473C4.03464 69.2959 3.7027 69.4177 3.40786 69.6046C3.11303 69.7915 2.86221 70.0389 2.67245 70.3303C2.48269 70.6216 2.35841 70.9499 2.30804 71.293C2.25767 71.636 2.28241 71.9858 2.38054 72.3186C2.78068 73.6561 3.67097 74.2109 5.47157 74.2109H77.7057C78.2356 74.2236 78.7646 74.1602 79.2762 74.0227C79.7559 73.8546 80.1725 73.5456 80.4703 73.1368C80.768 72.7281 80.9328 72.2391 80.9426 71.7352C80.9524 71.2313 80.8067 70.7364 80.525 70.3166C80.2434 69.8969 79.8391 69.5722 79.3662 69.386C78.7878 69.242 78.1914 69.1819 77.5956 69.2076L41.6937 69.1878ZM41.5936 53.95H78.606C79.0756 53.9466 79.5329 53.8003 79.9158 53.531C80.2987 53.2616 80.5887 52.8822 80.7467 52.4441C81.5069 50.6805 80.2265 48.9764 78.1358 48.9764H5.11147C4.91168 48.9616 4.71104 48.9616 4.51126 48.9764C3.94621 49.0523 3.42287 49.3128 3.02422 49.7166C2.62557 50.1204 2.3744 50.6444 2.31051 51.2056C2.25312 51.7485 2.37911 52.2948 2.66873 52.7591C2.95835 53.2235 3.39525 53.5796 3.91105 53.7717C4.45581 53.9128 5.01933 53.9696 5.58162 53.9401L41.5936 53.95ZM5.43158 67.0577H77.8557V62.1931H5.43158V67.0577ZM5.43158 59.9639H77.8557V56.1H5.43158V59.9639ZM30.3599 20.5815C32.1636 20.5834 33.9276 20.0562 35.4293 19.0665C36.931 18.0768 38.1031 16.6688 38.7979 15.0202C39.4927 13.3715 39.679 11.556 39.3334 9.80262C38.9878 8.04922 38.1257 6.43645 36.8558 5.1677C35.5859 3.89895 33.9651 3.03103 32.1979 2.67341C30.4306 2.31579 28.596 2.48447 26.9254 3.15819C25.2548 3.83192 23.823 4.9805 22.8107 6.4591C21.7983 7.93769 21.2507 9.68009 21.2368 11.4665C21.2262 13.8718 22.18 16.1828 23.8888 17.8919C25.5975 19.601 27.9214 20.5684 30.3499 20.5815H30.3599ZM60.0098 20.5815C61.2336 20.6254 62.4539 20.4251 63.5981 19.9924C64.7422 19.5598 65.7868 18.9037 66.6697 18.0631C67.5526 17.2225 68.2558 16.2147 68.7375 15.0995C69.2192 13.9843 69.4695 12.7845 69.4735 11.5716C69.4775 10.3586 69.2352 9.15725 68.7609 8.03894C68.2867 6.92063 67.5902 5.90821 66.7129 5.0619C65.8355 4.21559 64.7953 3.55268 63.6541 3.1126C62.5129 2.67252 61.2939 2.46427 60.0698 2.50022C58.8459 2.4563 57.6256 2.65661 56.4815 3.08924C55.3373 3.52188 54.2927 4.178 53.4098 5.01858C52.5269 5.85916 51.8237 6.86702 51.342 7.98222C50.8604 9.09742 50.6101 10.2972 50.6061 11.5101C50.602 12.7231 50.8444 13.9244 51.3186 15.0427C51.7929 16.1611 52.4894 17.1735 53.3667 18.0198C54.244 18.8661 55.2842 19.529 56.4254 19.9691C57.5667 20.4092 58.7856 20.6174 60.0098 20.5815ZM88.0991 34.8681H73.9444V46.8265H88.0891L88.0991 34.8681ZM17.7057 34.8681V46.8265H29.7797V34.8681H17.7057ZM73.7243 20.6211C70.5333 21.0273 67.2622 19.8582 64.2912 21.81C63.821 22.127 63.5809 22.3351 63.591 22.9097C63.591 25.882 63.591 28.9533 63.591 31.9751C63.6022 32.2242 63.629 32.4724 63.671 32.7182H73.6743L73.7243 20.6211ZM51.0468 18.5306C51.0468 18.4513 51.1068 18.4018 51.0968 18.3919C50.9768 18.1937 50.8467 18.0055 50.7167 17.8173C49.826 16.5456 49.2191 15.1006 48.9362 13.5785C48.6533 12.0564 48.701 10.4921 49.0761 8.98965C49.1877 8.66401 49.1786 8.30962 49.0502 7.99007C48.9219 7.67051 48.6828 7.40669 48.3759 7.24593C47.3653 6.74358 46.2469 6.4911 45.1163 6.51008C43.9857 6.52906 42.8766 6.81893 41.8837 7.35491C41.6235 7.4987 41.4216 7.72725 41.3122 8.00175C41.2028 8.27626 41.1926 8.5798 41.2835 8.86085C41.6893 10.4061 41.7474 12.0209 41.4535 13.5908C41.1596 15.1607 40.5211 16.6475 39.5829 17.9461C39.4675 18.1344 39.3639 18.3296 39.2728 18.5306H51.0468ZM78.0558 76.2717V88.2598H82.9174V76.242L78.0558 76.2717ZM15.4349 46.8265V34.9375H12.5439V46.8265H15.4349ZM2.35054 20.7598V32.738H5.2315V20.7598H2.35054ZM88.0491 88.2994V76.242H85.1682V88.2202L88.0491 88.2994ZM22.6273 76.341H17.7057V81.1957H22.6273V76.341Z" fill="#0F1D3E"/>
<path d="M88.5393 12.4572C87.9391 12.9922 87.659 13.448 87.2589 13.5669C85.981 13.8831 84.8141 14.538 83.8836 15.4614C82.953 16.3847 82.294 17.5417 81.9771 18.808C81.8912 19.0099 81.7538 19.1863 81.5785 19.32C81.4032 19.4537 81.1959 19.5401 80.9768 19.5708C80.7578 19.5151 80.5542 19.4114 80.3811 19.2674C80.208 19.1233 80.0697 18.9426 79.9765 18.7386C79.5456 17.0673 78.5188 15.6069 77.0855 14.627C76.3252 14.1811 75.425 13.983 74.6547 13.5471C74.2846 13.339 73.8444 12.8337 73.8644 12.487C73.9176 12.2583 74.0293 12.0471 74.1887 11.8736C74.3481 11.7001 74.5499 11.5701 74.7747 11.4962C77.3756 11.0999 78.7061 9.40572 79.6064 7.18643C79.8965 6.47309 79.8965 5.42289 81.0468 5.46252C82.1972 5.50215 82.0472 6.45327 82.3072 7.12698C82.7084 8.15722 83.344 9.08199 84.1646 9.82944C84.9852 10.5769 85.9688 11.1269 87.0388 11.4368C87.5796 11.7143 88.0836 12.0571 88.5393 12.4572ZM83.4276 12.5167L80.6967 9.86146L78.3359 12.5266L81.1369 14.9936L83.4276 12.5167Z" fill="#9BA839"/>
<path d="M49.8165 83.3065H34.6514C34.3813 83.3065 34.0412 83.3957 33.8712 83.3065C33.501 83.0489 33.0409 82.6923 32.9809 82.3158C32.9208 81.9393 33.411 81.5727 33.7511 81.325C34.1003 81.2167 34.47 81.1896 34.8315 81.2458H64.7615C66.1419 81.2458 66.6921 81.543 66.7021 82.2365C66.7121 82.93 66.1619 83.2273 64.7815 83.2273L49.8165 83.3065Z" fill="#9BA839"/>
<path d="M29.8498 26.7043C29.8498 26.0801 29.8498 25.456 29.8498 24.8318C29.8343 24.6928 29.8486 24.5522 29.8919 24.4191C29.9352 24.286 30.0064 24.1635 30.1009 24.0596C30.1954 23.9558 30.311 23.8729 30.4401 23.8164C30.5693 23.76 30.709 23.7312 30.8502 23.732C30.9889 23.7196 31.1287 23.736 31.2607 23.7802C31.3926 23.8244 31.5138 23.8955 31.6165 23.9887C31.7191 24.082 31.8009 24.1955 31.8567 24.3219C31.9125 24.4483 31.9411 24.5848 31.9405 24.7228C31.9906 26.0306 31.9405 27.3483 31.9405 28.6858C31.9523 28.8276 31.9331 28.9702 31.8843 29.104C31.8354 29.2377 31.7581 29.3595 31.6575 29.4611C31.5569 29.5626 31.4354 29.6414 31.3013 29.6923C31.1671 29.7432 31.0235 29.7648 30.8802 29.7558C30.7325 29.749 30.5878 29.7117 30.4555 29.6463C30.3232 29.5808 30.2062 29.4887 30.112 29.3758C30.0178 29.2629 29.9485 29.1317 29.9085 28.9907C29.8685 28.8497 29.8588 28.702 29.8799 28.557C29.8498 27.9229 29.8398 27.2988 29.8498 26.7043Z" fill="#9BA839"/>
<path d="M24.8081 26.7835C24.8081 27.3681 24.8081 27.9625 24.8081 28.5471C24.8081 29.1316 24.468 29.7261 23.8078 29.7459C23.6555 29.7614 23.5016 29.742 23.358 29.6893C23.2144 29.6366 23.085 29.552 22.9796 29.4419C22.8743 29.3318 22.7958 29.1992 22.7504 29.0544C22.7049 28.9096 22.6937 28.7564 22.7175 28.6065C22.7175 27.3285 22.7175 26.0504 22.7175 24.7822C22.7034 24.644 22.7189 24.5045 22.7628 24.3726C22.8068 24.2407 22.8782 24.1194 22.9726 24.0167C23.0669 23.9139 23.182 23.8319 23.3104 23.7761C23.4387 23.7202 23.5776 23.6917 23.7178 23.6924C24.468 23.6924 24.7781 24.158 24.8081 24.8219C24.8382 25.4857 24.8081 26.1297 24.8081 26.7835Z" fill="#9BA839"/>
<path d="M17.6356 26.7044C17.6356 27.3583 17.6356 28.0122 17.6356 28.6859C17.6542 28.8264 17.6422 28.9692 17.6003 29.1047C17.5585 29.2402 17.4877 29.3652 17.3929 29.4713C17.2981 29.5774 17.1814 29.6622 17.0507 29.7198C16.92 29.7774 16.7784 29.8066 16.6353 29.8054C16.4966 29.8179 16.3567 29.8014 16.2248 29.7572C16.0928 29.713 15.9717 29.642 15.869 29.5488C15.7664 29.4555 15.6845 29.342 15.6287 29.2156C15.5729 29.0892 15.5444 28.9527 15.5449 28.8147C15.5449 27.4772 15.4949 26.1397 15.5449 24.8517C15.5442 24.7128 15.573 24.5753 15.6294 24.4482C15.6858 24.321 15.7686 24.207 15.8724 24.1136C15.9761 24.0202 16.0986 23.9494 16.2317 23.9059C16.3649 23.8624 16.5058 23.847 16.6453 23.8609C16.7874 23.8599 16.9281 23.8889 17.058 23.9459C17.1879 24.003 17.3041 24.0868 17.3987 24.1918C17.4934 24.2968 17.5644 24.4205 17.6069 24.5548C17.6495 24.6891 17.6627 24.8308 17.6456 24.9706C17.6556 25.4263 17.6356 26.0406 17.6356 26.7044Z" fill="#9BA839"/>
<path d="M46.2452 26.7937C46.3333 27.4513 46.3333 28.1176 46.2452 28.7752C46.1352 29.1715 45.605 29.4588 45.2449 29.766C44.9148 29.4291 44.3246 29.1021 44.2945 28.7752C44.1795 27.4037 44.1795 26.0252 44.2945 24.6537C44.2945 24.3168 44.8548 23.8611 45.2249 23.7719C45.8251 23.6233 46.2252 24.0295 46.2252 24.6636C46.2252 25.2977 46.2452 26.0704 46.2452 26.7937Z" fill="#9BA839"/>
<path d="M39.0727 26.7047C39.1416 27.3878 39.1248 28.0766 39.0227 28.7556C38.9227 29.1519 38.3725 29.4392 38.0224 29.7463C37.6822 29.3996 37.0921 29.0825 37.022 28.7556C36.952 27.409 36.952 26.0598 37.022 24.7133C37.0141 24.4505 37.1118 24.1954 37.2938 24.004C37.4758 23.8127 37.727 23.7007 37.9924 23.6928C38.2577 23.6849 38.5152 23.7818 38.7085 23.962C38.9017 24.1422 39.0147 24.3911 39.0227 24.6539C39.0927 25.3177 39.0627 26.0112 39.0727 26.7047Z" fill="#9BA839"/>
<path d="M49.7764 38.8411C49.9931 38.8017 50.2158 38.8095 50.4292 38.8639C50.6426 38.9183 50.8415 39.0179 51.0121 39.1559C51.1827 39.294 51.321 39.4671 51.4175 39.6633C51.5139 39.8595 51.5661 40.0741 51.5705 40.2922C51.5749 40.5104 51.5314 40.7269 51.443 40.9268C51.3546 41.1266 51.2233 41.3051 51.0584 41.4497C50.8935 41.5944 50.6988 41.7018 50.4878 41.7646C50.2768 41.8274 50.0545 41.844 49.8364 41.8133C49.6303 41.8199 49.4249 41.7857 49.2323 41.7128C49.0397 41.6398 48.8637 41.5295 48.7147 41.3883C48.5656 41.2472 48.4465 41.078 48.3643 40.8907C48.2821 40.7034 48.2384 40.5017 48.2358 40.2975C48.2632 39.9082 48.4363 39.5431 48.7213 39.2737C49.0062 39.0043 49.3825 38.85 49.7764 38.8411Z" fill="#9BA839"/>
<path d="M57.4988 40.3471C57.4978 40.5522 57.4547 40.7549 57.3722 40.943C57.2897 41.1311 57.1696 41.3007 57.019 41.4415C56.8685 41.5823 56.6906 41.6914 56.4963 41.7621C56.3019 41.8328 56.0951 41.8638 55.8883 41.853C55.67 41.8804 55.4483 41.8604 55.2386 41.7946C55.0288 41.7288 54.8359 41.6187 54.6733 41.4718C54.5107 41.325 54.3823 41.145 54.2968 40.9442C54.2112 40.7434 54.1708 40.5266 54.1781 40.3088C54.1854 40.091 54.2404 39.8774 54.3392 39.6826C54.438 39.4879 54.5783 39.3168 54.7505 39.181C54.9226 39.0452 55.1224 38.9481 55.3361 38.8962C55.5498 38.8444 55.7723 38.8391 55.9883 38.8808C56.3815 38.8881 56.757 39.044 57.0378 39.3166C57.3186 39.5892 57.4836 39.9579 57.4988 40.3471Z" fill="#9BA839"/>
<path d="M63.5911 40.3472C63.5992 40.5438 63.5669 40.74 63.4959 40.9237C63.4249 41.1075 63.3168 41.275 63.1782 41.4159C63.0396 41.5569 62.8735 41.6684 62.6899 41.7435C62.5063 41.8187 62.3092 41.856 62.1106 41.8532C61.8082 41.861 61.5105 41.7795 61.2552 41.6189C60.9999 41.4582 60.7989 41.2259 60.6776 40.9515C60.5564 40.6771 60.5205 40.3732 60.5746 40.0785C60.6286 39.7838 60.7702 39.5118 60.9811 39.2972C61.1921 39.0826 61.4629 38.9352 61.7589 38.8738C62.0549 38.8124 62.3626 38.8398 62.6428 38.9525C62.923 39.0652 63.1628 39.2582 63.3318 39.5066C63.5007 39.755 63.591 40.0477 63.5911 40.3472Z" fill="#9BA839"/>
<path d="M43.6443 41.8529C43.4469 41.8556 43.251 41.8193 43.0678 41.7463C42.8847 41.6733 42.718 41.565 42.5775 41.4276C42.4369 41.2903 42.3254 41.1267 42.2492 40.9463C42.173 40.7658 42.1338 40.5723 42.1339 40.3767C42.1282 40.1718 42.1651 39.968 42.2423 39.7778C42.3195 39.5877 42.4353 39.4153 42.5826 39.2713C42.7298 39.1273 42.9054 39.0148 43.0984 38.9408C43.2913 38.8668 43.4976 38.8328 43.7044 38.841C44.1023 38.841 44.484 38.9976 44.7654 39.2763C45.0468 39.555 45.2049 39.933 45.2049 40.3272C45.2135 40.5315 45.179 40.7354 45.1034 40.9258C45.0277 41.1161 44.9128 41.2887 44.7658 41.4323C44.6188 41.576 44.4431 41.6877 44.25 41.7601C44.0569 41.8326 43.8506 41.8642 43.6443 41.8529Z" fill="#9BA839"/>
<path d="M82.0272 40.8919C82.0272 41.516 82.0272 42.1402 82.0272 42.7545C82.0272 43.3688 81.6771 43.9038 80.9268 43.8641C80.1766 43.8245 79.9265 43.3886 79.9265 42.7347C79.9265 41.4566 79.9265 40.1785 79.9265 38.8906C79.9265 38.2168 80.3367 37.7512 80.9268 37.8998C81.1614 37.9738 81.3746 38.1023 81.5486 38.2747C81.7226 38.4471 81.8525 38.6583 81.9272 38.8906C82.0076 39.5752 82.0076 40.2667 81.9272 40.9513L82.0272 40.8919Z" fill="#9BA839"/>
<path d="M24.808 40.9119C24.808 41.5361 24.808 42.1603 24.808 42.7845C24.822 42.9226 24.8065 43.0622 24.7626 43.1941C24.7186 43.326 24.6471 43.4472 24.5528 43.55C24.4585 43.6528 24.3434 43.7347 24.215 43.7906C24.0866 43.8465 23.9479 43.875 23.8076 43.8743C23.6644 43.8846 23.5206 43.8643 23.386 43.8147C23.2514 43.765 23.1292 43.6873 23.0276 43.5867C22.9261 43.4861 22.8476 43.3651 22.7975 43.2318C22.7474 43.0985 22.7268 42.956 22.7373 42.8142C22.7373 41.4965 22.7373 40.1788 22.7373 38.8512C22.7373 38.2072 23.1874 37.7019 23.8076 37.8604C24.0399 37.9386 24.2509 38.0686 24.4243 38.2404C24.5978 38.4122 24.729 38.6211 24.808 38.8512C24.8884 39.5358 24.8884 40.2273 24.808 40.9119Z" fill="#9BA839"/>
</g>
<defs>
<clipPath id="clip0_175_2216">
<rect width="90" height="90" fill="white" transform="translate(0.199951 0.400391)"/>
</clipPath>
</defs>
</svg>
