<svg width="92" height="92" viewBox="0 0 92 92" fill="none" xmlns="http://www.w3.org/2000/svg">
<g clip-path="url(#clip0_175_2260)">
<path d="M9.55536 85.5234H2.74354C1.25503 85.5234 0.775683 85.0443 0.775683 83.5814C0.775683 59.3851 0.775683 35.1972 0.775683 11.0177C0.73423 9.63173 0.975459 8.25179 1.48471 6.96201C1.99396 5.67222 2.76056 4.49957 3.73779 3.51554C4.71501 2.53151 5.88238 1.75671 7.16881 1.2383C8.45525 0.719893 9.83382 0.46875 11.2205 0.500184H69.4742C72.0271 0.446086 74.5081 1.3472 76.431 3.02688C78.3538 4.70657 79.5798 7.04372 79.8685 9.58011C80.1305 11.949 79.5619 14.3353 78.2597 16.3317C76.9576 18.328 75.0026 19.8107 72.7287 20.5264L71.1897 20.93V34.9534L71.9466 34.2472C74.747 31.4728 77.497 28.6479 80.3226 25.8987C81.1307 25.0918 82.1334 24.5071 83.2338 24.2012C84.3341 23.8953 85.4948 23.8785 86.6036 24.1524C87.7123 24.4263 88.7315 24.9817 89.5627 25.7649C90.3938 26.548 91.0086 27.5324 91.3477 28.6227C91.6488 29.5544 91.7349 30.5422 91.5995 31.512C91.464 32.4818 91.1105 33.4083 90.5656 34.222C90.3335 34.5769 90.1947 34.9846 90.1619 35.4074C89.8612 41.1252 87.4312 46.5235 83.3501 50.5406L77.2447 56.6191L76.5635 57.2496L74.5957 55.1562L75.2264 54.5004C77.7493 51.8269 80.4992 49.229 82.9969 46.4546C84.7483 44.4079 85.9775 41.9674 86.5794 39.342C86.5794 39.0898 86.5794 38.8376 86.7813 38.3584L85.9487 39.115L71.77 53.2898C71.5504 53.49 71.3777 53.7362 71.2643 54.0109C71.1509 54.2856 71.0996 54.582 71.114 54.8788C71.114 66.3295 71.114 77.7803 71.114 89.2311C71.114 91.0471 70.7104 91.4254 68.9191 91.4254H11.7503C9.93378 91.4254 9.53014 91.0471 9.53014 89.2563L9.55536 85.5234ZM18.4107 50.3388H54.9675C55.2703 50.3388 55.6992 50.3388 55.8505 50.3388C56.784 49.4561 57.667 48.5228 58.651 47.4887H18.2846V44.5882H60.7702C61.0377 44.6019 61.3049 44.557 61.5532 44.4568C61.8016 44.3566 62.0251 44.2035 62.2082 44.0081C63.9743 42.1921 65.7908 40.4265 67.5568 38.6105C67.8573 38.256 68.0343 37.8134 68.0614 37.3495C68.0614 32.3051 68.0614 27.2019 68.0614 22.0398C68.0614 21.7371 68.0614 21.4597 68.0614 21.1822H12.5576V88.4996H68.0614V56.9217L67.3297 57.6027C64.5797 60.3519 61.7036 62.9751 59.1303 65.8756C55.2794 70.2907 50.4501 73.7454 45.0273 75.9644C43.8668 76.4436 42.7819 77.2759 41.6466 75.6869L38.3416 79.0919L36.2224 76.9732L39.6788 73.8961C38.5939 72.4837 38.5939 72.3828 39.3003 70.9451C40.5365 68.4229 41.8232 65.9008 43.0342 63.5047C43.3309 62.9351 43.7044 62.4089 44.1443 61.9409C46.6672 59.2926 49.4171 56.6696 52.0409 54.0465L52.7978 53.2141H18.335L18.4107 50.3388ZM18.4107 18.0799H69.6003C70.3258 18.0803 71.0477 17.9784 71.7448 17.7773C73.422 17.3079 74.8757 16.2537 75.8429 14.8057C76.81 13.3577 77.2268 11.6113 77.0177 9.88276C76.8053 8.08864 75.9341 6.43725 74.5729 5.24889C73.2117 4.06053 71.4577 3.41988 69.6508 3.45115H19.0667H18.436C20.3207 5.42934 21.3594 8.06446 21.3311 10.7963C21.3028 13.5281 20.2099 16.1411 18.2846 18.0799H18.4107ZM9.55536 82.5473V14.0444C9.50171 13.4081 9.58758 12.7679 9.80697 12.1682C10.0264 11.5686 10.374 11.024 10.8256 10.5725C11.2772 10.1211 11.8219 9.77354 12.4217 9.55421C13.0215 9.33488 13.662 9.24904 14.2984 9.30267H18.1332C17.8317 7.72138 17.0098 6.28635 15.7982 5.22599C14.5867 4.16564 13.0552 3.54087 11.4475 3.45115C10.4315 3.39848 9.41559 3.55678 8.46379 3.91606C7.51199 4.27534 6.64494 4.82779 5.9173 5.53865C5.18965 6.24951 4.6172 7.10335 4.23597 8.04634C3.85473 8.98933 3.67298 10.0011 3.70222 11.0177V81.6393C3.70222 81.942 3.70222 82.2194 3.70222 82.5473H9.55536ZM47.0456 63.5299L52.0914 68.5743L61.4261 59.2169L56.3803 54.1725L47.0456 63.5299ZM77.1438 33.5157L58.7771 51.8773L60.0385 53.1132L78.3548 34.8021L77.1438 33.5157ZM63.6463 56.8713L81.9625 38.5601L80.7515 37.299L62.4101 55.6354L63.6463 56.8713ZM84.5107 36.4667L87.1597 33.6923C87.4481 33.4253 87.7179 33.1388 87.967 32.8348C88.4831 32.1633 88.7502 31.3336 88.7225 30.4872C88.6949 29.6409 88.3744 28.8304 87.8157 28.1939C87.2945 27.52 86.5426 27.0622 85.7044 26.9086C84.8663 26.755 84.0009 26.9163 83.2744 27.3616C81.8286 28.5297 80.4553 29.7846 79.1621 31.1196L84.5107 36.4667ZM45.103 66.1026L42.0755 72.1558C42.4614 72.5129 42.8656 72.8496 43.2865 73.1647C43.3703 73.232 43.4689 73.2785 43.5741 73.3004C43.6793 73.3223 43.7883 73.319 43.892 73.2908C45.7842 72.3828 47.6511 71.4496 49.4928 70.5164L45.103 66.1026ZM18.1332 12.2284H13.9704C13.7907 12.2147 13.6101 12.2375 13.4394 12.2953C13.2687 12.3532 13.1114 12.4449 12.9771 12.5651C12.8428 12.6852 12.7341 12.8313 12.6577 12.9945C12.5813 13.1577 12.5386 13.3346 12.5324 13.5147C12.5324 14.9524 12.5324 16.4152 12.5324 17.8781C13.9178 17.6019 15.188 16.9155 16.1779 15.9078C17.1678 14.9002 17.8315 13.6182 18.0828 12.2284H18.1332Z" fill="#0F1D3E"/>
<path d="M62.2586 26.958V29.7577H18.3602V26.958H62.2586Z" fill="#9BA839"/>
<path d="M18.3602 32.7842H62.2334V35.6343H18.3602V32.7842Z" fill="#9BA839"/>
<path d="M18.3602 38.6606H62.2082V41.5612H18.3602V38.6606Z" fill="#9BA839"/>
<path d="M62.2335 79.7222V82.547H18.3855V79.7222H62.2335Z" fill="#9BA839"/>
<path d="M18.335 76.6706V73.8457H34.3806V76.6706H18.335Z" fill="#9BA839"/>
</g>
<defs>
<clipPath id="clip0_175_2260">
<rect width="90.9" height="90.9" fill="white" transform="translate(0.699951 0.5)"/>
</clipPath>
</defs>
</svg>
