<svg width="72" height="90" viewBox="0 0 72 90" fill="none" xmlns="http://www.w3.org/2000/svg">
<g clip-path="url(#clip0_175_2195)">
<path d="M27.7212 0.899902C28.0533 1.12592 28.3149 1.44154 28.4756 1.81029C28.6363 2.17905 28.6896 2.58585 28.6293 2.98368C28.6293 3.75013 28.6293 4.54054 28.6293 5.37884C28.6392 5.57556 28.6086 5.77221 28.5394 5.95658C28.4703 6.14095 28.3641 6.30909 28.2274 6.45059C28.0907 6.59209 27.9264 6.70394 27.7447 6.77915C27.5631 6.85436 27.368 6.89134 27.1715 6.88781C26.9772 6.89433 26.7835 6.86118 26.6024 6.79037C26.4212 6.71956 26.2564 6.61258 26.1178 6.47592C25.9792 6.33926 25.8698 6.17579 25.7962 5.99543C25.7226 5.81507 25.6864 5.62158 25.6897 5.42676C25.594 4.44708 25.594 3.46039 25.6897 2.48072C25.6897 1.95378 26.3111 1.47474 26.6457 0.971754L27.7212 0.899902Z" fill="#9BA839"/>
<path d="M16.0823 26.1208C14.6245 19.3186 16.0823 14.8396 20.6471 11.7499C22.6346 10.4548 24.9616 9.78157 27.3321 9.81569C29.7025 9.84981 32.0093 10.5898 33.9589 11.9415C38.3563 15.0313 39.7903 19.7018 38.2368 26.1208H39.145C42.0846 26.1208 45.0481 26.1208 47.9877 26.1208C49.494 26.138 50.9363 26.734 52.0169 27.7858C53.0975 28.8376 53.7341 30.265 53.7952 31.7734C53.8458 32.1228 53.7763 32.4791 53.5983 32.7837C53.4202 33.0884 53.1442 33.3233 52.8153 33.45C52.601 33.5191 52.3739 33.5391 52.1509 33.5086C51.9278 33.4781 51.7144 33.3979 51.5264 33.2738C51.3383 33.1497 51.1805 32.9849 51.0644 32.7916C50.9483 32.5982 50.8769 32.3813 50.8556 32.1567C50.4254 29.7615 49.5889 29.0669 47.199 29.0669C43.8292 29.0669 40.4834 29.0669 37.1136 29.0669C36.8737 29.0537 36.6345 29.1044 36.4205 29.2138C36.2064 29.3232 36.025 29.4873 35.8947 29.6896C35.0081 30.9593 34.5401 32.4752 34.5564 34.0249C34.5564 36.6596 34.5564 39.2942 34.5564 41.9289C34.6056 42.8372 34.3957 43.7408 33.9514 44.534C33.507 45.3271 32.8464 45.9771 32.047 46.4079C31.9327 46.4958 31.8392 46.608 31.7731 46.7363C31.707 46.8647 31.6699 47.006 31.6646 47.1504C31.6646 47.845 31.6646 48.5635 31.5212 49.2341C31.3105 50.2352 30.7589 51.1316 29.9609 51.7696C29.1629 52.4076 28.1683 52.7476 27.1476 52.7311C26.1107 52.7272 25.1088 52.3541 24.3208 51.6785C23.5329 51.0029 23.0101 50.0687 22.8458 49.0426C22.8249 48.3434 22.6514 47.6572 22.3376 47.0324C22.0238 46.4076 21.5773 45.8592 21.0294 45.4258C20.2215 44.5351 19.7778 43.3721 19.7867 42.1684C19.7867 39.414 19.7867 36.6596 19.7867 33.9051C19.7831 32.3622 19.3077 30.8575 18.4244 29.5938C18.3171 29.3941 18.1531 29.2306 17.9532 29.1241C17.7533 29.0175 17.5265 28.9726 17.3012 28.995H6.78553C6.34325 28.954 5.8974 29.0115 5.4799 29.1634C5.0624 29.3153 4.68361 29.558 4.37067 29.8739C4.05774 30.1898 3.81841 30.5711 3.66985 30.9907C3.52128 31.4102 3.46716 31.8574 3.51136 32.3004C3.51136 39.7254 3.51136 47.1504 3.51136 54.5754V83.3173C3.51136 85.8562 4.61072 86.9579 7.16793 86.9579H47.3663C49.7562 86.9579 50.9034 85.8801 50.9273 83.4131C50.9273 79.2455 50.9273 75.0779 50.9273 70.8864C50.8918 70.544 50.8918 70.1989 50.9273 69.8565C50.9955 69.525 51.1802 69.229 51.4477 69.0224C51.7153 68.8158 52.0479 68.7123 52.3851 68.7308C52.7352 68.7355 53.071 68.8705 53.3272 69.1095C53.5834 69.3486 53.7417 69.6746 53.7713 70.0242C53.795 70.2871 53.795 70.5516 53.7713 70.8146C53.7713 75.0061 53.7713 79.2216 53.7713 83.4131C53.8156 84.2815 53.6781 85.1495 53.3674 85.9614C53.0567 86.7732 52.5799 87.5109 51.9675 88.1269C51.3551 88.7428 50.6209 89.2234 49.8119 89.5378C49.003 89.8521 48.1373 89.9931 47.2707 89.9519C33.8155 89.9519 20.3603 89.9519 6.90504 89.9519C6.03523 90.0288 5.15917 89.9137 4.33855 89.6147C3.51792 89.3156 2.77269 88.84 2.15525 88.2213C1.53782 87.6025 1.06322 86.8556 0.764867 86.0331C0.466515 85.2107 0.351659 84.3327 0.428384 83.461V32.5878C0.356319 31.7223 0.472936 30.8515 0.770191 30.0358C1.06745 29.22 1.53821 28.4788 2.14982 27.8636C2.76143 27.2484 3.49924 26.7738 4.31211 26.4729C5.12497 26.172 5.99345 26.0518 6.85726 26.1208H16.0823ZM28.6294 32.0608C29.6093 32.0608 30.4935 32.0608 31.3778 32.0608C31.4879 32.0215 31.5879 31.9581 31.6706 31.8752C31.7533 31.7924 31.8165 31.6922 31.8558 31.5818C32.2826 29.9908 33.0491 28.5116 34.1023 27.2466C34.9465 26.2427 35.5458 25.0556 35.8528 23.7793C36.1597 22.503 36.1659 21.1725 35.8708 19.8934C35.5767 18.1895 34.7683 16.617 33.5546 15.3878C32.341 14.1587 30.7804 13.332 29.0835 13.0193C27.3976 12.5668 25.6123 12.659 23.9817 13.2825C22.3511 13.9061 20.9584 15.0293 20.0018 16.4923C18.9363 17.8378 18.3116 19.4805 18.2132 21.1954C18.1148 22.9104 18.5475 24.6139 19.4521 26.0729C20.8216 27.8566 21.8506 29.8786 22.4873 32.0369H25.5703C25.5703 31.7255 25.5703 31.4381 25.5703 31.1507V25.2346C25.5219 24.9252 25.5219 24.61 25.5703 24.3005C25.6393 23.9666 25.8284 23.6698 26.1017 23.4667C26.3749 23.2635 26.7132 23.1681 27.052 23.1987C27.4017 23.2098 27.7348 23.3508 27.9865 23.5943C28.2383 23.8377 28.3907 24.1663 28.4143 24.5161C28.4143 25.1867 28.4143 25.8574 28.4143 26.528L28.6294 32.0608ZM31.5451 37.9529V35.0788H22.7741V37.9529H31.5451ZM31.5451 41.0427H22.6785C22.6537 41.5054 22.6537 41.9692 22.6785 42.4319C22.6682 42.6296 22.6994 42.8273 22.7702 43.0122C22.8411 43.197 22.9499 43.3649 23.0896 43.5049C23.2293 43.6449 23.3968 43.754 23.5812 43.8249C23.7657 43.8959 23.9629 43.9272 24.1602 43.9169H30.135C30.3159 43.9201 30.4956 43.8871 30.6637 43.8199C30.8317 43.7527 30.9847 43.6527 31.1138 43.5256C31.2428 43.3985 31.3453 43.2469 31.4152 43.0797C31.4852 42.9125 31.5212 42.733 31.5212 42.5517C31.6168 42.0487 31.569 41.6175 31.569 41.0427H31.5451ZM25.6659 46.9587C25.6659 47.9887 25.3552 49.0665 26.4068 49.6174C26.6435 49.7238 26.9001 49.7788 27.1596 49.7788C27.4191 49.7788 27.6756 49.7238 27.9124 49.6174C28.964 49.0186 28.5338 47.9647 28.5816 46.9827L25.6659 46.9587Z" fill="#0F1D3E"/>
<path d="M54.9661 40.516C54.4642 40.1328 54.1297 39.8933 53.8429 39.6298C53.6996 39.4501 53.5178 39.305 53.3109 39.2053C53.1041 39.1056 52.8775 39.0538 52.6479 39.0538C52.4184 39.0538 52.1918 39.1056 51.9849 39.2053C51.7781 39.305 51.5962 39.4501 51.453 39.6298C49.7083 41.3543 47.9637 43.1028 46.243 44.8513L42.3713 48.7314C41.5587 49.5218 40.7223 49.5697 39.9814 48.8991C39.8139 48.7399 39.6845 48.5448 39.6029 48.3283C39.5213 48.1119 39.4897 47.8798 39.5104 47.6493C39.5311 47.4189 39.6036 47.1961 39.7224 46.9978C39.8412 46.7994 40.0033 46.6306 40.1965 46.5039L49.2064 37.4742C49.6237 36.9961 50.1381 36.613 50.7151 36.3505C51.2922 36.0881 51.9186 35.9522 52.5523 35.9522C53.1861 35.9522 53.8124 36.0881 54.3895 36.3505C54.9666 36.613 55.481 36.9961 55.8982 37.4742C56.1458 37.7671 56.3696 38.0795 56.5674 38.4083C57.6189 37.4263 58.4315 36.564 59.3397 35.7976C60.2934 34.9613 61.4477 34.3877 62.6892 34.1331C63.9307 33.8786 65.217 33.9517 66.4219 34.3453C67.6267 34.7389 68.7088 35.4396 69.5621 36.3786C70.4154 37.3176 71.0106 38.4627 71.2893 39.7017C71.6288 40.9796 71.6099 42.3265 71.2346 43.5944C70.8593 44.8622 70.1422 46.0016 69.1622 46.8872L47.4618 68.6592C44.8568 71.2699 42.2518 73.9046 39.599 76.4913C39.069 77.0185 38.4447 77.4411 37.7587 77.7368L24.1362 83.581C23.8447 83.7681 23.4979 83.8487 23.154 83.8095C22.8101 83.7702 22.4902 83.6134 22.2482 83.3655C22.014 83.1201 21.8662 82.8049 21.8274 82.4676C21.7885 82.1303 21.8608 81.7895 22.0331 81.4972C24.0406 76.8267 26.0243 72.1321 28.0318 67.4616C28.2803 66.9692 28.6118 66.5235 29.0116 66.1443L54.0102 41.0669C54.3195 40.8676 54.6386 40.6837 54.9661 40.516ZM37.9977 74.0483L59.746 52.3002L53.6995 46.1926L32.0468 67.9646L37.9977 74.0483ZM62.2076 50.0967C63.8566 48.42 65.6013 46.7195 67.2742 44.971C67.6904 44.5569 68.0208 44.0644 68.2462 43.5218C68.4716 42.9792 68.5877 42.3972 68.5877 41.8094C68.5877 41.2217 68.4716 40.6397 68.2462 40.0971C68.0208 39.5545 67.6904 39.0619 67.2742 38.6478C66.4203 37.8052 65.27 37.333 64.0717 37.333C62.8734 37.333 61.7231 37.8052 60.8692 38.6478C59.5787 39.8933 58.3359 41.1867 57.0693 42.4321C56.6152 42.8633 56.1133 43.2465 55.707 43.5819L62.2076 50.0967ZM35.1776 76.0123L30.0154 70.8867L26.1676 79.8925L35.1776 76.0123Z" fill="#0F1D3E"/>
<path d="M21.2924 57.282C17.4446 57.282 13.6207 57.282 9.77295 57.282C9.26935 57.2908 8.77585 57.1399 8.36291 56.8509C8.17821 56.687 8.03963 56.4775 7.961 56.2432C7.88238 56.0089 7.86646 55.758 7.91484 55.5156C7.96321 55.2732 8.07419 55.0477 8.2367 54.8618C8.3992 54.6758 8.60751 54.5358 8.84088 54.4557C9.19409 54.3348 9.56791 54.2859 9.94026 54.312H33.2658C33.4603 54.3118 33.6528 54.3512 33.8317 54.4278C34.0105 54.5045 34.1719 54.6168 34.306 54.758C34.4402 54.8992 34.5442 55.0662 34.6119 55.2489C34.6796 55.4316 34.7095 55.6263 34.6998 55.8209C34.7039 56.019 34.6663 56.2158 34.5896 56.3984C34.5129 56.581 34.3987 56.7454 34.2544 56.881C34.1102 57.0165 33.9391 57.1201 33.7523 57.1851C33.5656 57.25 33.3672 57.2749 33.1702 57.2581C30.4696 57.2581 27.7451 57.2581 25.0206 57.2581L21.2924 57.282Z" fill="#9BA839"/>
<path d="M17.7074 61.7607H25.5941C26.7413 61.7607 27.4582 62.3356 27.4582 63.2457C27.4582 64.1559 26.7412 64.7307 25.5702 64.7307H9.86846C8.6974 64.7307 8.02823 64.1799 8.05213 63.2218C8.07603 62.2637 8.69738 61.7607 9.89234 61.7607H17.7074Z" fill="#9BA839"/>
<path d="M15.676 69.1857H21.9137C22.2506 69.1653 22.5839 69.2646 22.8549 69.4661C23.1259 69.6676 23.3174 69.9585 23.3955 70.2875C23.4971 70.5971 23.4827 70.9331 23.3552 71.2328C23.2277 71.5325 22.9956 71.7754 22.7024 71.9162C22.3124 72.0919 21.8869 72.1739 21.4597 72.1558H12.9277C11.7327 72.1558 10.5377 72.1558 9.29497 72.1558C9.10563 72.1528 8.91882 72.1116 8.7457 72.0347C8.57258 71.9578 8.41671 71.8468 8.28734 71.7082C8.15798 71.5696 8.05779 71.4063 7.99276 71.2281C7.92773 71.0498 7.89916 70.8603 7.90881 70.6708C7.90564 70.4832 7.93977 70.2968 8.00921 70.1226C8.07865 69.9484 8.18202 69.7898 8.31327 69.656C8.44452 69.5222 8.60106 69.416 8.77371 69.3435C8.94636 69.271 9.13169 69.2336 9.31889 69.2337H15.6522L15.676 69.1857Z" fill="#9BA839"/>
<path d="M14.0749 79.5571H9.55792C8.53026 79.5571 7.9089 78.9584 7.93279 78.0482C7.93541 77.8447 7.97971 77.6439 8.06298 77.4583C8.14626 77.2727 8.26671 77.1062 8.41686 76.9692C8.56701 76.8322 8.74368 76.7276 8.93586 76.6619C9.12804 76.5962 9.33163 76.5707 9.53403 76.5872H18.6396C18.85 76.5665 19.0623 76.5912 19.2624 76.6596C19.4625 76.728 19.6456 76.8385 19.7996 76.9837C19.9535 77.1289 20.0747 77.3054 20.1549 77.5014C20.2351 77.6974 20.2726 77.9083 20.2648 78.1201C20.2648 79.0063 19.6434 79.5332 18.5679 79.5571H14.0749Z" fill="#9BA839"/>
<path d="M12.378 39.5098H15.2459C15.4401 39.4968 15.6349 39.5235 15.8184 39.5884C16.002 39.6532 16.1705 39.7549 16.3136 39.8871C16.4567 40.0193 16.5714 40.1793 16.6508 40.3574C16.7302 40.5355 16.7726 40.7279 16.7754 40.923C16.7821 41.1261 16.7471 41.3284 16.6725 41.5174C16.598 41.7064 16.4856 41.878 16.3422 42.0217C16.1988 42.1654 16.0276 42.2781 15.839 42.3528C15.6504 42.4274 15.4485 42.4626 15.2459 42.4559C13.3339 42.4559 11.3981 42.4559 9.46227 42.4559C9.26079 42.4659 9.05941 42.434 8.87088 42.362C8.68236 42.2901 8.51078 42.1797 8.36702 42.0379C8.22325 41.896 8.11043 41.7258 8.03568 41.538C7.96092 41.3503 7.92586 41.149 7.93273 40.9469C7.93134 40.7432 7.97315 40.5416 8.05544 40.3553C8.13773 40.169 8.2586 40.0024 8.41001 39.8666C8.56143 39.7307 8.73995 39.6286 8.93372 39.5671C9.12749 39.5056 9.3321 39.486 9.53397 39.5098H12.378Z" fill="#9BA839"/>
<path d="M12.4019 46.9112H15.1742C16.1779 46.9112 16.7754 47.486 16.7754 48.3483C16.7864 48.5534 16.7534 48.7586 16.6785 48.9499C16.6037 49.1412 16.4887 49.3142 16.3415 49.4572C16.1943 49.6002 16.0182 49.7099 15.825 49.7789C15.6319 49.8479 15.4263 49.8746 15.222 49.8572C13.31 49.8572 11.3981 49.8572 9.48616 49.8572C9.28186 49.8746 9.07623 49.8479 8.8831 49.7789C8.68997 49.7099 8.51384 49.6002 8.36661 49.4572C8.21938 49.3142 8.10447 49.1412 8.02962 48.9499C7.95477 48.7586 7.92174 48.5534 7.93273 48.3483C7.93273 47.486 8.5302 46.9591 9.53397 46.8872H12.4019V46.9112Z" fill="#9BA839"/>
<path d="M38.5237 31.5342C38.9578 31.7282 39.3737 31.9606 39.7664 32.2288C40.4595 32.8515 41.1048 33.5222 41.7262 34.1928C41.8788 34.3277 42.001 34.4935 42.0847 34.6794C42.1684 34.8652 42.2117 35.0668 42.2117 35.2707C42.2117 35.4746 42.1684 35.6761 42.0847 35.8619C42.001 36.0478 41.8788 36.2136 41.7262 36.3485C41.5877 36.4949 41.421 36.6115 41.2361 36.6911C41.0512 36.7708 40.852 36.8119 40.6507 36.8119C40.4495 36.8119 40.2503 36.7708 40.0654 36.6911C39.8805 36.6115 39.7137 36.4949 39.5753 36.3485C38.838 35.7067 38.1583 35.0014 37.5438 34.2407C37.3916 34.0106 37.2895 33.7508 37.2442 33.4784C37.1989 33.206 37.2114 32.9271 37.281 32.6599C37.5199 32.1809 38.0935 32.0372 38.5237 31.5342Z" fill="#9BA839"/>
<path d="M17.2294 10.337C16.9665 10.6723 16.7036 11.2471 16.2973 11.4388C16.0508 11.5246 15.7887 11.5562 15.5289 11.5314C15.269 11.5066 15.0176 11.426 14.7917 11.2951C13.9242 10.5709 13.1243 9.76925 12.4018 8.89989C12.168 8.65478 12.0376 8.3288 12.0376 7.98975C12.0376 7.6507 12.168 7.32469 12.4018 7.07958C12.4954 6.93717 12.6168 6.81513 12.7586 6.72076C12.9003 6.62639 13.0596 6.56165 13.2269 6.53035C13.3942 6.49905 13.5661 6.50185 13.7323 6.53861C13.8985 6.57536 14.0556 6.6453 14.1942 6.74426C15.1553 7.59975 16.0651 8.5115 16.9187 9.47474C17.086 9.6424 17.1099 9.90587 17.2294 10.337Z" fill="#9BA839"/>
<path d="M44.9047 23.1511C44.4267 23.1511 43.9248 23.1511 43.4469 23.1511C43.0517 23.1448 42.6748 22.9831 42.3976 22.7008C42.1204 22.4185 41.965 22.0383 41.9651 21.6422C41.9773 21.2608 42.1356 20.8988 42.407 20.6312C42.6785 20.3636 43.0422 20.211 43.4229 20.2051H46.3864C46.5757 20.205 46.7631 20.2431 46.9373 20.3171C47.1116 20.3911 47.2692 20.4994 47.4008 20.6358C47.5324 20.7721 47.6352 20.9336 47.7032 21.1106C47.7712 21.2876 47.8029 21.4766 47.7965 21.6661C47.8029 21.8549 47.7721 22.043 47.7059 22.2199C47.6396 22.3967 47.5393 22.5587 47.4106 22.6966C47.2818 22.8345 47.1272 22.9456 46.9556 23.0236C46.784 23.1016 46.5987 23.1449 46.4103 23.1511C45.9562 23.199 45.4305 23.1511 44.9047 23.1511Z" fill="#9BA839"/>
<path d="M15.5325 31.7255C15.7978 31.7091 16.0626 31.7646 16.2991 31.886C16.5356 32.0074 16.7352 32.1904 16.877 32.4157C17.0187 32.641 17.0973 32.9004 17.1047 33.1666C17.112 33.4329 17.0478 33.6962 16.9187 33.929C16.1301 34.883 15.2583 35.7647 14.3137 36.5637C14.026 36.7661 13.6714 36.8491 13.3239 36.7956C12.9765 36.742 12.6632 36.556 12.4495 36.2763C12.2211 36.0285 12.0942 35.7035 12.0942 35.3661C12.0942 35.0287 12.2211 34.7037 12.4495 34.4559C13.2038 33.6162 14.0015 32.8167 14.8395 32.0608C15.0495 31.9099 15.284 31.7964 15.5325 31.7255Z" fill="#9BA839"/>
<path d="M9.41435 23.1511C8.88857 23.1511 8.36278 23.1511 7.837 23.1511C7.4587 23.1386 7.10007 22.9792 6.83692 22.7066C6.57378 22.4339 6.42675 22.0694 6.42696 21.69C6.42378 21.4993 6.45853 21.3098 6.52917 21.1327C6.59982 20.9556 6.70494 20.7943 6.83842 20.6583C6.97189 20.5223 7.13103 20.4143 7.30658 20.3406C7.48213 20.2669 7.67058 20.229 7.86092 20.229C8.88859 20.229 9.94012 20.229 10.9678 20.229C11.1498 20.2321 11.3295 20.2711 11.4965 20.3438C11.6635 20.4165 11.8145 20.5215 11.941 20.6527C12.0675 20.784 12.167 20.9389 12.2337 21.1087C12.3005 21.2784 12.3332 21.4597 12.3301 21.6421C12.3397 21.8309 12.3121 22.0197 12.2488 22.1978C12.1856 22.3759 12.0878 22.5397 11.9613 22.6799C11.8348 22.82 11.6819 22.9338 11.5114 23.0147C11.3409 23.0955 11.1562 23.1419 10.9678 23.1511C10.5376 23.199 9.91623 23.1511 9.41435 23.1511Z" fill="#9BA839"/>
<path d="M42.4429 7.89378C42.2494 8.32879 42.0174 8.74562 41.7498 9.13928C41.133 9.8294 40.4787 10.485 39.7901 11.1033C39.6535 11.2529 39.4874 11.3723 39.3022 11.454C39.1171 11.5358 38.917 11.578 38.7146 11.578C38.5123 11.578 38.3122 11.5358 38.1271 11.454C37.9419 11.3723 37.7758 11.2529 37.6392 11.1033C37.5012 10.9673 37.3916 10.8052 37.3167 10.6263C37.2419 10.4474 37.2034 10.2554 37.2034 10.0614C37.2034 9.86744 37.2419 9.67541 37.3167 9.49653C37.3916 9.31764 37.5012 9.15549 37.6392 9.01951C38.2715 8.2739 38.9672 7.5847 39.7184 6.95967C39.9516 6.81514 40.2116 6.71942 40.4826 6.67826C40.7537 6.63709 41.0303 6.65132 41.2958 6.72014C41.7976 6.8878 42.0606 7.46265 42.4429 7.89378Z" fill="#9BA839"/>
<path d="M39.7664 39.5097H40.4595C40.6558 39.4998 40.852 39.5304 41.0359 39.5997C41.2199 39.669 41.3877 39.7755 41.5289 39.9125C41.6701 40.0495 41.7816 40.2141 41.8567 40.3962C41.9317 40.5782 41.9686 40.7738 41.9651 40.9707C41.9651 41.1678 41.926 41.3628 41.8501 41.5446C41.7741 41.7263 41.6629 41.8911 41.5227 42.0293C41.3826 42.1675 41.2164 42.2764 41.0338 42.3496C40.8513 42.4228 40.6561 42.4589 40.4595 42.4557C40.0296 42.4797 39.5988 42.4797 39.1689 42.4557C38.9606 42.4761 38.7503 42.4519 38.552 42.3849C38.3536 42.3179 38.1717 42.2096 38.0182 42.067C37.8646 41.9245 37.743 41.7509 37.6612 41.5578C37.5794 41.3647 37.5394 41.1565 37.5438 40.9468C37.5458 40.742 37.5907 40.5398 37.6757 40.3536C37.7607 40.1673 37.8838 40.001 38.037 39.8655C38.1902 39.73 38.3702 39.6283 38.5652 39.567C38.7602 39.5057 38.9659 39.4861 39.1689 39.5097H39.7664Z" fill="#9BA839"/>
</g>
<defs>
<clipPath id="clip0_175_2195">
<rect width="71.1" height="89.1" fill="white" transform="translate(0.5 0.899902)"/>
</clipPath>
</defs>
</svg>
