<svg width="91" height="90" viewBox="0 0 91 90" fill="none" xmlns="http://www.w3.org/2000/svg">
<g clip-path="url(#clip0_175_2272)">
<path d="M0.599976 72.5824V30.9265C1.70324 28.2794 4.02451 28.6324 6.25752 28.6941C6.36344 27.5118 7.14013 27.0706 8.10218 26.7618C10.1234 26.1088 12.1357 25.4029 14.1834 24.8206C14.328 24.8058 14.4681 24.7614 14.5948 24.6901C14.7215 24.6189 14.8322 24.5223 14.92 24.4064C15.0077 24.2905 15.0707 24.1578 15.1049 24.0165C15.1392 23.8753 15.1439 23.7285 15.119 23.5853C15.119 18.9265 15.119 14.2676 15.119 9.60882C15.119 8.61176 15.119 7.6147 15.119 6.62647C15.1807 5.4 15.8692 4.91471 17.0784 5.19706C17.3343 5.25 17.5903 5.30294 17.8462 5.37353L23.9009 7.13823V6.25588C23.9009 4.79117 23.9009 3.32647 23.9009 1.84411C23.8683 1.49906 23.9194 1.15123 24.05 0.830168C24.1806 0.509108 24.3869 0.224314 24.6512 0H25.9133C26.0645 0.0731194 26.2208 0.135043 26.3811 0.185287C29.865 1.00011 33.1393 2.53609 35.9927 4.69411C41.6679 9.10588 44.6247 15.0971 46.1163 21.9441C46.4252 23.3471 46.6194 24.7853 46.8754 26.2765C47.0519 26.1618 47.149 26.1 47.2372 26.0294C56.2046 19.0765 66.4429 15.8294 77.7138 15.6441C79.2407 15.6441 79.6291 16.0235 79.6291 17.5676C79.6291 19.9677 79.6291 22.3676 79.6291 24.7676C79.6291 25.3147 79.7615 25.65 80.3264 25.7735C81.2531 26.0382 82.1534 26.4 83.0536 26.7353C83.9539 27.0706 84.8806 27.4588 84.9424 28.6765H87.1313C89.3731 28.6765 90.6618 29.9206 90.6618 32.1441V86.5235C90.6618 88.7912 89.4702 89.9735 87.1931 89.9735H49.5232C49.1779 89.9945 48.8322 89.938 48.5115 89.8083C48.1908 89.6785 47.9032 89.4787 47.6697 89.2235C47.4082 88.9341 47.0889 88.7028 46.7324 88.5444C46.3759 88.3861 45.9901 88.3043 45.6 88.3043C45.2099 88.3043 44.8241 88.3861 44.4676 88.5444C44.1111 88.7028 43.7917 88.9341 43.5302 89.2235C43.2957 89.4793 43.0064 89.6789 42.684 89.8072C42.3615 89.9356 42.0142 89.9894 41.6679 89.9647C29.3114 89.9647 16.893 89.9647 4.50112 89.9647C2.63881 89.9647 1.34137 89.3735 0.599976 87.6529V79.5706C0.774712 79.2617 1.05279 79.0242 1.38532 78.8999C1.71786 78.7757 2.08356 78.7726 2.41816 78.8912C3.22133 79.1647 3.24781 79.8353 3.24781 80.5412C3.24781 82.4206 3.24781 84.2912 3.24781 86.1618C3.24781 87.2735 3.24781 87.2912 4.39521 87.2912C16.5517 87.2912 28.7082 87.2912 40.8648 87.2912C41.315 87.2751 41.7495 87.1211 42.1092 86.85C43.1034 86.0873 44.3189 85.6688 45.572 85.6577C46.8251 85.6465 48.0478 86.0433 49.0554 86.7882C49.4876 87.1015 50.0045 87.2768 50.5382 87.2912C62.577 87.2912 74.6159 87.2912 86.6547 87.2912C87.9786 87.2912 87.9786 87.2912 87.9786 85.9941V32.7C88.0143 32.4394 88.0143 32.1753 87.9786 31.9147C87.9257 31.7294 87.7227 31.4559 87.5726 31.4471C86.69 31.4029 85.8074 31.4471 84.9248 31.4471V82.4471C84.9248 84.2118 84.5894 84.5382 82.8153 84.5382H8.43757C8.18162 84.5382 7.91683 84.5382 7.65205 84.5382C7.32494 84.5414 7.00887 84.4201 6.76794 84.1989C6.52701 83.9777 6.37924 83.6731 6.35461 83.3471C6.31349 82.9691 6.29874 82.5888 6.31048 82.2088V31.4029H4.39521C3.23899 31.4029 3.23899 31.4029 3.23899 32.5765C3.23899 45.6059 3.23899 58.6382 3.23899 71.6735C3.23899 72.3882 3.18603 73.0235 2.35637 73.2971C2.02658 73.4091 1.66742 73.3986 1.3448 73.2673C1.02218 73.136 0.757728 72.8928 0.599976 72.5824ZM46.9724 79.5529C55.8868 72.6441 65.8603 69.3794 76.9195 68.9647V40.5618C76.8998 40.2428 76.9206 39.9226 76.9813 39.6088C77.0331 39.2988 77.198 39.019 77.4441 38.8234C77.6903 38.6278 78.0002 38.5304 78.314 38.55C78.6268 38.544 78.9303 38.656 79.1642 38.8637C79.3981 39.0713 79.5451 39.3594 79.5761 39.6706C79.6154 39.9304 79.6331 40.1931 79.6291 40.4559V69.7147C79.6291 71.2588 79.2055 71.6735 77.6256 71.6823C72.9117 71.6946 68.2262 72.4113 63.7244 73.8088C62.3564 74.2235 61.0148 74.7353 59.6644 75.2029V75.4235C67.1922 74.2339 74.8947 74.8386 82.1445 77.1882V30.2559C82.1667 30.0535 82.1667 29.8494 82.1445 29.6471C82.1095 29.4602 82.0055 29.2933 81.8533 29.1794C81.1648 28.8971 80.4499 28.65 79.5938 28.3412C79.5938 28.8088 79.5938 29.1265 79.5938 29.4353C79.5938 30.2294 79.5938 31.0235 79.5938 31.8088C79.5939 31.9856 79.5585 32.1607 79.4898 32.3236C79.421 32.4865 79.3203 32.634 79.1936 32.7574C79.0669 32.8808 78.9168 32.9775 78.7521 33.0419C78.5873 33.1063 78.4114 33.1371 78.2346 33.1324C77.8809 33.1101 77.5488 32.9549 77.3048 32.698C77.0609 32.441 76.9232 32.1013 76.9195 31.7471C76.9062 31.5119 76.9062 31.2763 76.9195 31.0412V19.2441C76.9195 18.9353 76.9195 18.6265 76.8665 18.1147C73.8745 18.5206 70.9795 18.7588 68.1551 19.3235C60.6263 20.7594 53.5915 24.1011 47.7227 29.0294C47.4708 29.2199 47.2692 29.469 47.1354 29.7549C47.0016 30.0409 46.9396 30.3552 46.9548 30.6706C46.9548 46.5529 46.9548 62.4529 46.9548 78.3706L46.9724 79.5529ZM26.6723 3.04412C26.6723 3.25588 26.6194 3.34412 26.6194 3.42353C26.6194 19.9412 26.6194 36.4588 26.6194 52.9765C26.6194 53.5147 26.8665 53.6647 27.299 53.7794C35.0748 55.9324 40.5382 60.8382 43.8392 68.0912C43.9274 68.2765 44.0422 68.4529 44.1481 68.6294L44.2805 68.5853V67.5441C44.2805 55.1912 44.2805 42.8382 44.2805 30.4853C44.2839 28.1206 44.092 25.7596 43.7068 23.4265C42.9372 18.1121 40.6055 13.1461 37.0077 9.15883C34.2081 6.17845 30.6168 4.05737 26.6547 3.04412H26.6723ZM41.6768 78.6529C41.5002 78.3441 41.4561 78.2382 41.3855 78.1412C35.2425 69.6 27.299 63.7147 16.9724 61.2794C15.2602 60.8824 15.1013 60.6794 15.1013 58.8971V27.2647C13.3361 27.8471 11.6415 28.4029 9.97332 28.8971C9.82026 28.9206 9.67343 28.9744 9.54142 29.0553C9.4094 29.1362 9.29485 29.2426 9.20445 29.3683C9.11405 29.494 9.04963 29.6365 9.01494 29.7874C8.98026 29.9382 8.97601 30.0945 9.00245 30.2471C9.00245 45.5412 9.00245 60.8559 9.00245 76.1912V77.2147C20.0704 73.95 30.8824 73.7294 41.6768 78.6529ZM43.3802 76.2794L43.6009 76.1647C43.2743 74.9471 43.0007 73.7118 42.6212 72.5118C39.8939 64.0588 34.5541 58.2706 25.7015 56.1353C24.0333 55.7294 23.9363 55.5353 23.9363 53.7971V11.3647C23.9584 11.1005 23.9584 10.8348 23.9363 10.5706C23.9363 10.3941 23.795 10.1382 23.6538 10.0853C21.7739 9.38823 19.8939 8.71765 17.908 8.01177V58.6941C28.5523 61.3676 36.9195 67.4294 43.3802 76.2794ZM41.5355 81.8382L41.6326 81.5823C40.0616 80.9206 38.517 80.1882 36.9107 79.6147C31.4476 77.7225 25.6321 77.0685 19.8851 77.7C16.4265 78.0559 13.0135 78.7655 9.69971 79.8176C9.15249 79.9853 8.94066 80.25 9.01127 80.8059C9.0335 81.1496 9.0335 81.4945 9.01127 81.8382H41.5355ZM49.5585 81.5206L49.6821 81.8118H82.1181C82.3299 80.0471 82.3475 80.0471 80.8295 79.6324C78.3405 79.0235 75.8427 78.397 73.3184 77.9912C67.4219 76.9953 61.3735 77.4065 55.6662 79.1912C53.5744 79.8441 51.5885 80.7353 49.5585 81.5206Z" fill="#0F1D3E"/>
<path d="M54.6 49.1202C54.6 50.9763 54.6 52.8323 54.6 54.7447C54.6 55.8836 54.2873 56.671 53.3803 56.6991C52.4734 56.7273 52.1189 55.968 52.0981 54.815C52.046 51.0466 51.9521 47.2782 51.9 43.566C51.9 42.1599 52.3483 41.4287 53.1093 41.4006C53.8703 41.3725 54.3603 42.188 54.3915 43.4957C54.3915 44.4659 54.3915 45.4502 54.4541 46.4204C54.5166 47.3906 54.5166 48.2765 54.5479 49.2327L54.6 49.1202Z" fill="#9BA839"/>
<path d="M54.5817 60.7738C54.5817 61.1708 54.6467 61.7001 54.5311 61.9768C54.2927 62.4339 53.9314 63.0233 53.6424 62.9993C53.3533 62.9752 53.0065 62.3136 52.8692 61.7963C52.7912 61.2198 52.7789 60.624 52.8331 60.04C52.8331 59.1017 53.1004 58.5122 53.6857 58.5002C54.271 58.4882 54.5383 59.0656 54.5672 59.9919C54.5672 60.2686 54.5672 60.5452 54.5672 60.8219L54.5817 60.7738Z" fill="#9BA839"/>
</g>
<defs>
<clipPath id="clip0_175_2272">
<rect width="90" height="90" fill="white" transform="translate(0.599976)"/>
</clipPath>
</defs>
</svg>
