<svg width="84" height="84" viewBox="0 0 84 84" fill="none" xmlns="http://www.w3.org/2000/svg">
<g clip-path="url(#clip0_175_2235)">
<path d="M0.800022 30.2045C0.973212 29.8036 1.26776 29.467 1.64219 29.2423C2.01662 29.0176 2.45206 28.916 2.88724 28.9519C6.68598 28.9519 10.4847 28.9519 14.2835 28.9519C14.6061 28.9556 14.9276 28.9906 15.2436 29.0563C15.5803 29.1538 15.8772 29.3562 16.0912 29.634C16.3051 29.9119 16.425 30.2506 16.4333 30.6012C16.4176 30.9685 16.2797 31.3199 16.0414 31.5998C15.8032 31.8797 15.4783 32.072 15.1184 32.1461C14.7986 32.1669 14.4779 32.1669 14.1582 32.1461H4.03522C4.03522 32.4175 4.03522 32.6055 4.03522 32.7725C4.03522 36.948 3.90999 40.9773 4.03522 45.0693C4.08635 50.2594 5.46799 55.3495 8.048 59.8529C10.628 64.3562 14.32 68.1221 18.771 70.7903C19.0706 70.9604 19.4076 71.0536 19.752 71.0617C29.7428 71.0617 39.7406 71.0617 49.7453 71.0617C50.0867 71.0576 50.4197 70.9562 50.7055 70.7694C54.8722 68.3289 58.3808 64.9084 60.9268 60.8046C63.4729 56.7008 64.9795 52.0377 65.316 47.2196C65.7334 42.2717 65.316 37.2611 65.316 32.1461H32.9432C32.5682 32.1773 32.1912 32.1773 31.8161 32.1461C31.4723 32.0775 31.1608 31.8969 30.9305 31.6325C30.7001 31.3681 30.5638 31.0348 30.5429 30.6847C30.5242 30.3318 30.6254 29.983 30.83 29.6949C31.0347 29.4068 31.3307 29.1965 31.67 29.098C32.0398 29.0141 32.4179 28.9721 32.7971 28.9728H66.4222C68.1337 28.9728 68.6764 29.5156 68.6764 31.2484V34.0251H81.1997C83.12 34.0251 83.6 34.4844 83.6 36.3842C83.6 39.9752 83.6 43.5661 83.6 47.157C83.6253 50.7639 82.3864 54.2657 80.0985 57.0538C77.8107 59.8419 74.6185 61.7401 71.0767 62.4184C68.8358 62.7191 66.5737 62.8309 64.3141 62.7525C64.0393 62.7342 63.7648 62.7929 63.5215 62.9219C63.2782 63.051 63.0756 63.2454 62.9366 63.4832C61.2029 66.1208 59.0934 68.491 56.6749 70.5189C56.4397 70.7139 56.2167 70.923 56.007 71.1452H70.4297C72.0786 71.1452 72.6421 71.7507 72.5169 73.4209C72.3455 76.0168 71.2371 78.4619 69.398 80.3014C67.5589 82.141 65.1143 83.2497 62.5191 83.4211H11.5909C9.13358 83.4684 6.73586 82.662 4.80627 81.1393C2.87668 79.6165 1.53463 77.4717 1.00876 75.0702L0.758301 74.0681V72.2935C0.979626 71.8968 1.31457 71.5755 1.72003 71.3709C2.12548 71.1662 2.58288 71.0876 3.03336 71.1452C5.68413 71.1452 8.31403 71.1452 10.9648 71.1452H13.2607L12.9685 71.354C11.904 70.0804 10.8813 68.8069 9.73332 67.5752C5.44412 62.9552 2.54962 57.2155 1.38444 51.0194C1.13397 49.6414 0.967023 48.2635 0.758301 46.8439L0.800022 30.2045ZM4.28568 74.3812C4.64189 76.0558 5.57468 77.5522 6.92126 78.6091C8.26784 79.666 9.94272 80.2164 11.6536 80.1643C28.3513 80.1643 45.0491 80.1643 61.7469 80.1643C62.9842 80.1385 64.2015 79.8466 65.316 79.3083C66.2946 78.85 67.1508 78.1666 67.8147 77.3139C68.4785 76.4612 68.9312 75.4634 69.1356 74.4021L4.28568 74.3812ZM65.2534 59.433H66.297C67.3696 59.4716 68.4435 59.4367 69.5113 59.3286C72.5429 58.9514 75.3262 57.4605 77.3204 55.1456C79.3146 52.8307 80.3774 49.857 80.3022 46.8021V37.3028H68.6973V40.4763H75.1051C76.4826 40.4763 77.067 41.1026 77.067 42.564C77.067 44.0254 77.067 45.8417 77.067 47.4911C77.0469 48.7192 76.7732 49.9298 76.2631 51.0471C75.7531 52.1644 75.0178 53.1643 74.1032 53.984C73.1881 54.8028 72.1181 55.4298 70.9566 55.8278C69.795 56.2259 68.5654 56.3869 67.3406 56.3013C67.0484 56.3013 66.5892 56.4266 66.4848 56.6354C66.0883 57.5331 65.7334 58.4935 65.2534 59.433ZM68.8643 43.6705L67.8206 52.9609C68.8634 52.9946 69.8957 52.7443 70.8074 52.2369C71.7191 51.7295 72.4759 50.9839 72.997 50.0798C74.2284 48.0965 73.7484 45.9044 73.8318 43.6705H68.8643Z" fill="white"/>
<path d="M34.5921 0.600031C35.928 1.43513 36.0949 2.16583 35.2601 3.52286C34.7265 4.29935 34.4712 5.23351 34.5356 6.17351C34.6 7.11351 34.9804 8.0041 35.6149 8.7005C36.7079 9.93174 37.5072 11.3951 37.9526 12.9803C38.2657 14.2918 38.2724 15.6578 37.9719 16.9722C37.6715 18.2865 37.072 19.5139 36.2202 20.5589C35.9423 20.9569 35.6354 21.3337 35.3018 21.6863C35.0308 21.9598 34.6697 22.1255 34.2857 22.1523C33.9017 22.1792 33.521 22.0655 33.2146 21.8324C32.8872 21.6075 32.659 21.2651 32.5773 20.8764C32.4957 20.4876 32.567 20.0822 32.7763 19.7446C32.9935 19.379 33.2377 19.0301 33.5068 18.7008C34.4575 17.6805 34.9862 16.3376 34.9862 14.9428C34.9862 13.5481 34.4575 12.2052 33.5068 11.1849C32.7262 10.3544 32.1353 9.36414 31.7749 8.28273C31.4145 7.20132 31.2933 6.05457 31.4195 4.92168C31.4525 4.04899 31.6862 3.1956 32.1025 2.42796C32.5188 1.66032 33.1065 0.999064 33.8199 0.495605L34.5921 0.600031Z" fill="white"/>
<path d="M43.9428 18.6799C43.9075 17.2488 43.3593 15.8781 42.3983 14.8175C41.3199 13.6525 40.5958 12.204 40.3111 10.642C40.1532 9.65527 40.1976 8.64669 40.4416 7.67765C40.6856 6.70861 41.1241 5.79933 41.7304 5.00508C41.8467 4.82245 41.9984 4.66492 42.1764 4.54163C42.3544 4.41834 42.5552 4.33175 42.7671 4.28703C42.9789 4.24232 43.1976 4.24033 43.4102 4.28117C43.6228 4.32201 43.8252 4.40492 44.0055 4.52494C44.1793 4.64206 44.3279 4.79292 44.4424 4.96857C44.5569 5.14423 44.635 5.34107 44.672 5.54747C44.709 5.75387 44.7041 5.96558 44.6577 6.17007C44.6114 6.37457 44.5244 6.5677 44.402 6.73794C43.9656 7.27266 43.6686 7.90725 43.5375 8.58492C43.4063 9.26259 43.4452 9.96216 43.6506 10.6211C43.9674 11.4137 44.4039 12.153 44.9447 12.8133C46.0338 14.133 46.754 15.7178 47.0319 17.4063C47.2071 18.6058 47.1305 19.8286 46.8071 20.9968C46.4837 22.165 45.9205 23.253 45.1534 24.1915C44.8748 24.5947 44.5604 24.972 44.2142 25.3189C43.9384 25.5854 43.5765 25.7444 43.1937 25.7674C42.8109 25.7904 42.4326 25.6757 42.1269 25.4441C41.7987 25.2195 41.5713 24.8753 41.4933 24.4853C41.4153 24.0952 41.4929 23.69 41.7095 23.3564C41.957 22.9404 42.2435 22.5489 42.5653 22.1873C43.3909 21.1975 43.8742 19.9671 43.9428 18.6799Z" fill="white"/>
<path d="M29.228 17.8029C29.2848 19.1908 29.0566 20.5756 28.5576 21.8718C28.0586 23.1681 27.2994 24.3483 26.3268 25.3397C26.0532 25.6102 25.6907 25.772 25.3067 25.795C24.9228 25.818 24.5435 25.7008 24.2396 25.465C24.0732 25.3572 23.9298 25.2175 23.8176 25.054C23.7054 24.8905 23.6267 24.7064 23.586 24.5123C23.5452 24.3183 23.5433 24.1181 23.5802 23.9232C23.6172 23.7284 23.6923 23.5429 23.8012 23.3772C24.0394 22.9837 24.3045 22.607 24.5944 22.2498C25.5096 21.2367 26.0163 19.92 26.0163 18.5545C26.0163 17.1891 25.5096 15.8723 24.5944 14.8592C23.3524 13.5018 22.5772 11.7826 22.3819 9.95297C22.2412 8.10184 22.8081 6.26629 23.9682 4.81713C24.2141 4.51509 24.5612 4.31263 24.9451 4.24735C25.329 4.18207 25.7236 4.25844 26.0554 4.46225C26.3871 4.68368 26.6187 5.02629 26.7007 5.41661C26.7826 5.80693 26.7083 6.21384 26.4937 6.55C26.1083 7.03581 25.8292 7.59717 25.6746 8.19781C25.5199 8.79844 25.4933 9.42489 25.5962 10.0365C25.846 10.9055 26.2566 11.7199 26.8068 12.4374C28.145 13.9351 28.9903 15.8083 29.228 17.8029Z" fill="white"/>
<path d="M60.9329 45.925C60.5606 52.225 57.9644 58.1882 53.6067 62.7522C52.7927 63.6291 51.8535 63.7752 51.1229 63.128C50.9453 62.9712 50.803 62.7785 50.7055 62.5625C50.608 62.3466 50.5576 62.1123 50.5576 61.8754C50.5576 61.6384 50.608 61.4042 50.7055 61.1882C50.803 60.9722 50.9453 60.7795 51.1229 60.6227L51.8326 59.8294C54.5938 56.7114 56.4552 52.901 57.2176 48.8061C57.43 47.5066 57.5694 46.1962 57.6351 44.8811C57.6351 43.712 58.3447 42.9604 59.3048 43.0021C60.2649 43.0439 60.8911 43.7955 60.8702 44.9646L60.9329 45.925Z" fill="white"/>
<path d="M46.9276 64.3599C47.3484 64.3761 47.7466 64.5548 48.0385 64.8584C48.3304 65.1621 48.4933 65.5671 48.493 65.9884C48.4903 66.2013 48.4453 66.4115 48.3607 66.6069C48.2761 66.8023 48.1536 66.9789 48.0002 67.1265C47.8468 67.2742 47.6656 67.3898 47.4671 67.4668C47.2686 67.5438 47.0569 67.5806 46.8441 67.575C46.6359 67.5779 46.4293 67.5387 46.2367 67.4597C46.0441 67.3807 45.8695 67.2636 45.7233 67.1154C45.5771 66.9672 45.4623 66.791 45.3859 66.5973C45.3095 66.4036 45.273 66.1965 45.2786 65.9884C45.2894 65.5563 45.4673 65.1452 45.7747 64.8415C46.0822 64.5378 46.4955 64.3651 46.9276 64.3599Z" fill="white"/>
<path d="M25.5963 30.5803C25.5991 30.7894 25.56 30.997 25.4812 31.1908C25.4025 31.3846 25.2858 31.5606 25.1379 31.7085C24.99 31.8564 24.8141 31.9732 24.6203 32.0519C24.4266 32.1307 24.2191 32.1698 24.01 32.167C23.589 32.1617 23.1863 31.9935 22.8867 31.6977C22.587 31.4018 22.4136 31.0013 22.4028 30.5803C22.4136 30.1593 22.587 29.7588 22.8867 29.463C23.1863 29.1671 23.589 28.9989 24.01 28.9937C24.4307 28.9937 24.8342 29.1608 25.1317 29.4584C25.4292 29.7559 25.5963 30.1595 25.5963 30.5803Z" fill="white"/>
</g>
<defs>
<clipPath id="clip0_175_2235">
<rect width="82.8" height="82.8" fill="white" transform="translate(0.800049 0.600098)"/>
</clipPath>
</defs>
</svg>
