<svg width="84" height="84" viewBox="0 0 84 84" fill="none" xmlns="http://www.w3.org/2000/svg">
<g clip-path="url(#clip0_175_2247)">
<path d="M83.4222 19.8141V76.2535L83.3109 76.3648C82.986 78.4404 81.8863 80.3158 80.2332 81.6131C78.5802 82.9103 76.4969 83.533 74.4029 83.3557H25.6315C23.7145 83.3851 21.8473 82.7452 20.3514 81.5464C18.8555 80.3476 17.8245 78.6647 17.4361 76.7878C17.3219 76.2514 17.2401 75.7087 17.1912 75.1625H16.9684H10.4879C9.7576 75.2184 9.02627 75.0687 8.3768 74.7303C7.72732 74.3919 7.1857 73.8783 6.81331 73.2478C6.68967 72.9458 6.46304 72.6973 6.17358 72.5465C5.88413 72.3958 5.55059 72.3524 5.23216 72.424H4.74222C4.18682 72.4243 3.63706 72.313 3.12559 72.0966C2.61412 71.8801 2.15134 71.5631 1.7649 71.1643C1.37846 70.7655 1.07622 70.293 0.876087 69.7751C0.675957 69.2571 0.582039 68.7043 0.599955 68.1493C0.599955 67.3478 0.599955 66.5463 0.599955 65.7225C0.569106 65.1556 0.655838 64.5885 0.854679 64.0567C1.05352 63.5249 1.36021 63.0399 1.75546 62.6322C2.1507 62.2245 2.626 61.903 3.15148 61.6877C3.67696 61.4724 4.24127 61.368 4.80902 61.3811H5.69981C5.89381 61.3942 6.08717 61.348 6.25425 61.2485C6.42133 61.1491 6.55424 61.0012 6.63518 60.8245C6.9806 60.2251 7.46091 59.7143 8.03814 59.3328C8.32385 59.2057 8.56073 58.9895 8.71328 58.7166C8.86583 58.4437 8.92586 58.1287 8.88441 57.8188C8.79661 57.1774 8.85804 56.5244 9.0639 55.9105C9.26977 55.2967 9.61456 54.7387 10.0714 54.2798C10.5282 53.821 11.0847 53.4737 11.6977 53.265C12.3107 53.0563 12.9636 52.9918 13.6056 53.0766H17.1466V51.9634C17.1466 37.8034 17.1466 23.6509 17.1466 9.50582C17.0573 8.07404 17.3456 6.64394 17.9826 5.35849C18.6196 4.07304 19.5831 2.97729 20.7766 2.18093C21.9265 1.55908 23.135 1.052 24.3844 0.666992H64.1809C66.2113 1.19895 68.0252 2.35083 69.3698 3.9621C72.9182 7.58371 76.4963 11.1608 80.104 14.6934C81.7146 16.0149 82.8742 17.8044 83.4222 19.8141ZM19.9081 75.0957C19.9081 75.6523 20.0194 76.0531 20.1085 76.4315C20.4238 77.6857 21.1695 78.7895 22.2154 79.5503C23.2614 80.3112 24.5413 80.6809 25.8319 80.5949H74.5142C75.3461 80.6795 76.1864 80.5771 76.9737 80.2953C77.7609 80.0135 78.4752 79.5593 79.0643 78.9661C79.6535 78.3728 80.1026 77.6554 80.3788 76.8664C80.655 76.0773 80.7513 75.2366 80.6608 74.4055V21.5062C80.6608 21.2613 80.6608 21.0163 80.6608 20.7714C80.6608 20.148 80.4603 19.8809 79.77 19.9032C76.6299 19.9032 73.4675 19.9032 70.3275 19.9032C69.4848 19.9787 68.6358 19.8679 67.8408 19.5787C67.0457 19.2896 66.324 18.8291 65.7268 18.23C65.1297 17.6308 64.6717 16.9077 64.3853 16.1119C64.0988 15.316 63.9911 14.4668 64.0696 13.6247C64.2032 10.5077 64.0696 7.39077 64.0696 4.25154C64.0696 3.53909 63.8246 3.27191 63.1565 3.33871H25.8765C25.0727 3.27109 24.2638 3.37962 23.5063 3.65669C22.7488 3.93375 22.0609 4.37266 21.4905 4.94287C20.9201 5.51309 20.481 6.20086 20.2039 6.95818C19.9267 7.71549 19.8182 8.52417 19.8858 9.32774V52.097C19.8858 52.3864 19.8858 52.6758 19.8858 52.9875H30.5755C31.689 52.9875 32.3125 53.5886 32.2457 54.5014C32.1789 55.4143 31.6222 55.7483 30.6423 55.7483H20.7766H19.8858V58.4644H27.7471C28.8077 58.437 29.8481 58.7576 30.7091 59.3773C31.0735 59.6609 31.517 59.8244 31.9784 59.8449H62.4884C63.7869 59.8286 65.0653 60.1673 66.1852 60.8245C68.1673 61.9822 70.2161 63.0509 72.1313 64.2531C73.0245 65.0326 74.1751 65.453 75.3605 65.4331C76.0731 65.4331 76.5408 66.101 76.5185 66.8357C76.5071 67.1784 76.3644 67.5037 76.1198 67.744C75.8752 67.9844 75.5475 68.1216 75.2046 68.1271C74.7815 68.1271 74.3584 68.1271 73.9129 68.1271C73.6655 68.1627 73.4295 68.254 73.2226 68.3943C72.8189 68.7452 72.395 69.0723 71.9532 69.3739C70.127 70.4426 68.2564 71.4667 66.4302 72.5576C65.2017 73.2956 63.7875 73.6664 62.3548 73.6263C52.259 73.6263 42.1781 73.6263 32.112 73.6263C31.6484 73.6517 31.2011 73.8058 30.8204 74.0716C29.9964 74.6834 28.9962 75.0115 27.9699 75.0067H19.9304L19.9081 75.0957ZM71.1292 66.8135C68.9022 65.4999 66.6752 64.2086 64.4482 63.0063C63.9115 62.7596 63.3235 62.6451 62.7334 62.6724H32.5352V71.0214H33.1142H63.0229C63.483 71.0366 63.9403 70.9451 64.3591 70.7542C66.4302 69.4407 68.6572 68.1716 71.0178 66.8357L71.1292 66.8135ZM19.2623 72.335H27.8362C29.2392 72.335 29.6846 71.8897 29.6846 70.5093V63.0954C29.6846 61.7373 29.2615 61.292 27.903 61.292H10.7997C9.46347 61.292 8.9958 61.7596 8.9958 63.0954V70.4425C8.9958 71.8674 9.4412 72.335 10.8665 72.335H19.2623ZM78.367 17.0979L66.987 5.69869C66.987 8.37038 66.987 11.1979 66.987 14.0254C66.933 14.4427 66.975 14.8668 67.11 15.2653C67.245 15.6639 67.4694 16.0262 67.7659 16.3248C68.0624 16.6234 68.4233 16.8503 68.8209 16.9881C69.2186 17.126 69.6424 17.1711 70.0602 17.1202H78.367V17.0979ZM17.2135 58.4644V55.7705C15.7882 55.7705 14.4074 55.7705 13.0489 55.7705C12.733 55.7697 12.4286 55.8888 12.1971 56.1036C11.9656 56.3185 11.8243 56.6133 11.8018 56.9283C11.7682 57.4324 11.7682 57.9381 11.8018 58.4422L17.2135 58.4644ZM6.07843 69.5965V64.0973C5.6259 64.0745 5.17246 64.0745 4.71993 64.0973C4.54462 64.0942 4.37053 64.1267 4.20823 64.193C4.04593 64.2594 3.89885 64.358 3.77592 64.483C3.65299 64.6079 3.55679 64.7566 3.4932 64.92C3.4296 65.0833 3.39993 65.2579 3.406 65.4331C3.406 66.3682 3.406 67.3256 3.406 68.2607C3.39977 68.5898 3.5217 68.9085 3.74609 69.1494C3.97047 69.3903 4.27977 69.5347 4.6086 69.552C5.09006 69.5921 5.57368 69.5995 6.05614 69.5742L6.07843 69.5965Z" fill="white"/>
<path d="M35.0962 13.135C35.0962 14.0255 35.0962 14.9161 35.0962 15.7844C35.1022 16.1438 35.0361 16.5007 34.902 16.8342C34.7678 17.1677 34.5682 17.4709 34.3151 17.7261C34.0619 17.9813 33.7602 18.1833 33.4277 18.3202C33.0953 18.457 32.7388 18.5259 32.3793 18.5229C30.5309 18.5229 28.6602 18.5229 26.8118 18.5229C26.0891 18.5229 25.3957 18.2375 24.8826 17.7287C24.3696 17.2199 24.0784 16.5291 24.0725 15.8067C24.0725 13.9588 24.0725 12.0886 24.0725 10.2407C24.0665 9.88232 24.1326 9.5264 24.267 9.19413C24.4014 8.86186 24.6013 8.56 24.8548 8.30657C25.1083 8.05314 25.4103 7.85329 25.7426 7.71892C26.075 7.58455 26.431 7.51844 26.7895 7.52446C28.6602 7.52446 30.5086 7.52446 32.357 7.52446C32.7162 7.51233 33.0742 7.57332 33.409 7.70383C33.7439 7.83435 34.0488 8.03161 34.305 8.2836C34.5612 8.5356 34.7634 8.83713 34.8995 9.16974C35.0355 9.50235 35.1025 9.85911 35.0962 10.2184C35.1185 11.198 35.0962 12.1554 35.0962 13.135ZM26.8786 15.7399H32.2902V10.3297H26.8563L26.8786 15.7399Z" fill="white"/>
<path d="M46.8994 17.1424H39.4835C39.2938 17.1576 39.103 17.134 38.9227 17.0732C38.7424 17.0123 38.5764 16.9154 38.4347 16.7884C38.2931 16.6613 38.1788 16.5068 38.0987 16.3342C38.0187 16.1616 37.9746 15.9745 37.9691 15.7843C37.972 15.5953 38.0125 15.4087 38.0882 15.2354C38.1639 15.0622 38.2733 14.9057 38.4101 14.7752C38.5469 14.6446 38.7083 14.5426 38.885 14.475C39.0616 14.4075 39.2499 14.3758 39.4389 14.3817H54.4712C54.6611 14.375 54.8503 14.4083 55.0265 14.4793C55.2027 14.5502 55.362 14.6574 55.4942 14.7938C55.6264 14.9302 55.7286 15.0927 55.7941 15.271C55.8595 15.4493 55.8868 15.6393 55.8742 15.8288C55.8718 16.0122 55.8317 16.193 55.7563 16.3602C55.681 16.5273 55.572 16.6772 55.4362 16.8004C55.3004 16.9236 55.1408 17.0176 54.9671 17.0764C54.7934 17.1353 54.6095 17.1577 54.4267 17.1424H46.8994Z" fill="white"/>
<path d="M55.1393 11.6207H50.5294C49.5273 11.6207 48.9705 11.1309 48.9483 10.3071C48.926 9.48331 49.505 8.88213 50.5294 8.85986H59.7269C60.7291 8.85986 61.3304 9.43876 61.3081 10.2848C61.2858 11.1308 60.7291 11.6207 59.7269 11.6207H55.1393Z" fill="white"/>
<path d="M42.0222 11.6211H39.3498C39.1666 11.6331 38.9829 11.6085 38.8093 11.5487C38.6358 11.4889 38.4759 11.3951 38.339 11.2728C38.2022 11.1505 38.0911 11.0021 38.0123 10.8363C37.9335 10.6706 37.8885 10.4908 37.88 10.3075C37.8704 10.1179 37.9008 9.92827 37.969 9.75106C38.0372 9.57384 38.1419 9.41291 38.2762 9.27864C38.4105 9.14436 38.5715 9.03975 38.7487 8.97153C38.926 8.90331 39.1156 8.87301 39.3053 8.88259C41.1017 8.88259 42.9056 8.88259 44.7169 8.88259C44.9066 8.87301 45.0962 8.90331 45.2735 8.97153C45.4508 9.03975 45.6117 9.14436 45.746 9.27864C45.8803 9.41291 45.985 9.57384 46.0532 9.75106C46.1215 9.92827 46.1518 10.1179 46.1422 10.3075C46.1337 10.4908 46.0888 10.6706 46.0099 10.8363C45.9311 11.0021 45.82 11.1505 45.6831 11.2728C45.5462 11.3951 45.3864 11.4889 45.2128 11.5487C45.0392 11.6085 44.8555 11.6331 44.6724 11.6211H42.0222Z" fill="white"/>
<path d="M55.8073 66.8131C55.8073 67.3252 55.8073 67.8373 55.8073 68.3494C55.785 68.6783 55.6398 68.9868 55.4005 69.2136C55.1612 69.4404 54.8454 69.5691 54.5157 69.5739C53.8253 69.5739 53.224 69.2622 53.1795 68.572C53.0678 67.4244 53.0678 66.2687 53.1795 65.1211C53.2008 64.958 53.2552 64.801 53.3396 64.6598C53.424 64.5186 53.5365 64.3962 53.6701 64.3002C53.8037 64.2042 53.9556 64.1366 54.1164 64.1017C54.2771 64.0667 54.4433 64.0651 54.6047 64.097C54.9336 64.1085 55.2452 64.2473 55.4737 64.4841C55.7022 64.7208 55.8298 65.037 55.8296 65.366C55.8296 65.8558 55.8296 66.3233 55.8296 66.8131H55.8073Z" fill="white"/>
<path d="M57.2103 66.8358C57.2103 66.3683 57.2103 65.8785 57.2103 65.3887C57.2161 65.048 57.354 64.7228 57.595 64.4819C57.836 64.241 58.1612 64.1031 58.502 64.0974C58.677 64.079 58.8539 64.0966 59.0219 64.149C59.1899 64.2014 59.3454 64.2876 59.4789 64.4023C59.6123 64.5169 59.7209 64.6576 59.7981 64.8158C59.8752 64.9739 59.9191 65.1462 59.9273 65.3219C59.994 66.3152 59.994 67.3119 59.9273 68.3053C59.9187 68.4808 59.8756 68.6529 59.8004 68.8117C59.7252 68.9705 59.6195 69.1129 59.4891 69.2308C59.3588 69.3487 59.2065 69.4397 59.0409 69.4987C58.8753 69.5576 58.6998 69.5833 58.5243 69.5743C58.1736 69.5574 57.8426 69.4076 57.5985 69.1553C57.3544 68.903 57.2156 68.5672 57.2103 68.2162C57.1881 67.7709 57.2103 67.3034 57.2103 66.8358Z" fill="white"/>
<path d="M48.9482 66.8357C48.9482 66.3682 48.9482 65.8784 48.9482 65.3886C48.9482 65.0499 49.0812 64.7248 49.3186 64.4833C49.5561 64.2417 49.8789 64.1031 50.2176 64.0973C50.3862 64.0756 50.5574 64.088 50.7211 64.1337C50.8848 64.1794 51.0376 64.2576 51.1706 64.3635C51.3035 64.4694 51.4138 64.6008 51.4949 64.7502C51.5761 64.8995 51.6264 65.0636 51.6429 65.2327C51.721 66.3074 51.721 67.3863 51.6429 68.461C51.6291 68.6242 51.5826 68.7828 51.5064 68.9277C51.4301 69.0726 51.3256 69.2008 51.1989 69.3046C51.0722 69.4083 50.926 69.4856 50.769 69.532C50.6119 69.5783 50.4471 69.5927 50.2844 69.5742C49.9435 69.5744 49.6159 69.4421 49.3707 69.2054C49.1255 68.9686 48.982 68.6458 48.9705 68.3052C48.9705 67.8153 48.9705 67.3255 48.9705 66.8357H48.9482Z" fill="white"/>
</g>
<defs>
<clipPath id="clip0_175_2247">
<rect width="82.8" height="82.8" fill="white" transform="translate(0.599976 0.600098)"/>
</clipPath>
</defs>
</svg>
