<svg width="90" height="91" viewBox="0 0 90 91" fill="none" xmlns="http://www.w3.org/2000/svg">
<g clip-path="url(#clip0_175_2292)">
<path d="M89.9911 90.3999H87.1759C87.1759 78.2092 87.1759 66.0245 87.1759 53.8456C87.1879 53.6015 87.1375 53.3583 87.0294 53.139C86.9213 52.9197 86.7591 52.7316 86.5581 52.5925C81.4336 48.374 76.3267 44.1349 71.2375 39.8753C71.0433 39.7252 70.8315 39.6017 70.5667 39.4252C70.5226 39.8311 70.4785 40.1135 70.452 40.4048C70.2696 41.7741 70.4144 43.1671 70.8746 44.4695C71.3349 45.772 72.0974 46.9467 73.0996 47.8974C75.2265 49.9096 77.3887 51.8776 79.4803 53.9251C79.8799 54.366 80.1192 54.9288 80.1598 55.5224C80.2569 56.7756 80.2039 58.0376 80.1598 59.2997C80.1808 59.49 80.1616 59.6826 80.1034 59.8651C80.0453 60.0476 79.9495 60.2158 79.8222 60.3589C79.6949 60.502 79.539 60.6167 79.3646 60.6958C79.1901 60.7748 79.001 60.8163 78.8095 60.8176C77.8825 60.8945 76.9991 61.2451 76.2716 61.8249C75.5441 62.4047 75.0053 63.1876 74.7234 64.0741C74.3237 65.1376 74.0943 66.2574 74.0439 67.3924C74.0439 69.3163 74.238 71.2314 74.3616 73.2524L71.6169 73.7731C71.414 71.6285 71.2198 69.6076 71.0257 67.5336L68.7576 67.4189C68.704 69.863 69.0407 72.2999 69.7548 74.638C70.6373 77.365 72.1553 79.5625 75.0059 80.5862C75.3133 80.6928 75.5747 80.9017 75.7466 81.178C75.9185 81.4543 75.9904 81.7812 75.9502 82.1041C75.9502 84.8576 75.9502 87.6111 75.9502 90.3646H73.1349C73.1349 88.1053 73.1349 85.8549 73.1349 83.5956C73.1595 83.3841 73.1118 83.1704 72.9996 82.9894C72.8875 82.8084 72.7175 82.6706 72.5171 82.5983C70.9477 81.7853 69.6251 80.5662 68.6869 79.0682C67.2223 76.6988 66.3392 74.0164 66.11 71.2402C65.9688 70.0047 65.9335 68.7603 65.8364 67.4807C61.5726 67.7708 57.4494 69.1239 53.8429 71.4167C52.5809 72.211 51.7778 73.0582 52.016 74.6997C52.1661 75.7852 51.5395 76.2883 50.4275 76.2971H42.4318C41.2933 76.2971 40.808 75.7852 40.7903 74.6203C40.7678 74.3266 40.7678 74.0315 40.7903 73.7378C40.8394 73.4814 40.7928 73.2159 40.6595 72.9916C40.5262 72.7672 40.3153 72.5994 40.0666 72.5199C36.6994 70.7558 33.1151 69.4414 29.4057 68.6103C27.6848 68.2308 25.9198 68.019 24.2783 67.7278C23.9605 69.9341 23.7929 71.9816 23.3957 73.9672C22.5662 77.7003 20.7923 80.8333 17.218 82.7131C17.1146 82.795 17.0297 82.8979 16.9688 83.0151C16.908 83.1322 16.8726 83.2608 16.865 83.3926C16.865 85.7048 16.865 88.0259 16.865 90.3381H13.8733C13.8733 90.0116 13.935 89.6938 13.935 89.3761C13.935 87.0374 13.935 84.6899 13.935 82.3159C13.8823 81.8926 13.9846 81.4645 14.2231 81.1108C14.4616 80.7571 14.8201 80.5018 15.2324 80.392C16.8684 79.7827 18.2329 78.609 19.0802 77.0826C20.0697 75.4192 20.7009 73.5676 20.9335 71.6462C21.0923 70.3577 21.1453 69.0604 21.2424 67.7807H18.9478L18.2947 73.8172L15.4442 73.27C15.4971 72.8994 15.5236 72.6081 15.5765 72.3257C16.0161 70.0815 16.046 67.7763 15.6648 65.5215C15.1353 62.8739 13.582 61.2412 11.2522 60.8882C10.0961 60.7029 9.70773 60.2704 9.69891 59.0702C9.69008 57.87 9.69891 56.8992 9.69891 55.8225C9.67807 55.444 9.74718 55.0659 9.90058 54.7192C10.054 54.3726 10.2873 54.0671 10.5814 53.828C12.5936 51.9923 14.5263 50.0684 16.565 48.2681C18.1382 46.8801 19.1594 44.9724 19.442 42.8935C19.5225 41.7182 19.5225 40.5387 19.442 39.3634C19.0713 39.637 18.9566 39.7076 18.8419 39.8047C13.7232 44.032 8.6046 48.2769 3.45947 52.4866C3.21788 52.6601 3.02405 52.8918 2.89599 53.1603C2.76793 53.4287 2.70978 53.7252 2.72696 54.0221C2.72696 65.8598 2.72696 77.6944 2.72696 89.5262C2.72696 89.8262 2.72696 90.1175 2.72696 90.4087H-0.0794678V51.7276C-0.00483016 51.6418 0.0630437 51.5503 0.123523 51.454C3.27708 45.2234 6.41887 38.9869 9.54889 32.7445C9.70135 32.4006 9.77087 32.0257 9.75186 31.6501C9.75186 26.9433 9.75186 22.2365 9.75186 17.5297C9.75186 16.1883 10.5373 15.6323 11.8346 16.0294L13.9703 16.7001C13.9703 15.8794 13.9703 15.1822 13.9703 14.485C13.9578 14.3005 13.9842 14.1154 14.0481 13.9418C14.1119 13.7682 14.2116 13.6101 14.3407 13.4776C14.4698 13.3452 14.6253 13.2415 14.7972 13.1733C14.9691 13.1051 15.1535 13.0739 15.3383 13.0818C20.3741 12.8793 25.4173 13.2047 30.3853 14.0525C35.7305 15.0243 40.8833 16.8542 45.6442 19.4713C45.8351 19.5955 46.061 19.6549 46.2884 19.6406C46.5157 19.6263 46.7324 19.539 46.9062 19.3918C47.9476 18.7035 49.0243 18.0327 50.1274 17.4414C57.552 13.3104 66.1371 11.7585 74.5381 13.0288C74.7376 13.0288 74.9347 13.0721 75.1157 13.1558C75.2968 13.2395 75.4575 13.3615 75.5868 13.5134C75.7161 13.6653 75.8108 13.8435 75.8644 14.0357C75.918 14.2278 75.9292 14.4293 75.8972 14.6262C75.8972 15.2704 75.8972 15.9059 75.8972 16.656L77.8741 16.0294C79.3685 15.5411 80.1127 16.0882 80.1068 17.6709C80.1068 22.2777 80.1068 26.8757 80.1068 31.4736C80.1106 32.0487 80.2433 32.6157 80.4951 33.1327C83.4693 39.1339 86.4787 45.1175 89.444 51.1186C89.7397 51.7427 89.8992 52.4226 89.9117 53.1131C89.9823 65.5509 90.0088 77.9798 89.9911 90.3999ZM16.9092 16.0471V37.7042L18.9566 36.0451C20.0245 35.1626 21.0129 35.4273 21.5159 36.6982C22.5182 39.1861 22.6946 41.9303 22.019 44.5262C21.4017 47.0509 19.9455 49.2913 17.8887 50.8804C17.5167 51.1511 17.2239 51.5165 17.0407 51.9386C16.8576 52.3607 16.7908 52.8242 16.8474 53.2808C16.9268 55.0459 16.8474 56.8109 16.8474 58.576V59.4585C26.7581 59.2291 36.1659 60.7823 44.9117 65.4685C44.9353 65.3845 44.953 65.299 44.9647 65.2126C44.9647 51.0922 44.9647 36.9718 44.9647 22.8513C44.9415 22.6787 44.8783 22.5138 44.7803 22.3698C44.6822 22.2258 44.552 22.1066 44.3998 22.0218C41.8846 20.8656 39.3783 19.6566 36.8013 18.6682C32.5943 17.1193 28.1741 16.2264 23.6958 16.0206C21.4718 15.9412 19.2125 16.0471 16.9092 16.0471ZM47.7976 65.2038C55.3144 60.4028 64.2375 58.2934 73.1084 59.2202C73.1084 57.0051 73.1084 54.8076 73.1084 52.6189C73.0702 52.178 72.8872 51.7622 72.5877 51.4364C71.6558 50.6047 70.7718 49.7207 69.9401 48.7888C68.6946 47.1492 67.8858 45.2203 67.5894 43.1828C67.2931 41.1453 67.5189 39.0658 68.2457 37.1394C68.8458 35.3744 69.7989 35.1008 71.2463 36.2569L73.0907 37.766V15.7029C72.4377 15.6323 71.8376 15.5352 71.2286 15.4999C63.2159 15.0274 55.2696 17.1977 48.6095 21.6776C48.3399 21.8335 48.1209 22.0637 47.9785 22.3407C47.8361 22.6176 47.7764 22.9297 47.8064 23.2396C47.8064 36.8541 47.8064 50.4744 47.8064 64.1006L47.7976 65.2038ZM72.3759 62.0796C69.7866 61.7661 67.168 61.7839 64.5832 62.1326C58.4331 62.8826 52.5748 65.1846 47.5593 68.8221C47.2447 69.08 46.856 69.231 46.4498 69.2532C46.0436 69.2754 45.6409 69.1677 45.3 68.9457C43.6762 68.0631 42.0347 67.2336 40.3579 66.4834C34.9741 64.104 29.1961 62.7425 23.3163 62.4679C21.4277 62.362 19.5303 62.4679 17.6505 62.4679L18.533 64.9125C18.9743 64.9125 19.4155 64.9125 19.7862 64.9125C27.0366 64.7355 34.2166 66.3705 40.6756 69.6693C42.3259 70.4724 43.7909 71.355 43.632 73.4907H49.2449C48.9801 71.5491 50.2069 70.543 51.5659 69.5811C56.1211 66.3864 61.535 64.6423 67.0984 64.5771C68.5546 64.5771 70.0107 64.5771 71.511 64.5771L72.3759 62.0796ZM77.3004 19.3389C75.9237 19.5948 75.9237 19.5948 75.9237 20.8745V39.2045C75.9237 40.2459 76.2325 40.6695 77.3004 41.0578V19.3389ZM12.6819 19.3389V41.102C13.1294 40.9236 13.5075 40.6058 13.7603 40.1957C14.013 39.7856 14.1269 39.305 14.0851 38.825C14.0145 32.8503 14.0851 26.8756 14.0851 20.9098C14.0586 19.6213 14.0586 19.6213 12.6907 19.3389H12.6819ZM80.3098 39.0722L80.1422 39.1428C80.1422 40.4577 80.1422 41.7903 80.1422 43.0877C80.1422 43.3083 80.1421 43.6083 80.3186 43.7231C81.51 44.7556 82.7368 45.7441 83.9458 46.7501L84.087 46.6178C82.828 44.1055 81.5718 41.5903 80.3186 39.0722H80.3098ZM9.83131 39.0722L9.65479 39.028L5.93053 46.5295L6.10705 46.653C7.29846 45.6823 8.48104 44.7115 9.63715 43.7142C9.6981 43.6561 9.7467 43.5863 9.78006 43.509C9.81342 43.4316 9.83086 43.3484 9.83131 43.2642C9.84896 41.8786 9.84012 40.4842 9.84012 39.0986L9.83131 39.0722ZM13.8027 58.8231L13.9968 58.6378V54.6664C12.5142 55.3018 12.3994 56.5373 12.6554 57.7994C12.7436 58.223 13.4143 58.5142 13.8115 58.8496L13.8027 58.8231ZM75.9502 58.7701C76.462 58.4789 77.1239 58.3377 77.274 57.9847C77.4007 57.6878 77.467 57.3687 77.4688 57.0459C77.4707 56.7231 77.4082 56.4032 77.2849 56.1049C77.1616 55.8065 76.9801 55.5358 76.7509 55.3085C76.5217 55.0812 76.2495 54.9019 75.9502 54.7811V58.7701Z" fill="white"/>
<path d="M59.9323 90.3998C59.3922 89.7666 58.9218 89.0772 58.5291 88.3435C58.139 87.3232 57.5358 86.3979 56.7596 85.6293C55.9835 84.8608 55.0523 84.2667 54.0282 83.8867C53.5994 83.7016 53.1887 83.4771 52.8015 83.216C52.5564 83.1072 52.3481 82.9297 52.202 82.7049C52.0558 82.4801 51.978 82.2177 51.978 81.9496C51.978 81.6814 52.0558 81.4191 52.202 81.1943C52.3481 80.9695 52.5564 80.7919 52.8015 80.6831C53.9311 80.0213 55.1225 79.4476 56.2433 78.7769C56.6542 78.5191 56.9988 78.1685 57.2494 77.7532C57.9025 76.6765 58.4585 75.5557 59.0762 74.4613C59.7999 73.1729 61.2031 73.1111 61.7679 74.4613C62.3097 75.865 63.1393 77.1398 64.2032 78.2038C65.2671 79.2677 66.5419 80.0972 67.9456 80.639C68.2284 80.7264 68.4758 80.9021 68.6515 81.1404C68.8273 81.3786 68.9221 81.6668 68.9221 81.9628C68.9221 82.2588 68.8273 82.5471 68.6515 82.7853C68.4758 83.0235 68.2284 83.1992 67.9456 83.2866C66.5357 83.8177 65.2554 84.6434 64.1901 85.7087C63.1247 86.774 62.299 88.0544 61.7679 89.4643C61.6267 89.8349 61.2208 90.1085 60.9384 90.4351L59.9323 90.3998ZM56.5257 81.9452C57.4388 82.2824 58.2631 82.8233 58.9359 83.5267C59.6088 84.2301 60.1125 85.0776 60.4089 86.0048C60.8383 85.0982 61.3682 84.2427 61.9886 83.4543C62.8113 82.826 63.6988 82.2875 64.6361 81.8481C62.4651 81.248 61.309 79.8624 60.5059 77.7532C60.2174 78.7149 59.7068 79.5954 59.0155 80.3235C58.3241 81.0517 57.4712 81.6072 56.5257 81.9452Z" fill="white"/>
<path d="M0 33.7949H2.75348V36.6102H0V33.7949Z" fill="white"/>
<path d="M54.8314 9.17219C54.5891 9.53948 54.2914 9.86696 53.9488 10.143C52.881 10.8137 51.7337 11.3344 50.6658 11.9963C50.2098 12.2876 49.824 12.6764 49.5362 13.1347C48.9096 14.1496 48.3713 15.2263 47.7711 16.2765C47.4623 16.8502 47.0386 17.3973 46.3591 17.2296C46.0868 17.1711 45.8291 17.058 45.6016 16.8972C45.3741 16.7365 45.1815 16.5313 45.0353 16.2942C44.52 14.899 43.7067 13.6329 42.6519 12.5842C41.5972 11.5356 40.3264 10.7296 38.9282 10.2224C38.6315 10.1279 38.374 9.93849 38.1955 9.68336C38.0169 9.42824 37.927 9.12151 37.9398 8.81036C37.9386 8.49873 38.0386 8.19513 38.2248 7.94526C38.4111 7.69538 38.6734 7.51273 38.9724 7.42478C40.3467 6.93532 41.5954 6.14717 42.6286 5.11709C43.6617 4.08701 44.4535 2.84063 44.947 1.46773C45.0352 1.15416 45.2254 0.878934 45.4876 0.685544C45.7497 0.492153 46.0688 0.39164 46.3944 0.399884C46.7213 0.404136 47.0379 0.515063 47.296 0.715789C47.554 0.916515 47.7395 1.19605 47.8241 1.51186C48.3161 2.86854 49.101 4.10014 50.123 5.11906C51.1449 6.13798 52.3789 6.9192 53.737 7.40714C54.0989 7.52418 54.4074 7.7658 54.6078 8.08901C54.8082 8.41222 54.8874 8.79606 54.8314 9.17219ZM46.4738 4.75956C46.0361 5.67847 45.4974 6.54574 44.8676 7.34536C44.0483 7.98108 43.1602 8.52282 42.22 8.96038C44.4352 9.50755 45.556 10.9637 46.4032 12.7905C46.7282 11.8806 47.2492 11.0532 47.9294 10.3669C48.6096 9.68062 49.4323 9.15224 50.3393 8.81918C49.4195 8.49436 48.5898 7.95637 47.9179 7.24922C47.2461 6.54208 46.7512 5.68589 46.4738 4.75073V4.75956Z" fill="white"/>
<path d="M14.0586 8.10462C14.0674 9.0808 13.7858 10.0375 13.2496 10.8534C12.7135 11.6692 11.947 12.3072 11.0474 12.6865C10.1479 13.0657 9.15591 13.169 8.19752 12.9833C7.23913 12.7976 6.35755 12.3312 5.66478 11.6434C4.97201 10.9556 4.49927 10.0774 4.30665 9.12039C4.11403 8.16336 4.21021 7.17068 4.58295 6.26842C4.9557 5.36617 5.58823 4.59505 6.40015 4.05303C7.21207 3.51101 8.16677 3.22254 9.14298 3.22425C9.78685 3.21959 10.4253 3.34239 11.0215 3.58556C11.6176 3.82874 12.1598 4.18748 12.6167 4.64113C13.0737 5.09478 13.4363 5.63436 13.6838 6.22879C13.9313 6.82322 14.0587 7.46074 14.0586 8.10462ZM11.2346 8.18404C11.2415 7.76794 11.1247 7.35914 10.899 7.00952C10.6733 6.65991 10.3488 6.38523 9.96669 6.22033C9.5846 6.05544 9.16213 6.00776 8.75289 6.08335C8.34366 6.15895 7.9661 6.35441 7.66813 6.64493C7.37016 6.93545 7.16523 7.30793 7.0793 7.71512C6.99338 8.12231 7.03033 8.54585 7.1855 8.932C7.34067 9.31814 7.60705 9.64949 7.95084 9.884C8.29464 10.1185 8.70034 10.2456 9.11648 10.2491C9.66522 10.2298 10.1867 10.005 10.5774 9.61921C10.9681 9.23341 11.1995 8.71485 11.2257 8.1664L11.2346 8.18404Z" fill="white"/>
<path d="M23.8546 6.06592V8.76645H21.1453V6.06592H23.8546Z" fill="white"/>
<path d="M77.2916 8.79289H74.5823V6.07471H77.2916V8.79289Z" fill="white"/>
<path d="M36.5543 77.0118C36.5595 77.9877 36.2747 78.9431 35.736 79.7568C35.1973 80.5704 34.429 81.2057 33.5286 81.582C32.6282 81.9583 31.6363 82.0586 30.6788 81.8701C29.7214 81.6817 28.8415 81.213 28.1508 80.5236C27.4602 79.8342 26.9899 78.9551 26.7997 77.998C26.6096 77.0408 26.708 76.0488 27.0827 75.1477C27.4573 74.2466 28.0912 73.4772 28.904 72.937C29.7167 72.3969 30.6716 72.1104 31.6474 72.1138C32.292 72.1103 32.9309 72.2346 33.5272 72.4794C34.1236 72.7242 34.6655 73.0847 35.1217 73.5401C35.578 73.9955 35.9395 74.5368 36.1853 75.1327C36.4312 75.7285 36.5566 76.3672 36.5543 77.0118ZM31.6209 79.1387C32.0374 79.1422 32.4456 79.0218 32.7935 78.7928C33.1414 78.5637 33.4134 78.2364 33.5748 77.8524C33.7363 77.4684 33.7799 77.0451 33.7001 76.6362C33.6203 76.2274 33.4208 75.8515 33.1269 75.5563C32.833 75.2612 32.4579 75.0601 32.0494 74.9786C31.6409 74.8971 31.2175 74.9389 30.8328 75.0987C30.4481 75.2585 30.1196 75.5291 29.8891 75.876C29.6586 76.223 29.5364 76.6306 29.5382 77.0472C29.5618 77.5928 29.7885 78.1099 30.1739 78.4969C30.5593 78.8839 31.0754 79.1128 31.6209 79.1387Z" fill="white"/>
<path d="M40.8168 81.9985H43.5261V84.7255H40.8168V81.9985Z" fill="white"/>
<path d="M21.2688 27.07L20.854 24.2635C28.0197 23.6151 35.2138 25.1536 41.4875 28.6762C41.2404 29.1262 41.0197 29.5146 40.7903 29.9117C40.5608 30.3088 40.3314 30.7148 40.0754 31.1472C34.3382 27.9835 27.8011 26.5663 21.2688 27.07Z" fill="white"/>
<path d="M41.4963 35.7099L40.0843 38.1809C34.3509 35.0155 27.8161 33.5981 21.2864 34.1037C21.2158 33.6359 21.1452 33.2211 21.0746 32.7358C21.004 32.2504 20.9511 31.8532 20.854 31.2972C28.0229 30.6436 35.2212 32.1824 41.4963 35.7099Z" fill="white"/>
<path d="M70.5315 52.3982L70.099 55.2311C63.5669 54.6995 57.0235 56.112 51.2924 59.2908L49.8892 56.8197C56.1645 53.2923 63.3619 51.7506 70.5315 52.3982Z" fill="white"/>
<path d="M49.8892 27.4228C56.1689 23.9247 63.3525 22.3878 70.5138 23.0101L70.1078 25.8607C63.5755 25.3087 57.0271 26.7192 51.3012 29.9115L49.8892 27.4228Z" fill="white"/>
<path d="M66.11 32.6652V30.0176H68.837V32.6652H66.11Z" fill="white"/>
</g>
<defs>
<clipPath id="clip0_175_2292">
<rect width="90" height="90" fill="white" transform="translate(0 0.400391)"/>
</clipPath>
</defs>
</svg>
