<svg width="26" height="51" viewBox="0 0 26 51" fill="none" xmlns="http://www.w3.org/2000/svg">
<path d="M25.2262 50.0448C25.2097 50.1004 25.167 50.1431 25.144 50.1867C23.353 46.0702 19.3162 43.4249 15.7651 40.6462C11.2521 37.2075 7.36267 33.0152 4.26648 28.252C1.3489 23.6208 0.119449 18.8948 1.18394 13.4675C1.93459 9.65991 3.43864 5.84862 6.06196 2.93272C6.70348 2.1677 7.4562 1.504 8.29463 0.964057C7.87377 1.26767 7.52028 2.88576 7.36514 3.30831C6.741 5.06993 6.21028 6.86331 5.7752 8.68088C4.80886 12.5538 4.81646 16.6047 5.79732 20.4693C8.24064 29.957 17.6851 34.6158 23.1164 42.1417C22.7821 40.441 22.445 39.0719 21.4621 37.97C19.5577 35.8298 17.3041 34.2763 15.3533 32.208C14.4097 31.2195 13.5978 30.1124 12.9377 28.9141C12.3602 27.8477 11.9353 26.7045 11.6757 25.5184C11.4872 24.7054 11.3885 23.8738 11.3814 23.0386C11.3856 22.4905 11.4318 21.9434 11.5196 21.4022C11.5664 21.1087 11.6117 20.8199 11.6616 20.5325C11.7055 20.3843 11.6788 20.0338 11.8357 19.9443C11.9926 19.8547 12.1006 20.4558 12.1598 20.5439C12.4359 21.3056 12.6288 22.1283 12.9316 22.8677C13.2246 23.5876 13.5909 24.275 14.0248 24.919L14.1496 25.1071C14.7717 25.9799 15.4832 26.7847 16.2727 27.5084C18.0362 29.1586 19.9984 30.4596 21.6201 32.3348C23.5324 34.626 24.8331 37.3679 25.4005 40.3041C26.0186 43.3913 26.0001 46.5744 25.3459 49.6571L25.2911 49.8424C25.2543 49.8818 25.2747 49.8979 25.2788 49.884C25.255 49.9354 25.2373 49.9893 25.2262 50.0448Z" fill="#0F1D3E"/>
</svg>
