<svg width="53" height="40" viewBox="0 0 53 40" fill="none" xmlns="http://www.w3.org/2000/svg">
<path d="M26.4388 38.8282C26.447 38.8736 26.4771 38.9111 26.4915 38.9475C28.2635 35.8462 31.6849 34.1023 34.7336 32.211C38.6 29.8808 42.0383 26.9006 44.8985 23.4004C47.606 19.9891 48.9864 16.3572 48.613 11.9725C48.348 8.896 47.4873 5.75157 45.6641 3.21874C45.2228 2.55825 44.6847 1.96831 44.0681 1.46885C44.3748 1.74533 44.5147 3.0557 44.6009 3.40331C44.9425 4.85057 45.2075 6.31488 45.3947 7.79007C45.8247 10.9368 45.469 14.1403 44.3595 17.1124C41.6079 24.4059 33.7355 27.2754 28.7899 32.7593C29.2011 31.4429 29.5859 30.3891 30.4585 29.6024C32.1496 28.074 34.0662 27.0398 35.7877 25.5723C36.6194 24.8719 37.3571 24.0663 37.9827 23.1755C38.5316 22.3818 38.9663 21.5143 39.2741 20.5985C39.4934 19.9717 39.6432 19.3225 39.7209 18.6625C39.7649 18.2286 39.7756 17.7919 39.7529 17.3562C39.7412 17.1201 39.7303 16.8877 39.7156 16.6561C39.6937 16.535 39.7451 16.2602 39.6287 16.1758C39.5123 16.0914 39.375 16.5576 39.3206 16.6221C39.0365 17.2007 38.8129 17.8348 38.5095 18.3935C38.2156 18.9376 37.8665 19.4497 37.4678 19.9216L37.3528 20.0596C36.7854 20.6963 36.1531 21.2714 35.4663 21.7757C33.9289 22.9287 32.2646 23.7884 30.82 25.1316C29.1096 26.7787 27.8441 28.8352 27.1418 31.1086C26.3864 33.4971 26.1263 36.0164 26.3776 38.5112L26.4049 38.6625C26.4306 38.6969 26.4131 38.7078 26.4111 38.6965C26.4255 38.7391 26.4348 38.7833 26.4388 38.8282Z" fill="white"/>
<path d="M26.1957 39.2578C26.1866 39.303 26.1557 39.3399 26.1405 39.376C24.434 36.2382 21.0499 34.4229 18.0416 32.4682C14.2248 30.0573 10.8498 27.0057 8.06367 23.4463C5.42829 19.979 4.12433 16.3189 4.58964 11.943C4.91913 8.87274 5.84552 5.74705 7.72146 3.25301C8.17659 2.60192 8.72692 2.0234 9.35381 1.53698C9.0414 1.80697 8.87405 3.11411 8.78055 3.45984C8.40868 4.89962 8.11306 6.35805 7.89494 7.82899C7.39904 10.966 7.68751 14.1763 8.73438 17.171C11.3325 24.5206 19.1429 27.5546 23.9725 33.141C23.589 31.8163 23.2263 30.7546 22.3704 29.9498C20.7118 28.3863 18.8173 27.3121 17.1269 25.8088C16.3101 25.0911 15.5894 24.2702 14.9827 23.3665C14.4505 22.5615 14.0341 21.685 13.7456 20.763C13.5395 20.1317 13.4033 19.4795 13.3395 18.8181C13.3045 18.3833 13.303 17.9465 13.3349 17.5114C13.3515 17.2755 13.3673 17.0434 13.3868 16.8121C13.4113 16.6916 13.3657 16.4157 13.4838 16.3338C13.6019 16.2519 13.7294 16.7208 13.7825 16.7865C14.0544 17.3709 14.2647 18.0096 14.5562 18.5745C14.8387 19.1246 15.1769 19.6439 15.5657 20.1241L15.6778 20.2645C16.2317 20.9129 16.8518 21.5012 17.5279 22.0198C19.0407 23.2048 20.6867 24.0991 22.1028 25.4724C23.7782 27.155 25.0003 29.2376 25.6547 31.5252C26.3599 33.9291 26.5671 36.4532 26.2636 38.9422L26.2331 39.0929C26.2067 39.1267 26.2239 39.1381 26.2262 39.1268C26.2109 39.1691 26.2007 39.2131 26.1957 39.2578Z" fill="white"/>
</svg>
