<svg width="21" height="39" viewBox="0 0 21 39" fill="none" xmlns="http://www.w3.org/2000/svg">
<path d="M19.5758 38.1644C19.5633 38.2068 19.5307 38.2394 19.5132 38.2727C18.1474 35.1334 15.0688 33.1161 12.3607 30.997C8.91909 28.3747 5.95302 25.1776 3.59185 21.5452C1.36688 18.0134 0.4293 14.4093 1.24109 10.2704C1.81354 7.3667 2.96054 4.46019 4.96109 2.23651C5.45032 1.6531 6.02435 1.14696 6.66374 0.735195C6.34279 0.96673 6.07322 2.2007 5.95491 2.52293C5.47894 3.86636 5.0742 5.234 4.74241 6.62009C4.00547 9.57357 4.01127 12.6629 4.75928 15.61C6.62257 22.8454 13.825 26.3982 17.9669 32.1375C17.712 30.8405 17.4549 29.7964 16.7053 28.9561C15.253 27.324 13.5344 26.1393 12.0467 24.562C11.3272 23.8082 10.708 22.9639 10.2046 22.0501C9.76414 21.2368 9.44014 20.365 9.24217 19.4605C9.0984 18.8404 9.02314 18.2063 9.01774 17.5694C9.02091 17.1514 9.05615 16.7342 9.12316 16.3214C9.15878 16.0976 9.19335 15.8774 9.23145 15.6582C9.2649 15.5452 9.24454 15.2779 9.3642 15.2096C9.48385 15.1413 9.56619 15.5997 9.61134 15.6669C9.82191 16.2478 9.969 16.8752 10.1999 17.4391C10.4234 17.988 10.7027 18.5122 11.0336 19.0034L11.1288 19.1468C11.6032 19.8124 12.1458 20.4262 12.7478 20.9781C14.0927 22.2365 15.5891 23.2287 16.8258 24.6587C18.2841 26.406 19.2761 28.497 19.7088 30.7362C20.1802 33.0905 20.166 35.5179 19.6672 37.8688L19.6253 38.0101C19.5973 38.0402 19.6128 38.0525 19.6159 38.0419C19.5978 38.081 19.5843 38.1221 19.5758 38.1644Z" fill="#9BA839"/>
</svg>
