<svg width="377" height="216" viewBox="0 0 377 216" fill="none" xmlns="http://www.w3.org/2000/svg">
<g clip-path="url(#clip0_4_319)">
<path d="M285.781 114.071H279.954V119.051H285.781V114.071Z" fill="#F5A91D"/>
<path d="M279.824 114.071H273.996V119.051H279.824V114.071Z" fill="#F5A91D"/>
<path d="M273.462 122.9C271.86 123.724 270.678 124.953 269.917 126.586C269.156 128.219 268.768 130.224 268.768 132.617C268.768 135.123 269.156 137.193 269.917 138.81C270.694 140.443 271.876 141.639 273.462 142.416C275.065 143.192 277.088 143.58 279.565 143.58H283.612V145.148C283.612 146.231 283.385 147.137 282.916 147.881C282.446 148.624 281.75 149.19 280.828 149.562C279.905 149.934 278.723 150.128 277.299 150.128H267.117C265.692 150.128 264.478 149.918 263.458 149.497C262.438 149.077 261.661 148.463 261.127 147.67C260.593 146.862 260.318 145.892 260.318 144.728C260.318 144.113 260.382 143.24 260.512 142.108C260.641 140.976 260.819 139.602 261.062 138.001C261.289 136.401 261.548 134.638 261.839 132.714L256.093 131.89C255.915 133.021 255.736 134.234 255.542 135.511C255.348 136.789 255.186 138.034 255.024 139.23C254.862 140.427 254.733 141.51 254.636 142.496C254.539 143.483 254.49 144.291 254.49 144.906C254.49 146.878 255.04 148.657 256.141 150.209C257.242 151.761 258.747 152.99 260.674 153.879C262.584 154.769 264.737 155.205 267.117 155.205H277.299C279.614 155.205 281.686 154.801 283.499 153.976C285.312 153.152 286.752 152.004 287.805 150.5C288.857 148.996 289.391 147.218 289.391 145.148V121.655H279.549C277.072 121.655 275.049 122.075 273.446 122.9H273.462ZM279.565 138.503C278.286 138.503 277.283 138.357 276.554 138.082C275.826 137.807 275.324 137.258 275.032 136.417C274.741 135.592 274.595 134.315 274.595 132.601C274.595 131.033 274.741 129.82 275.032 128.963C275.324 128.106 275.826 127.508 276.554 127.201C277.283 126.877 278.286 126.716 279.565 126.716H283.612V138.503H279.565Z" fill="#F5A91D"/>
<path d="M340.302 147.687H334.474V152.667H340.302V147.687Z" fill="#F5A91D"/>
<path d="M334.329 147.687H328.501V152.667H334.329V147.687Z" fill="#F5A91D"/>
<path d="M375.883 128.85C375.737 127.702 375.576 126.473 375.381 125.179C375.187 123.886 374.993 122.706 374.798 121.671L369.052 122.544C369.311 123.789 369.537 125.018 369.732 126.23C369.926 127.443 370.072 128.51 370.169 129.464C370.266 130.418 370.314 131.113 370.314 131.582V138.519H365.183C364.632 138.519 364.098 138.406 363.596 138.195C363.305 138.066 362.997 137.888 362.674 137.678C363.062 136.255 363.257 134.541 363.257 132.536V123.934H357.429V132.536C357.429 134.25 357.332 135.544 357.154 136.401C356.959 137.258 356.619 137.824 356.134 138.098C355.648 138.373 354.936 138.519 353.997 138.519H350.468V126.117H344.64V138.519H339.509V121.671H333.714V138.519H300.059V112.713H294.264V143.58H354.013C356.166 143.58 357.915 143.208 359.274 142.448C359.501 142.318 359.695 142.173 359.906 142.027C360.456 142.383 361.039 142.674 361.654 142.917C362.836 143.369 364.017 143.596 365.199 143.596H376.126V131.582C376.126 130.919 376.061 129.998 375.915 128.85H375.883Z" fill="#F5A91D"/>
<path d="M6.4266 189.03C7.60831 189.03 8.66053 188.82 9.58324 188.4C10.5059 187.979 11.2344 187.381 11.7686 186.621C12.3028 185.845 12.5618 184.956 12.5618 183.937V173.023H9.71274V183.937C9.71274 184.438 9.59943 184.891 9.38898 185.279C9.16235 185.683 8.82241 185.991 8.33677 186.217C7.85113 186.443 7.2198 186.556 6.44278 186.556C5.66577 186.556 5.05062 186.443 4.51642 186.201C3.98222 185.958 3.57753 185.635 3.28614 185.231C2.99476 184.81 2.86526 184.325 2.86526 183.759C2.86526 183.501 2.89763 183.096 2.9462 182.547C2.99476 181.997 3.09189 181.318 3.18902 180.525C3.28614 179.733 3.43183 178.86 3.57753 177.906L0.760831 177.518C0.679892 178.084 0.582764 178.682 0.501825 179.28C0.404698 179.879 0.323758 180.477 0.242819 181.059C0.161879 181.641 0.0971274 182.175 0.0647516 182.644C0.0161879 183.113 0 183.484 0 183.775C0 184.794 0.275194 185.683 0.825583 186.492C1.37597 187.284 2.1368 187.915 3.10808 188.367C4.07935 188.82 5.18013 189.046 6.4266 189.046V189.03Z" fill="#1A213D"/>
<path d="M7.72163 169.806H4.87256V172.247H7.72163V169.806Z" fill="#1A213D"/>
<path d="M17.2726 188.4C17.9686 187.979 18.519 187.397 18.9075 186.637C19.296 185.877 19.4903 185.02 19.4903 184.05V173.007H16.6412V184.05C16.6412 184.843 16.4793 185.473 16.1394 185.91C15.7995 186.346 15.3624 186.573 14.812 186.573C14.7149 186.573 14.553 186.573 14.3587 186.556C14.1483 186.556 13.9378 186.524 13.7112 186.508L13.5979 188.949C13.8245 188.982 14.0512 188.998 14.2616 189.014C14.472 189.014 14.6663 189.03 14.8606 189.03C15.7833 189.03 16.5927 188.82 17.2887 188.4H17.2726Z" fill="#1A213D"/>
<path d="M38.8024 169.288H35.9534V171.73H38.8024V169.288Z" fill="#1A213D"/>
<path d="M35.8886 169.288H33.0396V171.73H35.8886V169.288Z" fill="#1A213D"/>
<path d="M67.2122 183.727H77.7991V168.625H74.95V181.253H54.3104V178.456C54.3104 177.098 54.1 176.031 53.6791 175.238C53.2582 174.446 52.6269 173.864 51.7851 173.508C50.9433 173.152 49.8749 172.975 48.5961 172.975C47.7219 172.975 46.9125 173.039 46.1841 173.169C45.4556 173.298 44.9214 173.427 44.5815 173.557C44.5006 173.88 44.4034 174.317 44.3225 174.85C44.2254 175.384 44.1444 175.982 44.0797 176.645C44.0149 177.308 43.9664 177.987 43.9664 178.698C43.9664 179.41 43.9987 180.057 44.0635 180.687C44.0797 180.897 44.112 181.075 44.1282 181.269H40.0165V173.023H35.2087C33.9946 173.023 33.0071 173.233 32.2301 173.638C31.4531 174.042 30.8703 174.64 30.498 175.448C30.1257 176.241 29.9314 177.227 29.9314 178.391C29.9314 179.555 30.1095 180.542 30.4656 181.269H25.6578V168.641H22.825V183.743H67.196L67.2122 183.727ZM33.7518 181.043C33.3957 180.914 33.1528 180.639 33.0071 180.234C32.8614 179.83 32.7967 179.2 32.7967 178.359C32.7967 177.583 32.8614 177.001 33.0071 176.58C33.1528 176.16 33.3957 175.869 33.7518 175.707C34.1079 175.545 34.5936 175.465 35.2249 175.465H37.1836V181.237H35.2249C34.5936 181.237 34.1079 181.172 33.7518 181.027V181.043ZM46.8802 180.234C46.8316 179.701 46.7992 179.167 46.7992 178.682C46.7992 178.149 46.8316 177.583 46.8802 177.033C46.9287 176.499 46.9935 176.014 47.0744 175.545C47.5763 175.481 48.0781 175.448 48.5961 175.448C49.3407 175.448 49.9073 175.545 50.3282 175.723C50.7491 175.901 51.0405 176.208 51.2185 176.645C51.3966 177.082 51.4775 177.68 51.4775 178.456V181.269H46.9935C46.9611 180.962 46.9125 180.639 46.8802 180.267V180.234Z" fill="#1A213D"/>
<path d="M84.0314 168.625H81.1985V183.727H84.0314V168.625Z" fill="#1A213D"/>
<path d="M100.883 185.845H98.0339V188.287H100.883V185.845Z" fill="#1A213D"/>
<path d="M104.299 181.253H98.6167C97.6454 181.253 96.8522 181.172 96.2047 181.011C95.5734 180.849 95.0878 180.558 94.7802 180.137C94.4726 179.717 94.3107 179.135 94.3107 178.391C94.3107 178.035 94.3431 177.664 94.3917 177.276C94.4402 176.887 94.505 176.516 94.5859 176.16C94.6507 175.804 94.7154 175.513 94.764 175.287L91.9959 174.753C91.9635 174.883 91.9311 175.077 91.8664 175.351C91.8016 175.626 91.7531 175.934 91.6883 176.273C91.6235 176.629 91.575 176.985 91.5264 177.356C91.4779 177.728 91.4617 178.1 91.4617 178.44C91.4617 180.186 92.0606 181.512 93.2585 182.401C94.4564 183.29 96.1885 183.743 98.471 183.743H107.164V173.023H104.315V181.269L104.299 181.253Z" fill="#1A213D"/>
<path d="M117.945 179.345C117.945 177.841 117.702 176.613 117.233 175.675C116.763 174.737 116.067 174.058 115.144 173.638C114.222 173.217 113.121 172.991 111.81 172.991H110.078V175.465H111.81C112.635 175.465 113.283 175.578 113.752 175.804C114.222 176.031 114.562 176.419 114.772 176.984C114.983 177.534 115.08 178.327 115.08 179.329V181.237H109.284V183.711H117.929V179.329L117.945 179.345Z" fill="#1A213D"/>
<path d="M126.832 168.447H124.048C124.048 168.447 124.032 168.415 124.015 168.399C123.951 168.237 123.902 168.075 123.902 167.914C123.902 167.623 123.999 167.38 124.177 167.202C124.355 167.024 124.631 166.927 124.971 166.927C125.1 166.927 125.23 166.927 125.343 166.96C125.456 166.976 125.586 167.024 125.715 167.105L126.444 165.796C126.249 165.65 126.007 165.553 125.715 165.472C125.424 165.408 125.149 165.359 124.89 165.359C124.388 165.359 123.935 165.472 123.53 165.682C123.125 165.909 122.785 166.216 122.526 166.604C122.267 166.992 122.138 167.429 122.138 167.914C122.138 168.092 122.154 168.253 122.202 168.431H121.668V169.983H126.816V168.431L126.832 168.447Z" fill="#1A213D"/>
<path d="M158.123 181.253H155.711H150.386H145.06H139.734H134.408H132.174V168.625H129.325V181.253H125.667V171.616H122.834V181.253H119.871V183.727H132.174H134.408H139.734H145.06H150.386H155.711H158.123H160.972V168.625H158.123V181.253Z" fill="#1A213D"/>
<path d="M171.883 169.288H169.034V171.73H171.883V169.288Z" fill="#1A213D"/>
<path d="M174.797 169.288H171.948V171.73H174.797V169.288Z" fill="#1A213D"/>
<path d="M168.646 183.145C169.423 183.533 170.426 183.727 171.624 183.727H184.024V173.007H181.191V181.253H176.448V173.007H171.64C170.426 173.007 169.439 173.217 168.662 173.621C167.885 174.026 167.302 174.64 166.93 175.432C166.557 176.241 166.363 177.243 166.363 178.44C166.363 179.636 166.557 180.622 166.93 181.415C167.302 182.191 167.885 182.789 168.662 183.161L168.646 183.145ZM169.439 176.516C169.601 176.095 169.86 175.82 170.216 175.675C170.572 175.545 171.041 175.465 171.624 175.465H173.583V181.237H171.624C171.009 181.237 170.523 181.172 170.183 181.043C169.827 180.914 169.568 180.655 169.423 180.234C169.277 179.83 169.196 179.216 169.196 178.407C169.196 177.55 169.277 176.92 169.439 176.499V176.516Z" fill="#1A213D"/>
<path d="M181.499 185.732H178.65V188.173H181.499V185.732Z" fill="#1A213D"/>
<path d="M184.429 185.732H181.58V188.173H184.429V185.732Z" fill="#1A213D"/>
<path d="M194.611 179.345C194.611 177.841 194.368 176.613 193.899 175.675C193.429 174.737 192.733 174.058 191.81 173.638C190.888 173.217 189.787 172.991 188.476 172.991H186.744V175.465H188.476C189.301 175.465 189.949 175.578 190.418 175.804C190.888 176.031 191.228 176.419 191.438 176.984C191.649 177.534 191.746 178.327 191.746 179.329V181.237H185.95V183.711H194.595V179.329L194.611 179.345Z" fill="#1A213D"/>
<path d="M266.938 183.727H269.787V168.625H266.938V181.253H240.973V177.858C240.973 177.534 240.941 177.081 240.86 176.516C240.795 175.95 240.714 175.351 240.617 174.721C240.52 174.09 240.423 173.508 240.325 173.007L237.509 173.427C237.638 174.042 237.752 174.64 237.833 175.238C237.93 175.836 237.994 176.354 238.043 176.823C238.092 177.292 238.124 177.631 238.124 177.858V181.253H235.615C235.34 181.253 235.081 181.205 234.838 181.091C234.692 181.027 234.53 180.897 234.368 180.8C234.563 180.105 234.676 179.313 234.676 178.327V174.123H231.827V178.327C231.827 179.167 231.778 179.798 231.681 180.218C231.584 180.639 231.422 180.914 231.179 181.059C230.936 181.188 230.597 181.269 230.143 181.269H228.411V175.206H225.562V181.269H218.828C219.346 180.817 219.832 180.348 220.22 179.846C220.787 179.135 221.208 178.44 221.515 177.728C221.807 177.017 221.968 176.386 221.968 175.788V174.575C221.353 174.236 220.706 173.945 220.026 173.718C219.33 173.492 218.65 173.314 217.97 173.201C217.29 173.088 216.643 173.023 216.06 173.023C215.477 173.023 214.846 173.088 214.15 173.201C213.454 173.314 212.774 173.492 212.078 173.718C211.381 173.945 210.734 174.236 210.135 174.575V175.788C210.135 176.37 210.281 177.017 210.588 177.728C210.88 178.44 211.317 179.135 211.883 179.846C212.288 180.348 212.774 180.817 213.275 181.269H206.655V173.023H201.847C200.633 173.023 199.645 173.233 198.868 173.638C198.091 174.042 197.508 174.656 197.136 175.448C196.764 176.257 196.57 177.259 196.57 178.456C196.57 179.652 196.764 180.639 197.136 181.431C197.508 182.207 198.091 182.805 198.868 183.177C199.645 183.565 200.649 183.759 201.847 183.759H203.806V184.374C203.806 185.117 203.579 185.667 203.126 186.039C202.672 186.411 201.928 186.589 200.908 186.589C200.568 186.589 200.147 186.573 199.645 186.524C199.143 186.476 198.545 186.411 197.832 186.33L197.411 188.61C198.059 188.739 198.674 188.836 199.257 188.917C199.84 188.998 200.39 189.03 200.908 189.03C202.073 189.03 203.077 188.852 203.951 188.481C204.809 188.109 205.473 187.575 205.959 186.864C206.428 186.152 206.671 185.328 206.671 184.357V183.743H212.531C213.632 183.743 214.668 183.565 215.639 183.21C215.801 183.145 215.93 183.064 216.092 183.015C216.238 183.08 216.384 183.161 216.545 183.21C217.517 183.565 218.553 183.743 219.654 183.743H230.192C231.244 183.743 232.102 183.565 232.766 183.193C232.879 183.129 232.944 183.032 233.041 182.967C233.316 183.145 233.607 183.307 233.915 183.42C234.498 183.646 235.064 183.743 235.647 183.743H266.955L266.938 183.727ZM201.814 181.253C201.199 181.253 200.714 181.188 200.374 181.059C200.018 180.93 199.759 180.671 199.613 180.251C199.467 179.846 199.386 179.232 199.386 178.424C199.386 177.567 199.467 176.936 199.629 176.516C199.791 176.095 200.05 175.82 200.406 175.675C200.762 175.545 201.232 175.465 201.814 175.465H203.773V181.237H201.814V181.253ZM216.044 175.481C216.74 175.481 217.468 175.578 218.245 175.772C218.537 175.853 218.828 175.95 219.103 176.063C219.071 176.419 218.99 176.79 218.828 177.195C218.617 177.696 218.342 178.181 217.97 178.65C217.614 179.135 217.193 179.555 216.707 179.96C216.497 180.137 216.27 180.283 216.044 180.428C215.817 180.283 215.59 180.137 215.38 179.96C214.894 179.572 214.473 179.135 214.117 178.65C213.761 178.181 213.486 177.68 213.275 177.195C213.114 176.79 213.033 176.419 213 176.063C213.275 175.966 213.567 175.853 213.858 175.788C214.635 175.594 215.364 175.497 216.044 175.497V175.481Z" fill="#1A213D"/>
<path d="M276.036 168.625H273.203V183.727H276.036V168.625Z" fill="#1A213D"/>
<path d="M288.97 169.288H286.121V171.73H288.97V169.288Z" fill="#1A213D"/>
<path d="M291.9 169.288H289.051V171.73H291.9V169.288Z" fill="#1A213D"/>
<path d="M301.516 185.732H298.667V188.173H301.516V185.732Z" fill="#1A213D"/>
<path d="M298.602 185.732H295.753V188.173H298.602V185.732Z" fill="#1A213D"/>
<path d="M337.21 185.845H334.361V188.287H337.21V185.845Z" fill="#1A213D"/>
<path d="M370.104 168.625H367.255V181.253H341.289V178.084C341.289 177.017 341.03 176.111 340.529 175.351C340.027 174.591 339.331 174.009 338.457 173.605C337.582 173.201 336.546 172.991 335.397 172.991C334.782 172.991 334.167 173.039 333.535 173.136C332.904 173.233 332.289 173.363 331.674 173.492L331.949 175.756C332.613 175.659 333.228 175.578 333.794 175.529C334.361 175.481 334.814 175.448 335.138 175.448C336.287 175.448 337.129 175.675 337.663 176.111C338.198 176.548 338.457 177.195 338.457 178.052V181.221H327.999V178.424C327.999 177.065 327.789 175.998 327.368 175.206C326.947 174.414 326.316 173.832 325.474 173.476C324.632 173.12 323.564 172.942 322.285 172.942C321.411 172.942 320.601 173.007 319.873 173.136C319.144 173.266 318.61 173.395 318.27 173.524C318.189 173.848 318.092 174.284 318.011 174.818C317.914 175.351 317.833 175.95 317.768 176.613C317.704 177.276 317.655 177.955 317.655 178.666C317.655 179.377 317.687 180.024 317.752 180.655C317.768 180.865 317.801 181.043 317.817 181.237H311.131C311.649 180.784 312.135 180.315 312.524 179.814C313.09 179.103 313.511 178.407 313.819 177.696C314.11 176.984 314.272 176.354 314.272 175.756V174.543C313.657 174.203 313.009 173.912 312.329 173.686C311.633 173.46 310.953 173.282 310.273 173.169C309.594 173.055 308.946 172.991 308.363 172.991C307.78 172.991 307.149 173.055 306.453 173.169C305.757 173.282 305.077 173.46 304.381 173.686C303.685 173.912 303.037 174.203 302.438 174.543V175.756C302.438 176.338 302.584 176.984 302.892 177.696C303.183 178.407 303.62 179.103 304.187 179.814C304.591 180.315 305.077 180.784 305.579 181.237H301.143V172.991H298.311V181.237H293.568V172.991H288.76C287.546 172.991 286.558 173.201 285.781 173.605C285.004 174.009 284.421 174.624 284.049 175.416C283.677 176.225 283.482 177.227 283.482 178.424C283.482 179.62 283.677 180.606 284.049 181.399C284.421 182.175 285.004 182.773 285.781 183.145C286.558 183.533 287.562 183.727 288.76 183.727H304.818C305.919 183.727 306.955 183.549 307.926 183.193C308.088 183.129 308.218 183.048 308.379 182.999C308.525 183.064 308.671 183.145 308.833 183.193C309.804 183.549 310.84 183.727 311.941 183.727H370.136V168.625H370.104ZM287.287 181.059C286.93 180.93 286.671 180.671 286.526 180.251C286.38 179.846 286.299 179.232 286.299 178.424C286.299 177.567 286.38 176.936 286.542 176.516C286.704 176.095 286.963 175.82 287.319 175.675C287.675 175.545 288.145 175.465 288.727 175.465H290.686V181.237H288.727C288.112 181.237 287.627 181.172 287.287 181.043V181.059ZM308.347 175.481C309.043 175.481 309.772 175.578 310.549 175.772C310.84 175.853 311.131 175.95 311.407 176.063C311.374 176.419 311.293 176.79 311.131 177.195C310.921 177.696 310.646 178.181 310.273 178.65C309.917 179.135 309.496 179.555 309.011 179.96C308.8 180.137 308.574 180.283 308.347 180.428C308.12 180.283 307.894 180.137 307.683 179.96C307.198 179.572 306.777 179.135 306.421 178.65C306.065 178.181 305.789 177.68 305.579 177.195C305.417 176.79 305.336 176.419 305.304 176.063C305.579 175.966 305.87 175.853 306.162 175.788C306.939 175.594 307.667 175.497 308.347 175.497V175.481ZM320.569 180.251C320.52 179.717 320.488 179.183 320.488 178.698C320.488 178.165 320.52 177.599 320.569 177.049C320.617 176.516 320.682 176.031 320.763 175.562C321.265 175.497 321.767 175.465 322.285 175.465C323.029 175.465 323.596 175.562 324.017 175.739C324.438 175.917 324.729 176.225 324.907 176.661C325.085 177.098 325.166 177.696 325.166 178.472V181.285H320.682C320.65 180.978 320.601 180.655 320.569 180.283V180.251Z" fill="#1A213D"/>
<path d="M376.336 168.625H373.503V183.727H376.336V168.625Z" fill="#1A213D"/>
<path d="M11.4449 203.889C10.9107 203.55 10.1498 203.227 9.16237 202.903C8.25585 202.612 7.60833 202.402 7.21982 202.256C6.83131 202.111 6.52374 201.917 6.26473 201.691C6.00573 201.464 5.87622 201.173 5.87622 200.817C5.87622 199.783 6.65324 199.281 8.20728 199.281C9.08143 199.281 10.506 199.395 12.4485 199.621L12.6751 197.293C11.4125 197.066 10.4412 196.905 9.7937 196.84C9.14618 196.759 8.49866 196.727 7.89971 196.727C6.32949 196.727 5.11539 197.082 4.25743 197.81C3.38329 198.538 2.9624 199.621 2.9624 201.044C2.9624 201.836 3.10809 202.483 3.39948 203.016C3.69086 203.55 4.16031 204.003 4.80782 204.391C5.45534 204.779 6.34567 205.118 7.46264 205.442C8.40154 205.717 9.06524 205.975 9.46994 206.218C9.87464 206.46 10.0689 206.832 10.0689 207.35C10.0689 208.611 9.30806 209.225 7.80258 209.225C6.79893 209.225 5.34202 209.096 3.43185 208.837L3.14047 211.133L3.9013 211.279C5.5039 211.618 6.86369 211.796 7.98065 211.796C9.5185 211.796 10.7326 211.392 11.6391 210.6C12.5456 209.807 12.9989 208.659 12.9989 207.156C12.9989 206.363 12.8856 205.7 12.6428 205.199C12.3999 204.698 12.0114 204.261 11.4772 203.922L11.4449 203.889Z" fill="#1A213D"/>
<path d="M23.2619 208.595V204.148C23.2619 202.887 22.9543 201.982 22.3554 201.416C21.7564 200.85 20.769 200.559 19.393 200.559C18.017 200.559 16.5763 200.769 15.0385 201.173L15.1194 203.162C15.6698 203.113 16.3659 203.081 17.1914 203.049C18.017 203.016 18.6645 203 19.134 203C19.6034 203 19.911 203.081 20.1053 203.259C20.2995 203.437 20.3967 203.728 20.3967 204.164V204.827L18.1142 205.005C16.8029 205.086 15.864 205.377 15.2651 205.878C14.6823 206.363 14.3748 207.172 14.3748 208.287C14.3748 210.632 15.4755 211.796 17.6771 211.796C18.7293 211.796 19.7815 211.554 20.8175 211.052C21.2384 211.36 21.6755 211.554 22.1126 211.651C22.5496 211.748 23.1324 211.796 23.8771 211.796L23.958 209.629C23.699 209.581 23.5209 209.484 23.44 209.355C23.3429 209.225 23.2943 208.983 23.2619 208.627V208.595ZM20.3967 209.08L20.0729 209.161C19.4254 209.338 18.8426 209.419 18.3084 209.419C17.6123 209.419 17.2562 209.031 17.2562 208.239C17.2562 207.447 17.6609 207.026 18.4541 206.962L20.3967 206.784V209.08Z" fill="#1A213D"/>
<path d="M32.2948 208.805C31.8253 208.95 31.453 209.047 31.194 209.112C30.935 209.177 30.6436 209.193 30.3036 209.193C29.8504 209.193 29.5104 209.112 29.2838 208.967C29.0572 208.821 28.9115 208.546 28.8467 208.174C28.782 207.802 28.7334 207.22 28.7334 206.46V200.817H25.8682V206.428C25.8682 207.705 25.9815 208.74 26.1919 209.516C26.4024 210.292 26.7747 210.858 27.2927 211.23C27.8107 211.602 28.523 211.78 29.4295 211.78C29.899 211.78 30.336 211.715 30.7569 211.602C31.1778 211.473 31.6796 211.263 32.2786 210.923V211.521H35.1115V200.834H32.2462V208.837L32.2948 208.805Z" fill="#1A213D"/>
<path d="M43.9987 200.85C42.9142 200.656 42.1209 200.543 41.5867 200.543C40.1136 200.543 39.0452 200.995 38.333 201.917C37.6369 202.839 37.2808 204.294 37.2808 206.299C37.2808 208.126 37.5883 209.484 38.2197 210.389C38.851 211.295 39.8708 211.748 41.2954 211.748C41.7001 211.748 42.1209 211.699 42.5256 211.602C42.9303 211.505 43.4322 211.311 44.0149 211.052V211.505H46.8478V196.533H43.9826V200.85H43.9987ZM43.9987 208.87L43.7074 208.934C43.0598 209.112 42.4771 209.193 41.9591 209.193C41.3115 209.193 40.8583 208.967 40.5993 208.514C40.3241 208.061 40.1946 207.301 40.1946 206.234C40.1946 205.07 40.3403 204.245 40.6478 203.76C40.9392 203.275 41.4411 203.033 42.1209 203.033C42.639 203.033 43.2703 203.097 44.0149 203.243V208.87H43.9987Z" fill="#1A213D"/>
<path d="M52.3679 196.549H49.5027V199.443H52.3679V196.549Z" fill="#1A213D"/>
<path d="M52.3679 200.801H49.5027V211.489H52.3679V200.801Z" fill="#1A213D"/>
<path d="M67.6653 203.889C67.1311 203.55 66.3703 203.227 65.3828 202.903C64.4763 202.612 63.8288 202.402 63.4403 202.256C63.0518 202.111 62.7442 201.917 62.4852 201.691C62.2262 201.464 62.0967 201.173 62.0967 200.817C62.0967 199.783 62.8737 199.281 64.4277 199.281C65.3019 199.281 66.7264 199.395 68.669 199.621L68.8956 197.293C67.6329 197.066 66.6617 196.905 66.0142 196.84C65.3666 196.759 64.7191 196.727 64.1202 196.727C62.5499 196.727 61.3359 197.082 60.4779 197.81C59.6037 198.538 59.1829 199.621 59.1829 201.044C59.1829 201.836 59.3286 202.483 59.6199 203.016C59.9113 203.55 60.3808 204.003 61.0283 204.391C61.6758 204.779 62.5661 205.118 63.6831 205.442C64.622 205.717 65.2857 205.975 65.6904 206.218C66.0951 206.46 66.2893 206.832 66.2893 207.35C66.2893 208.611 65.5285 209.225 64.023 209.225C63.0194 209.225 61.5625 209.096 59.6523 208.837L59.3609 211.133L60.1218 211.279C61.7244 211.618 63.0841 211.796 64.2011 211.796C65.739 211.796 66.953 211.392 67.8596 210.6C68.7661 209.807 69.2194 208.659 69.2194 207.156C69.2194 206.363 69.106 205.7 68.8632 205.199C68.6204 204.698 68.2319 204.261 67.6977 203.922L67.6653 203.889Z" fill="#1A213D"/>
<path d="M75.6623 200.543C74.0597 200.543 72.8294 201.028 72.0038 201.998C71.1782 202.968 70.7573 204.342 70.7573 206.121C70.7573 207.899 71.1782 209.306 72.0038 210.276C72.8294 211.246 74.0597 211.748 75.6623 211.748C77.2649 211.748 78.4951 211.263 79.3207 210.276C80.1463 209.306 80.5672 207.916 80.5672 206.121C80.5672 204.326 80.1463 202.968 79.3207 201.998C78.4951 201.028 77.2649 200.543 75.6623 200.543ZM77.1839 208.562C76.8602 209.064 76.3583 209.306 75.6623 209.306C74.9662 209.306 74.4805 209.064 74.1406 208.562C73.8168 208.061 73.655 207.253 73.655 206.121C73.655 204.989 73.8168 204.181 74.1406 203.695C74.4644 203.21 74.9662 202.968 75.6623 202.968C76.3583 202.968 76.844 203.21 77.1839 203.695C77.5077 204.181 77.6696 204.989 77.6696 206.121C77.6696 207.253 77.5077 208.061 77.1839 208.562Z" fill="#1A213D"/>
<path d="M85.9578 203.388C86.2977 203.21 86.7996 203.113 87.4471 203.113C87.9165 203.113 88.7583 203.178 89.9724 203.291L90.0533 201.028C89.2116 200.85 88.5479 200.737 88.046 200.672C87.5442 200.607 87.0909 200.559 86.6862 200.559C85.0836 200.559 83.9181 200.995 83.2059 201.868C82.4936 202.742 82.1375 204.181 82.1375 206.153C82.1375 208.126 82.4774 209.532 83.1735 210.422C83.8696 211.311 84.9703 211.764 86.5082 211.764C87.3661 211.764 88.5479 211.618 90.0533 211.311L89.9724 209.015L87.4956 209.193C86.8319 209.193 86.3139 209.096 85.974 208.918C85.6178 208.74 85.3912 208.433 85.2455 207.996C85.116 207.576 85.0351 206.945 85.0351 206.137C85.0351 205.329 85.0998 204.73 85.2455 204.294C85.375 203.873 85.6178 203.566 85.9578 203.388Z" fill="#1A213D"/>
<path d="M95.0391 196.549H92.1738V199.443H95.0391V196.549Z" fill="#1A213D"/>
<path d="M95.0391 200.801H92.1738V211.489H95.0391V200.801Z" fill="#1A213D"/>
<path d="M101.822 200.543C100.187 200.543 98.9727 201.028 98.2119 201.998C97.4349 202.968 97.0464 204.439 97.0464 206.412C97.0464 208.384 97.4187 209.662 98.1633 210.503C98.908 211.343 100.106 211.764 101.773 211.764C103.036 211.764 104.477 211.57 106.079 211.166L106.031 209.047L105.432 209.112C105.14 209.144 104.655 209.177 104.007 209.193C103.36 209.225 102.793 209.241 102.324 209.241C101.725 209.241 101.255 209.193 100.931 209.08C100.592 208.967 100.349 208.789 100.203 208.53C100.057 208.271 99.9602 207.883 99.944 207.382H106.209L106.419 205.393C106.419 203.776 106.031 202.58 105.254 201.771C104.477 200.963 103.343 200.559 101.822 200.559V200.543ZM99.8955 205.183C99.8955 204.358 100.057 203.76 100.349 203.421C100.64 203.065 101.11 202.903 101.806 202.903C102.502 202.903 102.939 203.065 103.198 203.404C103.457 203.744 103.586 204.342 103.586 205.183H99.8955Z" fill="#1A213D"/>
<path d="M112.635 209.193C112.231 209.193 111.988 209.096 111.891 208.837C111.794 208.595 111.745 208.19 111.745 207.625V203.243H114.368V200.801H111.745V197.826H108.88V200.801H107.617V203.243H108.88V207.689C108.88 208.724 108.977 209.516 109.171 210.115C109.365 210.697 109.689 211.117 110.159 211.376C110.612 211.634 111.259 211.764 112.085 211.764C112.409 211.764 112.733 211.748 113.056 211.699C113.38 211.651 113.817 211.57 114.384 211.44L114.254 209.144L112.635 209.193Z" fill="#1A213D"/>
<path d="M120.487 209.064H119.985L118.058 200.801H115.242L117.864 211.505H119.871L118.69 216H121.49L125.246 200.801H122.429L120.487 209.064Z" fill="#1A213D"/>
<path d="M131.834 211.505H134.78V206.363H139.944V203.793H134.78V199.524H141.094V196.953H131.834V211.505Z" fill="#1A213D"/>
<path d="M146.889 200.543C145.286 200.543 144.056 201.028 143.231 201.998C142.405 202.968 141.984 204.342 141.984 206.121C141.984 207.899 142.405 209.306 143.231 210.276C144.056 211.246 145.286 211.748 146.889 211.748C148.492 211.748 149.722 211.263 150.548 210.276C151.373 209.306 151.794 207.916 151.794 206.121C151.794 204.326 151.373 202.968 150.548 201.998C149.722 201.028 148.492 200.543 146.889 200.543ZM148.411 208.562C148.087 209.064 147.585 209.306 146.889 209.306C146.193 209.306 145.707 209.064 145.367 208.562C145.044 208.061 144.882 207.253 144.882 206.121C144.882 204.989 145.044 204.181 145.367 203.695C145.691 203.21 146.193 202.968 146.889 202.968C147.585 202.968 148.071 203.21 148.411 203.695C148.734 204.181 148.896 204.989 148.896 206.121C148.896 207.253 148.734 208.061 148.411 208.562Z" fill="#1A213D"/>
<path d="M156.731 200.801H153.898V211.489H156.764V204.326L157.185 204.181C158.091 203.889 159.079 203.647 160.147 203.437V200.543C159.095 200.753 157.962 201.222 156.731 201.933V200.801Z" fill="#1A213D"/>
<path d="M169.504 201.141C169.682 200.494 170.005 200.025 170.459 199.734C170.912 199.443 171.592 199.314 172.482 199.314C173.372 199.314 174.506 199.427 175.914 199.637L175.995 197.276C174.408 196.888 172.952 196.694 171.656 196.694C170.248 196.694 169.147 196.937 168.37 197.406C167.593 197.891 167.027 198.667 166.703 199.75C166.363 200.834 166.201 202.353 166.201 204.278C166.201 206.04 166.347 207.463 166.654 208.53C166.962 209.597 167.529 210.389 168.354 210.939C169.18 211.489 170.361 211.748 171.899 211.748C173.065 211.748 174.425 211.586 175.979 211.263L175.914 208.837C174.554 209.031 173.389 209.144 172.417 209.144C171.511 209.144 170.831 209.015 170.394 208.74C169.957 208.465 169.665 208.029 169.504 207.431C169.358 206.832 169.261 205.911 169.245 204.682V203.89C169.245 202.709 169.325 201.788 169.504 201.141Z" fill="#1A213D"/>
<path d="M182.292 200.543C180.689 200.543 179.459 201.028 178.633 201.998C177.808 202.968 177.387 204.342 177.387 206.121C177.387 207.899 177.808 209.306 178.633 210.276C179.459 211.246 180.689 211.748 182.292 211.748C183.894 211.748 185.125 211.263 185.95 210.276C186.776 209.306 187.197 207.916 187.197 206.121C187.197 204.326 186.776 202.968 185.95 201.998C185.125 201.028 183.894 200.543 182.292 200.543ZM183.814 208.562C183.49 209.064 182.988 209.306 182.292 209.306C181.596 209.306 181.11 209.064 180.77 208.562C180.446 208.061 180.285 207.253 180.285 206.121C180.285 204.989 180.446 204.181 180.77 203.695C181.094 203.21 181.596 202.968 182.292 202.968C182.988 202.968 183.474 203.21 183.814 203.695C184.137 204.181 184.299 204.989 184.299 206.121C184.299 207.253 184.137 208.061 183.814 208.562Z" fill="#1A213D"/>
<path d="M200.989 200.543C200.374 200.543 199.775 200.623 199.192 200.785C198.609 200.947 197.978 201.205 197.298 201.545C197.007 201.205 196.618 200.947 196.149 200.785C195.679 200.623 195.21 200.543 194.708 200.543C194.287 200.543 193.866 200.607 193.478 200.753C193.089 200.882 192.62 201.108 192.102 201.399V200.801H189.269V211.489H192.134V203.485L192.393 203.404C192.992 203.21 193.51 203.097 193.979 203.097C194.449 203.097 194.757 203.194 194.967 203.372C195.194 203.55 195.339 203.841 195.42 204.245C195.501 204.649 195.534 205.232 195.534 206.008V211.505H198.399V205.959C198.399 205.296 198.366 204.472 198.318 203.518L198.642 203.404C199.321 203.21 199.872 203.097 200.277 203.097C200.859 203.097 201.264 203.307 201.474 203.712C201.685 204.132 201.798 204.811 201.798 205.765V211.473H204.663V205.668C204.663 203.857 204.388 202.547 203.838 201.739C203.288 200.931 202.349 200.526 201.021 200.526L200.989 200.543Z" fill="#1A213D"/>
<path d="M212.628 200.543C212.207 200.543 211.802 200.607 211.43 200.72C211.058 200.834 210.588 201.06 210.038 201.383V200.801H207.205V215.984H210.07V211.57C210.718 211.683 211.317 211.748 211.883 211.748C213.033 211.748 213.955 211.57 214.652 211.214C215.348 210.858 215.866 210.276 216.189 209.484C216.513 208.692 216.675 207.608 216.675 206.234C216.675 204.245 216.351 202.806 215.688 201.901C215.024 200.995 214.02 200.543 212.644 200.543H212.628ZM213.276 208.578C212.952 209.047 212.385 209.274 211.592 209.274C211.204 209.274 210.702 209.225 210.054 209.144V203.534L210.313 203.421C210.831 203.21 211.349 203.097 211.851 203.097C212.531 203.097 213.017 203.34 213.324 203.841C213.615 204.342 213.777 205.135 213.777 206.218C213.777 207.301 213.615 208.093 213.292 208.562L213.276 208.578Z" fill="#1A213D"/>
<path d="M226.954 208.595V204.148C226.954 202.887 226.647 201.982 226.048 201.416C225.449 200.85 224.461 200.559 223.085 200.559C221.709 200.559 220.269 200.769 218.731 201.173L218.812 203.162C219.362 203.113 220.058 203.081 220.884 203.049C221.709 203.016 222.357 203 222.826 203C223.296 203 223.603 203.081 223.798 203.259C223.992 203.437 224.089 203.728 224.089 204.164V204.827L221.807 205.005C220.495 205.086 219.556 205.377 218.957 205.878C218.375 206.363 218.067 207.172 218.067 208.287C218.067 210.632 219.168 211.796 221.369 211.796C222.422 211.796 223.474 211.554 224.51 211.052C224.931 211.36 225.368 211.554 225.805 211.651C226.242 211.748 226.825 211.796 227.569 211.796L227.65 209.629C227.391 209.581 227.213 209.484 227.132 209.355C227.035 209.225 226.987 208.983 226.954 208.627V208.595ZM224.089 209.08L223.765 209.161C223.118 209.338 222.535 209.419 222.001 209.419C221.305 209.419 220.949 209.031 220.949 208.239C220.949 207.447 221.353 207.026 222.146 206.962L224.089 206.784V209.08Z" fill="#1A213D"/>
<path d="M232.523 200.801H229.69V211.489H232.555V204.326L232.976 204.181C233.883 203.889 234.87 203.647 235.939 203.437V200.543C234.887 200.753 233.753 201.222 232.523 201.933V200.801Z" fill="#1A213D"/>
<path d="M245.797 208.595V204.148C245.797 202.887 245.489 201.982 244.891 201.416C244.292 200.85 243.304 200.559 241.928 200.559C240.552 200.559 239.111 200.769 237.574 201.173L237.655 203.162C238.205 203.113 238.901 203.081 239.727 203.049C240.552 203.016 241.2 203 241.669 203C242.139 203 242.446 203.081 242.64 203.259C242.835 203.437 242.932 203.728 242.932 204.164V204.827L240.649 205.005C239.338 205.086 238.399 205.377 237.8 205.878C237.217 206.363 236.91 207.172 236.91 208.287C236.91 210.632 238.011 211.796 240.212 211.796C241.264 211.796 242.317 211.554 243.353 211.052C243.774 211.36 244.211 211.554 244.648 211.651C245.085 211.748 245.668 211.796 246.412 211.796L246.493 209.629C246.234 209.581 246.056 209.484 245.975 209.355C245.878 209.225 245.829 208.983 245.797 208.627V208.595ZM242.932 209.08L242.608 209.161C241.961 209.338 241.378 209.419 240.844 209.419C240.147 209.419 239.791 209.031 239.791 208.239C239.791 207.447 240.196 207.026 240.989 206.962L242.932 206.784V209.08Z" fill="#1A213D"/>
<path d="M252.709 209.193C252.304 209.193 252.062 209.096 251.965 208.837C251.867 208.595 251.819 208.19 251.819 207.625V203.243H254.441V200.801H251.819V197.826H248.954V200.801H247.691V203.243H248.954V207.689C248.954 208.724 249.051 209.516 249.245 210.115C249.439 210.697 249.763 211.117 250.232 211.376C250.686 211.634 251.333 211.764 252.159 211.764C252.483 211.764 252.806 211.748 253.13 211.699C253.454 211.651 253.891 211.57 254.457 211.44L254.328 209.144L252.709 209.193Z" fill="#1A213D"/>
<path d="M259.152 196.549H256.287V199.443H259.152V196.549Z" fill="#1A213D"/>
<path d="M259.152 200.801H256.287V211.489H259.152V200.801Z" fill="#1A213D"/>
<path d="M266.081 209.064H265.482L263.782 200.801H260.787L263.361 211.505H268.217L270.775 200.801H267.877L266.081 209.064Z" fill="#1A213D"/>
<path d="M276.522 200.543C274.887 200.543 273.673 201.028 272.912 201.998C272.135 202.968 271.746 204.439 271.746 206.412C271.746 208.384 272.119 209.662 272.863 210.503C273.608 211.343 274.806 211.764 276.473 211.764C277.736 211.764 279.177 211.57 280.779 211.166L280.731 209.047L280.132 209.112C279.84 209.144 279.355 209.177 278.707 209.193C278.06 209.225 277.493 209.241 277.024 209.241C276.425 209.241 275.955 209.193 275.631 209.08C275.292 208.967 275.049 208.789 274.903 208.53C274.757 208.271 274.66 207.883 274.644 207.382H280.909L281.119 205.393C281.119 203.776 280.731 202.58 279.954 201.771C279.177 200.963 278.043 200.559 276.522 200.559V200.543ZM274.595 205.183C274.595 204.358 274.757 203.76 275.049 203.421C275.34 203.065 275.81 202.903 276.506 202.903C277.202 202.903 277.639 203.065 277.898 203.404C278.157 203.744 278.286 204.342 278.286 205.183H274.595Z" fill="#1A213D"/>
<path d="M291.042 196.953H288.096V211.505H296.352V208.886H291.042V196.953Z" fill="#1A213D"/>
<path d="M300.787 200.801H297.922V211.489H300.787V200.801Z" fill="#1A213D"/>
<path d="M300.787 196.549H297.922V199.443H300.787V196.549Z" fill="#1A213D"/>
<path d="M307.36 209.193C306.955 209.193 306.712 209.096 306.615 208.837C306.518 208.595 306.469 208.19 306.469 207.625V203.243H309.092V200.801H306.469V197.826H303.604V200.801H302.341V203.243H303.604V207.689C303.604 208.724 303.701 209.516 303.895 210.115C304.09 210.697 304.413 211.117 304.883 211.376C305.336 211.634 305.984 211.764 306.809 211.764C307.133 211.764 307.457 211.748 307.78 211.699C308.104 211.651 308.541 211.57 309.108 211.44L308.978 209.144L307.36 209.193Z" fill="#1A213D"/>
<path d="M315.195 200.543C313.56 200.543 312.346 201.028 311.585 201.998C310.808 202.968 310.419 204.439 310.419 206.412C310.419 208.384 310.792 209.662 311.536 210.503C312.281 211.343 313.479 211.764 315.146 211.764C316.409 211.764 317.849 211.57 319.452 211.166L319.403 209.047L318.805 209.112C318.513 209.144 318.028 209.177 317.38 209.193C316.732 209.225 316.166 209.241 315.696 209.241C315.098 209.241 314.628 209.193 314.304 209.08C313.964 208.967 313.722 208.789 313.576 208.53C313.43 208.271 313.333 207.883 313.317 207.382H319.582L319.792 205.393C319.792 203.776 319.403 202.58 318.626 201.771C317.849 200.963 316.716 200.559 315.195 200.559V200.543ZM313.268 205.183C313.268 204.358 313.43 203.76 313.722 203.421C314.013 203.065 314.482 202.903 315.178 202.903C315.875 202.903 316.312 203.065 316.571 203.404C316.83 203.744 316.959 204.342 316.959 205.183H313.268Z" fill="#1A213D"/>
<path d="M324.664 200.801H321.832V211.489H324.697V204.326L325.118 204.181C326.024 203.889 327.012 203.647 328.08 203.437V200.543C327.028 200.753 325.895 201.222 324.664 201.933V200.801Z" fill="#1A213D"/>
<path d="M337.939 208.595V204.148C337.939 202.887 337.631 201.982 337.032 201.416C336.433 200.85 335.446 200.559 334.07 200.559C332.694 200.559 331.253 200.769 329.715 201.173L329.796 203.162C330.347 203.113 331.043 203.081 331.868 203.049C332.694 203.016 333.341 203 333.811 203C334.28 203 334.588 203.081 334.782 203.259C334.976 203.437 335.073 203.728 335.073 204.164V204.827L332.791 205.005C331.48 205.086 330.541 205.377 329.942 205.878C329.359 206.363 329.052 207.172 329.052 208.287C329.052 210.632 330.152 211.796 332.354 211.796C333.406 211.796 334.458 211.554 335.494 211.052C335.915 211.36 336.352 211.554 336.789 211.651C337.226 211.748 337.809 211.796 338.554 211.796L338.635 209.629C338.376 209.581 338.198 209.484 338.117 209.355C338.02 209.225 337.971 208.983 337.939 208.627V208.595ZM335.073 209.08L334.75 209.161C334.102 209.338 333.519 209.419 332.985 209.419C332.289 209.419 331.933 209.031 331.933 208.239C331.933 207.447 332.338 207.026 333.131 206.962L335.073 206.784V209.08Z" fill="#1A213D"/>
<path d="M344.851 209.193C344.446 209.193 344.203 209.096 344.106 208.837C344.009 208.595 343.96 208.19 343.96 207.625V203.243H346.583V200.801H343.96V197.826H341.095V200.801H339.833V203.243H341.095V207.689C341.095 208.724 341.192 209.516 341.387 210.115C341.581 210.697 341.921 211.117 342.374 211.376C342.827 211.634 343.475 211.764 344.3 211.764C344.624 211.764 344.948 211.748 345.272 211.699C345.595 211.651 346.032 211.57 346.599 211.44L346.47 209.144L344.851 209.193Z" fill="#1A213D"/>
<path d="M354.725 208.805C354.256 208.95 353.884 209.047 353.625 209.112C353.366 209.177 353.074 209.193 352.734 209.193C352.281 209.193 351.941 209.112 351.714 208.967C351.488 208.821 351.342 208.546 351.277 208.174C351.213 207.802 351.164 207.22 351.164 206.46V200.817H348.299V206.428C348.299 207.705 348.412 208.74 348.623 209.516C348.833 210.292 349.205 210.858 349.723 211.23C350.241 211.602 350.954 211.78 351.86 211.78C352.33 211.78 352.767 211.715 353.188 211.602C353.608 211.473 354.11 211.263 354.709 210.923V211.521H357.542V200.834H354.677V208.837L354.725 208.805Z" fill="#1A213D"/>
<path d="M363.062 200.801H360.229V211.489H363.095V204.326L363.515 204.181C364.422 203.889 365.409 203.647 366.478 203.437V200.543C365.426 200.753 364.292 201.222 363.062 201.933V200.801Z" fill="#1A213D"/>
<path d="M377 205.377C377 203.76 376.611 202.564 375.834 201.755C375.057 200.947 373.924 200.543 372.403 200.543C370.768 200.543 369.554 201.028 368.793 201.998C368.016 202.968 367.627 204.439 367.627 206.412C367.627 208.384 367.999 209.662 368.744 210.503C369.489 211.343 370.687 211.764 372.354 211.764C373.617 211.764 375.057 211.57 376.66 211.166L376.611 209.047L376.013 209.112C375.721 209.144 375.235 209.177 374.588 209.193C373.94 209.225 373.374 209.241 372.904 209.241C372.305 209.241 371.836 209.193 371.512 209.08C371.172 208.967 370.93 208.789 370.784 208.53C370.638 208.271 370.541 207.883 370.525 207.382H376.79L377 205.393V205.377ZM370.492 205.183C370.492 204.358 370.654 203.76 370.946 203.421C371.237 203.065 371.707 202.903 372.403 202.903C373.099 202.903 373.536 203.065 373.795 203.404C374.054 203.744 374.183 204.342 374.183 205.183H370.492Z" fill="#1A213D"/>
<path d="M115.064 41.5055C114.448 40.503 114.222 38.8215 114.351 36.4608C114.481 33.4049 114.222 31.594 113.59 31.0119C112.716 30.2196 109.301 30.1226 105.092 30.7209C105.675 31.594 105.885 33.5989 105.723 36.7357C105.529 39.6622 105.804 41.4732 106.565 42.1684C107.326 42.8637 109.543 43.1871 111.437 43.1709C113.607 43.1062 115.08 42.9284 115.841 42.6373C115.63 42.3786 115.371 42.0067 115.064 41.5055Z" fill="#F5A91D"/>
<path d="M191.827 140.265C191.762 140.362 191.681 140.459 191.616 140.556C191.568 140.491 191.519 140.427 191.454 140.362C191.406 140.297 191.341 140.233 191.292 140.168C191.325 140.006 191.357 139.828 191.406 139.651C191.422 139.521 191.471 139.376 191.503 139.23C191.503 139.23 191.503 139.198 191.503 139.182V139.166C191.503 139.182 191.503 139.198 191.503 139.214C191.6 139.57 191.697 139.925 191.794 140.265H191.827Z" fill="#1A213D"/>
<path d="M251.091 14.6813C251.058 14.8754 251.026 15.1179 250.993 15.3766C250.993 15.1017 251.026 14.8592 251.091 14.6813Z" fill="#1A213D"/>
<path d="M288.679 7.97126C287.206 5.19021 285.473 2.21514 283.191 0C283.563 1.13182 284.616 3.60566 285.053 8.01976C285.652 14.0022 285.943 20.5991 285.927 26.5816C285.878 39.3874 281.831 51.6919 275.696 62.9293C259.735 92.1302 223.717 98.4361 200.827 120.199C204.599 114.039 209.714 109.948 214.684 106.682C220.123 103.077 225.821 100.021 231.325 97.0618C234.449 95.3802 237.654 93.634 240.827 91.823C252.045 85.3717 263.571 77.9016 270.403 64.3036C276.683 51.7889 278.577 37.5118 277.218 24.415C277.218 24.2371 277.185 24.0593 277.169 23.8976C276.489 17.3492 274.822 10.9625 272.345 5.06086C272.847 10.8331 273.413 16.6054 273.624 22.4262C273.932 31.0119 272.669 39.4682 269.561 47.8437C268.492 50.7218 267.019 53.5837 265.044 56.5911C257.922 67.3595 245.635 74.0696 234.805 80.0036C232.733 81.1354 230.532 82.2187 228.185 83.3667C215.283 89.7049 199.516 97.4822 194.773 119.035C194.659 116.513 194.481 114.023 194.222 111.565C194.222 111.161 194.222 110.789 194.222 110.401C195.598 99.9883 201.296 94.1514 206.8 89.7858C210.702 86.6975 214.829 84.0135 218.812 81.4103C221.321 79.7772 223.895 78.0957 226.42 76.3171C232.49 72.0485 238.804 67.0847 243.935 59.744C248.452 53.2764 249.925 44.5776 250.783 35.9272C250.815 36.4123 250.831 36.8812 250.864 37.3016C251.09 42.8314 257.177 45.8873 259.88 49.2666C259.961 49.1372 260.026 48.9917 260.091 48.8623C262.131 44.7069 262.649 38.11 262.179 33.0815C261.807 29.3142 260.463 27.3254 258.197 25.2234C256.465 23.6066 253.68 22.3939 252.207 19.7099C251.43 17.8504 251.026 16.2982 251.009 15.3443C250.783 16.7995 250.475 18.9823 250.362 20.3404C250.362 20.3081 250.362 20.2919 250.362 20.2919C250.362 20.2919 249.828 25.4175 249.779 26.0319C248.484 40.5192 244.89 45.1758 237.719 52.6135C231.778 58.79 225.141 63.1395 218.715 67.3595C217.581 68.1033 216.4 68.8471 215.202 69.5908C205.878 75.4278 195.42 81.9762 192.782 98.8727C192.005 95.4125 190.952 91.9201 189.657 88.5246C189.075 87.0371 188.459 85.5495 187.78 84.0943C183.911 75.7027 178.52 68.0548 172.207 62.6221C165.57 56.9144 157.557 53.1148 150.062 48.6036C141.126 43.2356 135.072 36.7519 129.39 28.1338C126.654 23.9623 124.728 19.3056 122.85 14.6813C119.628 31.982 128.613 45.7094 141.66 56.2515C152.247 64.7887 166.298 69.0734 174.862 79.7934C178.795 84.7249 182.583 90.1738 185.61 96.3342C185.805 96.7384 185.999 97.1426 186.177 97.5468C186.387 97.9187 186.549 98.3229 186.727 98.7272C189.091 104.031 190.111 110.223 190.952 116.4C191.567 120.895 191.956 124.419 192.264 129.044C192.377 130.58 192.539 134.848 191.94 137.565C191.94 137.581 191.94 137.597 191.94 137.613C191.907 137.775 191.859 137.937 191.81 138.082V138.115C191.81 138.163 191.794 138.212 191.778 138.244C191.697 138.519 191.632 138.81 191.567 139.085C191.567 139.101 191.567 139.117 191.567 139.133C191.665 139.489 191.762 139.845 191.859 140.184C192.328 139.602 192.798 139.02 193.283 138.47C193.413 138.309 193.559 138.163 193.688 138.001C193.85 137.823 194.028 137.646 194.19 137.468C194.595 137.031 195.016 136.627 195.436 136.207C204.372 127.54 217.031 123.013 228.622 117.887C245.311 110.498 261.127 100.829 274.352 88.2497C287.108 76.1069 294.684 62.3472 295.639 44.6099C296.319 32.1114 294.62 19.0469 288.711 7.87424L288.679 7.97126ZM261.094 38.6759C260.835 39.3874 260.576 40.115 260.35 40.8426C259.54 40.0503 258.974 39.7916 257.711 38.773C257.209 38.3526 256.789 38.013 256.4 37.6896C255.429 36.8327 255.04 35.135 255.51 33.7606C255.785 32.9522 256.06 32.1276 256.303 31.4323C256.853 31.9012 257.371 32.3701 257.857 32.8552C259.411 34.472 261.564 37.3986 261.111 38.6759H261.094Z" fill="#1A213D"/>
<path d="M259.848 49.2989C259.848 49.2989 259.799 49.3959 259.767 49.4444C259.799 49.3959 259.816 49.3474 259.832 49.2827L259.848 49.2989Z" fill="#1A213D"/>
<path d="M260.059 48.8947C260.01 49.0563 259.978 49.2342 259.929 49.4121C259.897 49.3797 259.881 49.3474 259.848 49.2989C259.929 49.1695 259.994 49.024 260.059 48.8947Z" fill="#1A213D"/>
<path d="M222.746 47.3587V47.6174C222.616 49.6385 222.147 51.7081 221.774 53.2765C220.657 57.8361 218.294 61.6034 214.959 64.1581C212.952 65.678 210.783 66.6643 208.662 67.6021C208.015 67.877 207.383 68.168 206.752 68.4752C202.333 70.5772 198.108 73.8433 194.514 77.8855C193.073 79.5185 191.94 81.2324 191.147 82.9949C190.337 84.7573 189.819 86.6328 189.609 88.5893C189.026 87.1017 188.411 85.6142 187.731 84.159C187.861 82.526 188.087 81.0222 188.395 79.5832C188.654 78.2897 189.01 76.9962 189.447 75.7512C190.71 72.1455 192.685 69.0896 195.323 66.6481C198.512 63.7054 201.896 61.6034 206.283 59.8572C206.558 59.744 206.849 59.6308 207.124 59.5176C208.565 58.9356 210.135 58.2726 211.673 57.4642C215.186 55.5886 218.602 52.8722 220.431 48.2156C220.722 47.4718 220.965 46.6796 221.175 45.8388C221.256 45.4992 221.434 44.7716 222.114 44.8525C222.114 44.8525 222.147 44.8525 222.163 44.8525C222.325 44.8848 222.454 44.9333 222.551 45.0142C222.551 45.0142 222.551 45.0142 222.568 45.0142C222.891 45.3052 222.827 45.9681 222.729 47.3748L222.746 47.3587Z" fill="#F5A91D"/>
<path d="M222.584 44.998C221.305 44.5129 220.139 44.2057 218.828 43.9632C217.517 43.7206 216.173 43.85 214.878 44.044C212.482 44.4159 210.313 45.6286 208.986 48.4743C208.565 49.3959 208.257 50.4146 208.079 51.4817C207.901 52.5488 207.934 53.5837 207.917 54.667C207.885 56.397 207.804 58.0948 207.108 59.55C206.8 60.1967 206.412 60.7465 205.975 61.2315C206.752 60.3746 209.261 60.5363 210.232 59.453C213.049 56.3324 211.576 55.9281 212.353 51.8698C213.259 47.1646 219.071 47.5688 221.726 48.5713C222.26 46.34 222.567 45.0465 222.584 44.998Z" fill="#F5A91D"/>
<path d="M226.598 40.8264C227.165 39.8886 227.327 38.2555 227.051 35.9111C226.76 32.8875 226.938 31.1251 227.553 30.6077C228.411 29.9124 230.985 30.0579 235.307 31.0604C234.757 31.8688 234.644 33.8253 234.967 36.9297C235.324 39.8401 235.129 41.6025 234.385 42.2008C233.64 42.799 232.313 43.0092 230.354 42.8152C228.136 42.5403 226.631 42.2331 225.837 41.8612C226.048 41.6348 226.291 41.2791 226.566 40.8102L226.598 40.8264Z" fill="#F5A91D"/>
<path d="M235.016 29.7184C235.583 28.7806 235.744 27.1475 235.469 24.803C235.178 21.7795 235.356 20.017 235.971 19.4996C236.829 18.8044 239.403 18.9499 243.725 19.9524C243.175 20.7608 243.061 22.7172 243.385 25.8217C243.741 28.7321 243.547 30.4945 242.802 31.0927C242.058 31.691 240.73 31.9012 238.772 31.7071C236.554 31.4323 235.048 31.1251 234.255 30.7532C234.466 30.5268 234.708 30.1711 234.984 29.7022L235.016 29.7184Z" fill="#F5A91D"/>
<path d="M191.762 138.163C191.762 138.163 191.746 138.26 191.73 138.292C191.649 138.567 191.584 138.858 191.519 139.133C191.519 139.149 191.519 139.166 191.519 139.182C191.519 139.182 191.503 139.182 191.487 139.198C191.438 139.246 191.406 139.263 191.373 139.295C191.293 139.343 191.293 139.311 191.373 139.149C191.373 139.117 191.406 139.101 191.422 139.052C191.422 139.02 191.454 138.988 191.471 138.955C191.584 138.713 191.681 138.438 191.762 138.147V138.163Z" fill="#1A213D"/>
<path d="M191.406 139.651C191.357 139.828 191.325 140.006 191.292 140.168C191.292 140.168 191.292 140.152 191.276 140.136C181.855 128.931 166.8 124.403 153.121 119.019C135.962 112.244 119.596 103.125 105.707 90.9661C92.3196 79.2275 84.0961 65.6133 82.4126 47.7467C81.2309 35.1511 82.4126 21.8926 87.9165 10.3481C89.2763 7.50234 90.8951 4.47876 93.0804 2.13428C92.0282 3.47629 92.4329 8.84436 92.3358 10.3157C91.9635 16.3629 92.012 22.5071 92.2872 28.5542C92.8538 41.4731 96.6579 54.2466 103.295 65.3384C119.71 92.6961 153.542 98.5169 177.484 116.998C174.862 112.002 172.547 108.04 168.467 105.502C160.535 100.587 152.037 97.8055 144.04 93.165C140.333 90.9984 136.739 88.3952 133.437 85.1129C130.782 82.4612 128.338 79.3406 126.33 75.7512C125.052 73.439 123.918 70.9652 123.125 68.2811C122.607 66.5996 122.283 64.821 122.041 63.0424C121.911 62.0885 121.798 61.1507 121.668 60.2129C121.604 59.6955 121.264 58.5636 121.668 58.2241C121.992 57.9492 122.979 59.5823 123.158 59.841C124.744 61.9753 126.088 64.3521 127.723 66.3894C129.358 68.4267 131.154 70.2214 133.032 71.7736C133.226 71.9353 133.404 72.097 133.599 72.2425C136.415 74.4738 139.41 76.2686 142.454 77.7723C149.495 81.2971 156.828 83.5446 163.643 87.894C171.138 92.6961 177.889 100.053 182.842 109.285C187.456 117.871 190.483 128.09 191.309 138.535C191.309 138.761 191.341 138.971 191.357 139.182C191.276 139.343 191.292 139.376 191.357 139.327C191.357 139.44 191.357 139.554 191.373 139.667L191.406 139.651Z" fill="#F5A91D"/>
<path d="M191.276 140.136C191.276 140.136 191.276 140.152 191.292 140.168C191.292 140.168 191.292 140.152 191.292 140.136H191.276Z" fill="#C4912C"/>
<path d="M191.39 139.166C191.39 139.166 191.39 139.263 191.39 139.311C191.309 139.36 191.309 139.327 191.39 139.166Z" fill="#C4912C"/>
<path d="M191.454 140.362C191.454 140.362 191.341 140.233 191.292 140.168C191.325 140.006 191.357 139.828 191.406 139.651C191.406 139.893 191.454 140.12 191.454 140.362Z" fill="#C4912C"/>
<path d="M188.411 119.035C187.278 115.365 184.931 108.623 183.36 105.243C177.516 92.6477 172.045 88.8803 162.672 83.8033C156.925 80.6827 148.556 78.8718 142.761 74.4092C134.084 67.7153 130.879 54.1172 130.879 54.1172C130.879 54.1172 136.156 61.3609 150.386 68.4105C157.638 72 164.275 73.7301 170.896 79.3245C176.837 84.353 182.81 92.1788 186.048 100.781C188.152 106.375 189.544 112.891 188.411 119.035Z" fill="#1A213D"/>
<path d="M191.827 140.265C191.762 140.362 191.681 140.459 191.616 140.556C191.568 140.491 191.519 140.427 191.454 140.362C191.406 140.297 191.341 140.233 191.292 140.168C191.325 140.006 191.357 139.828 191.406 139.651C191.406 139.537 191.406 139.424 191.39 139.311C191.309 139.36 191.309 139.327 191.39 139.165C191.39 138.955 191.357 138.745 191.341 138.535C191.39 138.664 191.422 138.826 191.471 138.971C191.471 138.971 191.503 139.085 191.519 139.133C191.519 139.149 191.519 139.166 191.519 139.182C191.616 139.537 191.713 139.893 191.81 140.233L191.827 140.265Z" fill="#F5A91D"/>
</g>
<defs>
<clipPath id="clip0_4_319">
<rect width="377" height="216" fill="white"/>
</clipPath>
</defs>
</svg>
