<svg width="72" height="42" viewBox="0 0 72 42" fill="none" xmlns="http://www.w3.org/2000/svg">
<path d="M37.0349 32.9256C37.0236 32.9703 37.0355 33.0169 37.0334 33.056C39.9312 30.9677 43.7677 30.7983 47.326 30.3403C51.8105 29.8216 56.1746 28.534 60.228 26.5336C64.1056 24.5509 66.867 21.8174 68.344 17.6721C69.3775 14.7624 69.8972 11.544 69.2874 8.48334C69.1594 7.69934 68.9141 6.93946 68.5599 6.22942C68.7245 6.60812 68.3088 7.85868 68.2433 8.21077C67.9545 9.66948 67.5889 11.112 67.148 12.5321C66.2354 15.5742 64.5843 18.3423 62.343 20.5875C56.8166 26.0852 48.4628 25.4348 41.6894 28.3764C42.6091 27.3488 43.396 26.5491 44.5161 26.1947C46.6885 25.5044 48.8613 25.3574 51.0362 24.7351C52.0834 24.4423 53.0886 24.0148 54.0271 23.4633C54.8555 22.9684 55.6106 22.359 56.2702 21.653C56.7295 21.1735 57.1349 20.6447 57.479 20.0763C57.6989 19.6996 57.8896 19.3065 58.0494 18.9006C58.1367 18.6809 58.223 18.4649 58.3056 18.2479C58.3358 18.1287 58.4965 17.8999 58.4255 17.7748C58.3546 17.6498 58.0365 18.0172 57.9602 18.0533C57.4618 18.4622 56.9956 18.9467 56.488 19.3295C55.9951 19.7029 55.4652 20.0243 54.9067 20.2886L54.7449 20.3665C53.9647 20.7108 53.1509 20.9723 52.3168 21.1466C50.4399 21.559 48.569 21.6517 46.6976 22.2756C44.4585 23.0659 42.4546 24.4132 40.8735 26.1913C39.1962 28.052 37.9156 30.2371 37.1105 32.6117L37.0728 32.7607C37.0819 32.8027 37.0614 32.8054 37.0643 32.7943C37.0597 32.839 37.0498 32.8831 37.0349 32.9256Z" fill="#9BA839"/>
<path d="M36.4355 32.8037C36.4502 32.8474 36.442 32.8948 36.447 32.9336C33.3979 31.0731 29.5597 31.1977 25.9769 31.0132C21.4658 30.8391 17.016 29.8891 12.8214 28.2047C8.80347 26.5244 5.84115 24.0101 4.05136 19.99C2.79824 17.1678 2.03389 13.9986 2.40778 10.9003C2.47545 10.1088 2.66186 9.33239 2.96068 8.59733C2.82559 8.98751 3.33568 10.2026 3.42798 10.5487C3.82753 11.981 4.30241 13.3913 4.85064 14.7736C5.99322 17.7369 7.85131 20.3706 10.2577 22.4378C16.1886 27.4966 24.4681 26.209 31.4467 28.6239C30.4511 27.6696 29.6053 26.9325 28.4614 26.6649C26.2425 26.1428 24.0648 26.1624 21.8487 25.7083C20.7822 25.4964 19.7472 25.1471 18.7693 24.669C17.9055 24.2389 17.1059 23.6891 16.3943 23.0356C15.8997 22.5926 15.455 22.0964 15.0684 21.5559C14.8203 21.1972 14.6001 20.8199 14.4097 20.4273C14.3059 20.2149 14.2033 20.0062 14.1043 19.7962C14.0651 19.6797 13.8874 19.4637 13.9486 19.3337C14.0097 19.2036 14.355 19.5455 14.4339 19.5758C14.9621 19.9453 15.464 20.3927 15.9993 20.7355C16.5194 21.0701 17.0723 21.35 17.6494 21.5708L17.8167 21.6361C18.621 21.9198 19.4523 22.1182 20.2973 22.2283C22.2003 22.4958 24.0728 22.4451 25.9864 22.9241C28.2794 23.5408 30.3805 24.7308 32.0931 26.3827C33.9077 28.1097 35.3518 30.1904 36.3361 32.4965L36.3852 32.6422C36.3793 32.6847 36.3999 32.6859 36.3962 32.675C36.4042 32.7193 36.4174 32.7625 36.4355 32.8037Z" fill="#9BA839"/>
</svg>
