<svg width="528" height="100" viewBox="0 0 528 100" fill="none" xmlns="http://www.w3.org/2000/svg">
<g clip-path="url(#clip0_175_342)">
<!-- <path d="M391.761 191.89V199.346H357.674V191.89H377.265V189.684C377.265 184.368 376.255 180.574 374.278 178.324C373.415 177.258 372.327 176.398 371.092 175.807C369.858 175.215 368.508 174.907 367.14 174.904H360.968L360.353 168.485C361.627 168.198 363.055 167.934 364.746 167.691C366.199 167.458 367.667 167.333 369.139 167.316C372.17 167.259 375.15 168.103 377.705 169.743C380.3 171.526 382.299 174.056 383.437 177C384.9 180.787 385.595 184.829 385.48 188.89V191.89H391.761Z" fill="#9BA839"/> -->
<!-- <path d="M391.761 191.89H407.135V199.346H391.761V191.89Z" fill="#9BA839"/> -->
<!-- <path d="M407.026 191.89H422.268V199.346H407.026V191.89Z" fill="#9BA839"/> -->
<!-- <path d="M422.268 191.89H437.511V199.346H422.268V191.89Z" fill="#9BA839"/> -->
<!-- <path d="M437.511 191.89H452.753V199.346H437.511V191.89Z" fill="#9BA839"/> -->
<!-- <path d="M486.731 169.588V199.346H452.753V191.89H459.342C458.624 189.125 458.276 186.276 458.31 183.419C458.151 180.379 458.747 177.347 460.045 174.596C461.195 172.493 463.069 170.885 465.316 170.074C468.324 169.074 471.485 168.618 474.651 168.728C477.643 168.703 480.635 168.843 483.612 169.147L486.731 169.588ZM465.316 155.382H471.598V163.037H465.316V155.382ZM466.854 188.735C467.052 189.684 467.337 190.743 467.689 191.89H478.67V176.272C476.869 176.14 475.464 176.074 474.453 176.074C472.789 175.987 471.124 176.234 469.555 176.801C469.033 177.058 468.569 177.42 468.191 177.864C467.814 178.308 467.53 178.824 467.359 179.382C466.64 182.448 466.528 185.626 467.03 188.735H466.854ZM474.585 155.382H480.867V163.037H474.585V155.382Z" fill="#9BA839"/>
<path d="M508.804 191.89V199.346H494.66V156.485H502.83V191.779L508.804 191.89Z" fill="#9BA839"/>
<path d="M526.067 168.728V199.346H508.804V191.89H517.897V168.728H526.067ZM518.314 155.074H525.826V163.037H518.314V155.074Z" fill="#9BA839"/>
<path d="M9.00485 265.169C7.40924 265.201 5.82645 264.877 4.37061 264.221C3.08625 263.661 1.9778 262.762 1.16404 261.618C0.384871 260.501 -0.022647 259.165 -8.80396e-05 257.801C-8.80396e-05 257.404 -8.80396e-05 256.875 -8.80396e-05 256.213C-8.80396e-05 255.551 0.13166 254.824 0.241477 254.007C0.351294 253.191 0.483171 252.375 0.614951 251.515C0.746732 250.654 0.856511 249.838 0.988292 249.044L4.91969 249.574C4.70006 250.919 4.52435 252.154 4.37061 253.257C4.21686 254.36 4.1071 255.309 4.01925 256.081C3.9314 256.853 4.01925 257.426 4.01925 257.801C3.99973 258.531 4.20692 259.248 4.61217 259.853C5.03827 260.467 5.6338 260.942 6.32538 261.221C7.18036 261.579 8.10084 261.751 9.02684 261.728C9.93685 261.756 10.8426 261.591 11.6845 261.243C12.3006 260.967 12.8152 260.504 13.156 259.919C13.4672 259.344 13.6261 258.699 13.6172 258.044V242.603H17.6146V258.044C17.6423 259.388 17.2506 260.707 16.4944 261.816C15.7234 262.912 14.6673 263.775 13.4415 264.309C12.0423 264.916 10.5284 265.209 9.00485 265.169ZM6.80851 241.61V238.213H10.8498V241.61H6.80851Z" fill="#0F1D3E"/>
<path d="M20.7994 265.169H19.9648H19.0203L19.174 261.75H20.0966H20.7335C21.0967 261.763 21.4574 261.685 21.7832 261.523C22.1091 261.361 22.3897 261.121 22.6003 260.824C23.0994 260.051 23.3451 259.141 23.3032 258.221V242.779H27.3005V258.221C27.3186 259.477 27.0322 260.718 26.4659 261.838C25.9771 262.851 25.2164 263.707 24.2695 264.309C23.2183 264.922 22.0142 265.221 20.7994 265.169Z" fill="#0F1D3E"/>
<path d="M31.9788 257.735V236.559H35.9541V257.735H31.9788ZM35.9541 257.735V254.382H39.4024V257.846L35.9541 257.735ZM39.3584 257.735V254.382C39.5781 254.382 39.7538 254.537 39.8197 254.846C39.9202 255.264 39.9645 255.694 39.9515 256.125C39.9609 256.548 39.9166 256.971 39.8197 257.382C39.7538 257.581 39.5781 257.735 39.4024 257.735H39.3584Z" fill="#0F1D3E"/>
<path d="M39.4022 257.735C39.1606 257.735 38.9849 257.581 38.919 257.272C38.8222 256.86 38.7778 256.438 38.7871 256.015C38.7741 255.584 38.8185 255.154 38.919 254.735C38.919 254.426 39.1606 254.272 39.4022 254.272V257.735ZM39.4022 257.735V254.382H53.327L52.0971 255.419V245.426L53.1073 246.287H49.3517C48.6554 246.255 47.96 246.368 47.3089 246.618C47.0554 246.73 46.8296 246.897 46.6474 247.106C46.4652 247.316 46.3311 247.563 46.2547 247.831C46.0238 248.641 45.92 249.482 45.9472 250.324C45.912 251.209 46.0158 252.095 46.2547 252.949C46.3326 253.207 46.468 253.445 46.6506 253.644C46.8332 253.842 47.0583 253.997 47.3089 254.096C47.9688 254.306 48.6596 254.403 49.3517 254.382V257.493C47.9256 257.54 46.505 257.293 45.1786 256.765C44.1274 256.349 43.2615 255.566 42.7407 254.559C42.1605 253.257 41.8897 251.837 41.9499 250.412C41.9076 248.995 42.1777 247.586 42.7407 246.287C43.2452 245.189 44.1044 244.295 45.1786 243.75C46.4808 243.131 47.9121 242.836 49.3517 242.89H56.0943V257.934L39.4022 257.735ZM46.3207 240.904V237.485H50.3839V240.904H46.3207ZM50.4059 240.904V237.485H54.4032V240.904H50.4059ZM56.0943 257.735V254.382H59.1692V257.846L56.0943 257.735ZM59.2352 257.735V254.382C59.4768 254.382 59.6305 254.537 59.7183 254.846C59.7621 255.271 59.7621 255.7 59.7183 256.125C59.7589 256.543 59.7589 256.964 59.7183 257.382C59.5865 257.581 59.4328 257.735 59.1692 257.735H59.2352Z" fill="#0F1D3E"/>
<path d="M58.4226 257.735C58.181 257.735 58.0053 257.581 57.9394 257.272C57.8425 256.86 57.7983 256.438 57.8076 256.015C57.7946 255.584 57.8389 255.154 57.9394 254.735C57.9394 254.426 58.181 254.272 58.4226 254.272V257.735ZM58.4226 257.735V254.382H73.9069L72.0839 255.926V250.412C72.1144 249.558 71.9879 248.705 71.7105 247.897C71.6077 247.606 71.445 247.339 71.2331 247.115C71.0213 246.891 70.7649 246.714 70.4806 246.596C69.6987 246.318 68.8714 246.19 68.0425 246.221C67.2414 246.224 66.4416 246.283 65.6486 246.397C65.0197 246.466 64.4007 246.606 63.8036 246.816L66.2855 244.478C66.1448 245.052 66.0349 245.634 65.9561 246.221C65.8463 246.926 65.7365 247.676 65.6706 248.426C65.5835 249.203 65.5395 249.983 65.5388 250.765C65.5388 251.449 65.5388 252.176 65.6486 252.971C65.7584 253.765 65.8023 254.404 65.8902 254.978C65.9416 255.379 66.0149 255.776 66.1097 256.169L62.3101 257.228C62.3101 256.941 62.1344 256.478 62.0246 255.838C61.8864 255.108 61.7837 254.372 61.7171 253.632C61.6292 252.75 61.5853 251.823 61.5853 250.853C61.5853 249.838 61.5853 248.89 61.7171 247.963C61.8488 247.037 61.9368 246.176 62.0686 245.448C62.2003 244.721 62.3101 244.081 62.4419 243.618C63.1589 243.383 63.8933 243.206 64.6382 243.088C65.7488 242.904 66.8731 242.815 67.9987 242.823C69.4978 242.78 70.9907 243.035 72.3914 243.574C73.5444 244.026 74.4905 244.89 75.0489 246C75.6841 247.38 75.9852 248.892 75.9274 250.412V257.801L58.4226 257.735ZM75.9933 257.735V254.382H79.156V257.846L75.9933 257.735ZM79.156 257.735V254.382C79.3976 254.382 79.5514 254.537 79.6393 254.846C79.694 255.27 79.694 255.7 79.6393 256.125C79.6907 256.542 79.6907 256.965 79.6393 257.382C79.5953 257.581 79.4416 257.735 79.2 257.735H79.156Z" fill="#0F1D3E"/>
<path d="M79.2 257.735C78.9511 257.735 78.7973 257.581 78.7387 257.272C78.6419 256.86 78.5976 256.438 78.607 256.015C78.5939 255.584 78.6382 255.154 78.7387 254.735C78.7387 254.427 78.8925 254.272 79.2 254.272V257.735ZM79.2 257.735V254.382H86.6676V257.846L79.2 257.735ZM86.6676 257.735V254.382C86.9092 254.382 87.0629 254.537 87.1508 254.846C87.1945 255.271 87.1945 255.7 87.1508 256.125C87.1913 256.543 87.1913 256.964 87.1508 257.382C87.0629 257.581 86.9092 257.735 86.6676 257.735Z" fill="#0F1D3E"/>
<path d="M86.6675 257.735C86.4259 257.735 86.2721 257.581 86.1842 257.272C86.1437 256.854 86.1437 256.433 86.1842 256.015C86.1404 255.589 86.1404 255.161 86.1842 254.735C86.1842 254.427 86.4259 254.272 86.6675 254.272V257.735ZM86.6675 257.735V254.382H94.1349V257.846L86.6675 257.735ZM94.1349 257.735V254.382C94.3546 254.382 94.5303 254.537 94.5962 254.846C94.6967 255.264 94.741 255.695 94.728 256.125C94.7374 256.548 94.6931 256.971 94.5962 257.382C94.5303 257.581 94.3107 257.735 94.1349 257.735Z" fill="#0F1D3E"/> -->
<!-- <path d="M94.135 257.735C93.8934 257.735 93.7177 257.581 93.6518 257.272C93.5549 256.86 93.5107 256.438 93.5201 256.015C93.507 255.584 93.5513 255.154 93.6518 254.735C93.6518 254.427 93.8934 254.272 94.135 254.272V257.735ZM94.135 257.735V254.382H101.581V257.846L94.135 257.735ZM101.581 257.735V254.382C101.822 254.382 101.976 254.537 102.064 254.846C102.144 255.267 102.181 255.696 102.174 256.125C102.178 256.547 102.141 256.968 102.064 257.382C101.976 257.581 101.822 257.735 101.581 257.735Z" fill="#0F1D3E"/>
<path d="M101.581 257.735C101.339 257.735 101.186 257.581 101.098 257.272C101.02 256.857 100.984 256.436 100.988 256.015C100.98 255.586 101.017 255.157 101.098 254.735C101.098 254.426 101.339 254.272 101.581 254.272V257.735ZM101.581 257.735V254.382H104.963V257.846L101.581 257.735ZM104.963 257.735V236.559H108.96V257.735H104.963Z" fill="#0F1D3E"/>
<path d="M113.727 257.735V236.559H117.702V257.735H113.727Z" fill="#0F1D3E"/>
<path d="M137.886 257.735C135.311 257.913 132.748 257.255 130.572 255.86C129.732 255.212 129.063 254.366 128.626 253.396C128.19 252.427 127.998 251.363 128.069 250.301C128.069 249.838 128.069 249.331 128.069 248.801C128.069 248.272 128.2 247.765 128.31 247.279C128.42 246.794 128.464 246.353 128.552 245.956C128.64 245.559 128.683 245.316 128.727 245.118L132.615 245.868C132.615 246.199 132.483 246.596 132.373 247.103C132.264 247.61 132.176 248.118 132.11 248.669C132.024 249.194 131.98 249.725 131.978 250.257C131.927 251.117 132.158 251.969 132.637 252.684C133.135 253.322 133.844 253.76 134.636 253.919C135.743 254.182 136.88 254.3 138.018 254.272H145.969V242.691H149.966V257.735H137.886ZM137.293 264.132V260.713H141.291V264.132H137.293Z" fill="#0F1D3E"/>
<path d="M153.085 257.735V254.382H163.913L161.189 256.588V251.559C161.238 250.438 161.09 249.318 160.75 248.25C160.637 247.894 160.452 247.565 160.206 247.284C159.961 247.003 159.66 246.776 159.322 246.618C158.462 246.253 157.532 246.087 156.599 246.132H154.183V242.691H156.599C158.205 242.652 159.801 242.96 161.277 243.596C162.544 244.195 163.573 245.205 164.198 246.463C164.92 248.076 165.259 249.836 165.187 251.603V257.735H153.085Z" fill="#0F1D3E"/>
<path d="M167.866 257.735V254.382H183.021L181.132 256.346V236.669H185.129V257.846L167.866 257.735ZM170.414 238.5V236.294H177.64V238.5H170.414ZM172.237 238.257C171.883 237.869 171.587 237.43 171.358 236.956C171.163 236.527 171.066 236.06 171.073 235.588C171.069 234.94 171.252 234.304 171.6 233.757C171.958 233.205 172.45 232.752 173.031 232.444C173.611 232.135 174.26 231.98 174.917 231.993C175.309 232.002 175.699 232.054 176.08 232.147C176.441 232.243 176.783 232.4 177.091 232.61L176.08 234.419C175.916 234.331 175.738 234.271 175.553 234.243C175.378 234.22 175.201 234.22 175.026 234.243C174.828 234.228 174.628 234.254 174.44 234.319C174.251 234.383 174.077 234.485 173.928 234.618C173.795 234.745 173.69 234.899 173.622 235.071C173.554 235.242 173.524 235.426 173.533 235.61C173.539 235.846 173.591 236.078 173.687 236.294C173.819 236.55 173.973 236.794 174.148 237.022L172.237 238.257ZM172.017 254.272V240.75H175.993V254.382L172.017 254.272ZM185.195 257.735V254.382H188.314V257.846L185.195 257.735ZM188.314 257.735V254.382C188.556 254.382 188.71 254.537 188.797 254.846C188.852 255.27 188.852 255.7 188.797 256.125C188.849 256.543 188.849 256.965 188.797 257.382C188.753 257.581 188.49 257.735 188.248 257.735H188.314Z" fill="#0F1D3E"/>
<path d="M188.248 257.735C188.007 257.735 187.853 257.581 187.765 257.272C187.724 256.854 187.724 256.433 187.765 256.015C187.721 255.589 187.721 255.161 187.765 254.735C187.765 254.427 188.007 254.272 188.248 254.272V257.735ZM188.248 257.735V254.382H195.716V257.846L188.248 257.735ZM195.716 257.735V254.382C195.965 254.382 196.118 254.537 196.177 254.846C196.278 255.264 196.322 255.695 196.309 256.125C196.318 256.548 196.274 256.971 196.177 257.382C196.118 257.618 195.965 257.735 195.716 257.735Z" fill="#0F1D3E"/>
<path d="M195.716 257.735C195.474 257.735 195.321 257.581 195.233 257.272C195.145 256.859 195.108 256.437 195.123 256.015C195.105 255.585 195.141 255.155 195.233 254.735C195.233 254.427 195.474 254.272 195.716 254.272V257.735ZM195.716 257.735V254.382H203.162V257.846L195.716 257.735ZM203.162 257.735V254.382C203.403 254.382 203.557 254.537 203.645 254.846C203.745 255.264 203.79 255.695 203.777 256.125C203.786 256.548 203.742 256.971 203.645 257.382C203.557 257.581 203.403 257.735 203.162 257.735Z" fill="#0F1D3E"/>
<path d="M203.161 257.735C202.927 257.735 202.773 257.581 202.7 257.272C202.603 256.86 202.559 256.438 202.568 256.015C202.555 255.584 202.6 255.154 202.7 254.735C202.7 254.427 202.854 254.272 203.161 254.272V257.735ZM203.161 257.735V254.382H210.717V257.846L203.161 257.735ZM210.629 257.735V254.382C210.871 254.382 211.024 254.537 211.112 254.846C211.193 255.267 211.229 255.696 211.222 256.125C211.226 256.547 211.189 256.968 211.112 257.382C211.024 257.581 210.871 257.735 210.717 257.735H210.629Z" fill="#0F1D3E"/>
<path d="M210.717 257.735C210.475 257.735 210.322 257.581 210.234 257.272C210.193 256.854 210.193 256.433 210.234 256.015C210.19 255.589 210.19 255.161 210.234 254.735C210.234 254.427 210.475 254.272 210.717 254.272V257.735ZM210.717 257.735V254.382H218.185V257.846L210.717 257.735ZM218.185 257.735V254.382C218.404 254.382 218.58 254.537 218.646 254.846C218.746 255.264 218.79 255.695 218.777 256.125C218.787 256.548 218.743 256.971 218.646 257.382C218.492 257.581 218.316 257.735 218.097 257.735H218.185Z" fill="#0F1D3E"/>
<path d="M218.096 257.735C217.855 257.735 217.679 257.581 217.613 257.272C217.516 256.86 217.472 256.438 217.481 256.015C217.468 255.584 217.513 255.154 217.613 254.735C217.613 254.426 217.855 254.272 218.096 254.272V257.735ZM218.096 257.735V254.382H221.457V257.846L218.096 257.735ZM221.457 257.735V236.559H225.454V257.735H221.457Z" fill="#0F1D3E"/>
<path d="M240.367 257.735C238.935 257.786 237.509 257.515 236.194 256.941C235.125 256.421 234.264 255.549 233.756 254.471C233.187 253.157 232.917 251.733 232.966 250.301C232.919 248.863 233.189 247.432 233.756 246.11C234.254 245.003 235.114 244.099 236.194 243.551C237.496 242.933 238.928 242.638 240.367 242.691H247.11V255.926H243.113V245.382L244.101 246.243H240.367C239.696 246.217 239.027 246.314 238.39 246.529C238.136 246.632 237.907 246.79 237.721 246.992C237.535 247.194 237.396 247.436 237.314 247.699C237.037 248.559 236.918 249.464 236.963 250.368C236.93 251.239 237.034 252.11 237.27 252.949C237.356 253.202 237.497 253.432 237.684 253.623C237.87 253.814 238.097 253.96 238.347 254.051C238.997 254.272 239.682 254.369 240.367 254.338H250.251V257.801L240.367 257.735ZM236.721 240.904V237.485H240.719V240.904H236.721ZM240.807 240.904V237.485H244.804V240.904H240.807ZM250.251 257.735V254.382C250.485 254.382 250.639 254.537 250.712 254.846C250.813 255.264 250.857 255.695 250.844 256.125C250.853 256.548 250.809 256.971 250.712 257.382C250.653 257.618 250.5 257.735 250.251 257.735Z" fill="#0F1D3E"/>
<path d="M249.021 257.735C248.779 257.735 248.626 257.581 248.538 257.272C248.461 256.858 248.424 256.436 248.428 256.015C248.421 255.586 248.457 255.157 248.538 254.735C248.538 254.426 248.779 254.272 249.021 254.272V257.735ZM249.021 257.735V254.382H256.093L253.765 256.324V242.691H257.74V257.735H249.021ZM250.207 263.978V260.559H254.204V263.978H250.207ZM254.292 263.978V260.559H258.289V263.978H254.292Z" fill="#0F1D3E"/>
<path d="M260.442 257.735V254.382H271.27L268.568 256.588V251.559C268.606 250.439 268.458 249.321 268.129 248.25C268.012 247.896 267.826 247.568 267.581 247.288C267.335 247.007 267.036 246.78 266.701 246.618C265.841 246.253 264.911 246.087 263.978 246.132H261.562V242.691H263.978C265.577 242.648 267.166 242.957 268.634 243.596C269.91 244.182 270.943 245.196 271.555 246.463C272.298 248.07 272.645 249.833 272.566 251.603V257.735H260.442Z" fill="#0F1D3E"/>
<path d="M281.329 265.169C280.595 265.165 279.861 265.113 279.133 265.015C278.32 265.015 277.464 264.75 276.541 264.574L277.156 261.375L279.682 261.64C280.385 261.64 280.978 261.64 281.439 261.64C282.534 261.728 283.629 261.457 284.558 260.868C284.884 260.577 285.138 260.215 285.302 259.809C285.466 259.404 285.534 258.966 285.502 258.529V245.294L286.491 246.022H282.757C282.086 245.997 281.416 246.094 280.78 246.309C280.526 246.411 280.297 246.569 280.111 246.771C279.924 246.974 279.785 247.215 279.704 247.478C279.426 248.339 279.307 249.243 279.353 250.147C279.32 251.018 279.424 251.889 279.66 252.728C279.746 252.981 279.887 253.211 280.073 253.402C280.26 253.593 280.486 253.74 280.736 253.831C281.386 254.051 282.071 254.148 282.757 254.118H285.392V257.581H282.647C281.214 257.632 279.789 257.36 278.474 256.787C277.404 256.267 276.544 255.395 276.036 254.316C275.467 253.003 275.197 251.579 275.245 250.147C275.199 248.709 275.469 247.278 276.036 245.956C276.534 244.848 277.394 243.945 278.474 243.397C279.776 242.778 281.207 242.483 282.647 242.537H289.39V258.463C289.419 259.706 289.075 260.928 288.401 261.971C287.691 262.958 286.716 263.723 285.59 264.177C284.251 264.791 282.801 265.129 281.329 265.169ZM289.39 257.735V254.382H292.531V257.846L289.39 257.735ZM292.531 257.735V254.382C292.765 254.382 292.919 254.537 292.992 254.846C293.092 255.264 293.137 255.695 293.124 256.125C293.133 256.548 293.089 256.971 292.992 257.382C292.933 257.618 292.779 257.735 292.531 257.735Z" fill="#0F1D3E"/>
<path d="M292.53 257.735C292.289 257.735 292.135 257.581 292.047 257.272C291.95 256.86 291.906 256.438 291.915 256.015C291.902 255.584 291.947 255.154 292.047 254.735C292.047 254.426 292.289 254.272 292.53 254.272V257.735ZM292.53 257.735V254.382H298.856C299.701 254.38 300.538 254.208 301.316 253.875C302.107 253.551 302.847 253.112 303.512 252.573C304.169 252.036 304.758 251.421 305.269 250.743C305.752 250.11 306.157 249.421 306.477 248.691C306.743 248.063 306.885 247.389 306.894 246.706V244.787L308.805 247.963C307.803 247.423 306.741 247.002 305.642 246.706C304.64 246.432 303.606 246.291 302.568 246.287C301.536 246.295 300.51 246.436 299.515 246.706C298.43 246.935 297.376 247.29 296.374 247.765L298.285 244.588V246.507C298.292 247.193 298.442 247.869 298.724 248.493C299.036 249.217 299.426 249.905 299.888 250.544C300.405 251.218 300.994 251.832 301.645 252.375C302.318 252.903 303.056 253.341 303.842 253.676C304.613 254.007 305.441 254.179 306.279 254.184H312.429V257.647H307.531C306.034 257.666 304.546 257.412 303.139 256.897C301.82 256.431 300.583 255.762 299.471 254.912C298.418 254.121 297.466 253.202 296.637 252.176C295.907 251.277 295.301 250.283 294.836 249.221C294.453 248.366 294.244 247.444 294.222 246.507V244.809C295.09 244.32 296.002 243.914 296.945 243.596C297.895 243.291 298.863 243.048 299.844 242.868C300.72 242.7 301.61 242.611 302.502 242.603C303.408 242.61 304.312 242.698 305.203 242.868C306.176 243.05 307.137 243.294 308.08 243.596C309.024 243.914 309.936 244.32 310.804 244.809V246.507C310.781 247.444 310.572 248.366 310.189 249.221C309.724 250.288 309.111 251.283 308.366 252.176C307.551 253.207 306.606 254.126 305.555 254.912C304.44 255.757 303.203 256.427 301.887 256.897C300.48 257.412 298.991 257.666 297.494 257.647L292.53 257.735ZM312.451 257.735V254.382C312.693 254.382 312.846 254.537 312.934 254.846C313.015 255.267 313.052 255.696 313.044 256.125C313.048 256.547 313.012 256.968 312.934 257.382C312.846 257.581 312.693 257.735 312.451 257.735Z" fill="#0F1D3E"/>
<path d="M312.451 257.735C312.21 257.735 312.056 257.581 311.968 257.272C311.891 256.857 311.854 256.436 311.858 256.015C311.851 255.586 311.888 255.157 311.968 254.735C311.968 254.426 312.21 254.272 312.451 254.272V257.735ZM312.451 257.735V254.382H316.844L315.966 255.309V245.868H319.963V257.846L312.451 257.735ZM319.919 257.735V254.382H322.335C322.834 254.405 323.331 254.306 323.784 254.096C323.979 253.963 324.142 253.79 324.264 253.588C324.385 253.387 324.461 253.161 324.487 252.926C324.641 252.053 324.708 251.166 324.685 250.279V244.368H328.682V250.279C328.742 251.78 328.511 253.279 328.002 254.691C327.622 255.726 326.891 256.594 325.937 257.14C324.822 257.702 323.582 257.968 322.335 257.912L319.919 257.735ZM330 257.735C329.166 257.731 328.34 257.574 327.562 257.272C326.75 256.951 326.005 256.48 325.366 255.882L327.804 253.346C328.147 253.626 328.523 253.863 328.924 254.051C329.274 254.19 329.646 254.265 330.022 254.272H335.601L333.536 256.147V249.529C333.536 249.199 333.536 248.713 333.536 248.074C333.536 247.434 333.382 246.684 333.251 245.868C333.119 245.051 332.965 244.213 332.79 243.353L336.721 242.735C336.853 243.463 336.984 244.257 337.116 245.162C337.248 246.066 337.358 246.882 337.468 247.676C337.578 248.471 337.622 249.088 337.622 249.551V257.779L330 257.735ZM337.49 257.735V254.382H340.652V257.846L337.49 257.735ZM340.652 257.735V254.382C340.901 254.382 341.055 254.537 341.114 254.846C341.214 255.264 341.258 255.694 341.245 256.125C341.255 256.548 341.21 256.971 341.114 257.382C341.055 257.618 340.901 257.735 340.652 257.735Z" fill="#0F1D3E"/>
<path d="M340.652 257.735C340.411 257.735 340.257 257.581 340.169 257.272C340.081 256.859 340.044 256.437 340.059 256.015C340.041 255.585 340.078 255.155 340.169 254.735C340.169 254.427 340.411 254.272 340.652 254.272V257.735ZM340.652 257.735V254.382H348.098V257.846L340.652 257.735ZM348.098 257.735V254.382C348.339 254.382 348.493 254.537 348.581 254.846C348.672 255.266 348.709 255.696 348.691 256.125C348.706 256.547 348.669 256.969 348.581 257.382C348.493 257.581 348.339 257.735 348.098 257.735Z" fill="#0F1D3E"/>
<path d="M348.098 257.735C347.864 257.735 347.71 257.581 347.637 257.272C347.54 256.86 347.496 256.438 347.505 256.015C347.492 255.584 347.536 255.154 347.637 254.735C347.637 254.427 347.79 254.272 348.098 254.272V257.735ZM348.098 257.735V254.382H355.675V257.846L348.098 257.735ZM355.565 257.735V254.382C355.807 254.382 355.961 254.537 356.049 254.846C356.129 255.267 356.166 255.696 356.158 256.125C356.163 256.547 356.126 256.968 356.049 257.382C355.961 257.581 355.807 257.735 355.675 257.735H355.565Z" fill="#0F1D3E"/>
<path d="M355.675 257.735C355.434 257.735 355.28 257.581 355.192 257.272C355.115 256.858 355.078 256.436 355.082 256.015C355.075 255.586 355.112 255.157 355.192 254.735C355.192 254.427 355.434 254.272 355.675 254.272V257.735ZM355.675 257.735V254.382H363.143V257.846L355.675 257.735ZM363.143 257.735V254.382C363.363 254.382 363.538 254.537 363.604 254.846C363.705 255.264 363.749 255.695 363.736 256.125C363.745 256.548 363.701 256.971 363.604 257.382C363.428 257.581 363.253 257.735 363.033 257.735H363.143Z" fill="#0F1D3E"/>
<path d="M363.033 257.735C362.791 257.735 362.616 257.581 362.55 257.272C362.453 256.86 362.409 256.438 362.418 256.015C362.405 255.584 362.449 255.154 362.55 254.735C362.55 254.427 362.791 254.272 363.033 254.272V257.735ZM363.033 257.735V254.382H370.479V257.846L363.033 257.735ZM370.479 257.735V254.382C370.72 254.382 370.874 254.537 370.962 254.846C371.006 255.271 371.006 255.7 370.962 256.125C371.002 256.543 371.002 256.964 370.962 257.382C370.874 257.581 370.72 257.735 370.479 257.735Z" fill="#0F1D3E"/>
<path d="M370.478 257.735C370.237 257.735 370.083 257.581 369.995 257.272C369.955 256.854 369.955 256.433 369.995 256.015C369.951 255.589 369.951 255.161 369.995 254.735C369.995 254.426 370.237 254.272 370.478 254.272V257.735ZM370.478 257.735V254.382H373.861V257.846L370.478 257.735ZM373.861 257.735V236.559H377.858V257.735H373.861Z" fill="#0F1D3E"/>
<path d="M382.624 257.735V236.559H386.6V257.735H382.624Z" fill="#0F1D3E"/>
<path d="M404.368 257.735C402.935 257.786 401.51 257.515 400.195 256.941C399.125 256.421 398.265 255.549 397.757 254.471C397.188 253.157 396.917 251.733 396.966 250.301C396.92 248.863 397.19 247.432 397.757 246.11C398.255 245.003 399.115 244.099 400.195 243.551C401.497 242.933 402.928 242.638 404.368 242.691H411.111V255.926H407.113V245.382L408.102 246.243H404.368C403.704 246.215 403.041 246.312 402.413 246.529C402.154 246.628 401.92 246.784 401.73 246.986C401.539 247.189 401.398 247.433 401.315 247.699C401.049 248.562 400.93 249.464 400.964 250.368C400.925 251.241 401.037 252.114 401.293 252.949C401.371 253.202 401.507 253.434 401.69 253.626C401.873 253.817 402.098 253.963 402.347 254.051C402.998 254.272 403.683 254.369 404.368 254.338H414.251V257.801L404.368 257.735ZM400.722 240.904V237.485H404.719V240.904H400.722ZM404.829 240.904V237.485H408.827V240.904H404.829ZM414.251 257.735V254.382C414.493 254.382 414.647 254.537 414.735 254.846C414.815 255.267 414.852 255.696 414.845 256.125C414.849 256.547 414.812 256.968 414.735 257.382C414.647 257.581 414.493 257.735 414.251 257.735Z" fill="#0F1D3E"/>
<path d="M413.022 257.735C412.78 257.735 412.626 257.581 412.538 257.272C412.498 256.854 412.498 256.433 412.538 256.015C412.495 255.589 412.495 255.161 412.538 254.735C412.538 254.426 412.78 254.272 413.022 254.272V257.735ZM413.022 257.735V254.382H420.094L417.766 256.324V242.691H421.741V257.735H413.022ZM414.208 263.978V260.559H418.205V263.978H414.208ZM418.315 263.978V260.559H422.312V263.978H418.315ZM421.741 257.735V254.382H425.475V257.846L421.741 257.735ZM425.475 257.735V254.382C425.695 254.382 425.87 254.537 425.936 254.846C426.037 255.264 426.081 255.695 426.068 256.125C426.077 256.548 426.033 256.971 425.936 257.382C425.958 257.581 425.695 257.735 425.475 257.735Z" fill="#0F1D3E"/>
<path d="M421.785 257.735C421.565 257.735 421.39 257.581 421.324 257.272C421.227 256.86 421.183 256.438 421.192 256.015C421.179 255.584 421.223 255.154 421.324 254.735C421.324 254.426 421.565 254.272 421.785 254.272V257.735ZM421.785 257.735V254.382H428.154C429.007 254.38 429.851 254.208 430.636 253.875C431.425 253.546 432.164 253.108 432.832 252.574C433.484 252.03 434.073 251.416 434.59 250.743C435.066 250.109 435.464 249.42 435.776 248.691C436.058 248.067 436.208 247.391 436.215 246.706V244.787L438.126 247.963C437.123 247.423 436.062 247.002 434.963 246.706C432.958 246.147 430.84 246.147 428.835 246.706C427.742 246.998 426.688 247.42 425.694 247.963L427.605 244.787V246.706C427.615 247.389 427.757 248.063 428.023 248.691C428.334 249.42 428.732 250.109 429.208 250.743C429.719 251.421 430.309 252.036 430.966 252.574C431.635 253.106 432.374 253.544 433.162 253.875C433.933 254.205 434.762 254.378 435.6 254.382H441.75V257.846H436.94C435.442 257.868 433.953 257.614 432.547 257.096C431.227 256.633 429.989 255.963 428.879 255.11C427.783 254.264 426.801 253.277 425.958 252.176C425.228 251.277 424.622 250.283 424.157 249.221C423.774 248.366 423.565 247.444 423.542 246.507V244.809C424.41 244.32 425.322 243.914 426.265 243.596C427.215 243.291 428.184 243.048 429.165 242.868C430.926 242.515 432.74 242.515 434.502 242.868C435.483 243.048 436.451 243.291 437.401 243.596C438.343 243.918 439.254 244.324 440.124 244.809V246.507C440.093 247.445 439.877 248.367 439.487 249.221C439.031 250.287 438.425 251.283 437.686 252.176C436.866 253.202 435.921 254.121 434.875 254.912C433.76 255.757 432.523 256.427 431.207 256.897C429.8 257.411 428.312 257.665 426.815 257.647L421.785 257.735ZM441.728 257.735V254.382C441.969 254.382 442.123 254.537 442.211 254.846C442.291 255.267 442.328 255.696 442.321 256.125C442.325 256.547 442.288 256.968 442.211 257.382C442.123 257.581 441.969 257.735 441.728 257.735Z" fill="#0F1D3E"/>
<path d="M441.728 257.735C441.486 257.735 441.333 257.581 441.245 257.272C441.167 256.858 441.131 256.436 441.135 256.015C441.127 255.586 441.164 255.157 441.245 254.735C441.245 254.427 441.486 254.272 441.728 254.272V257.735ZM441.728 257.735V254.382H457.212L455.389 255.927V250.412C455.426 249.559 455.307 248.707 455.038 247.897C454.932 247.604 454.767 247.336 454.551 247.111C454.335 246.887 454.074 246.711 453.786 246.596C453.012 246.316 452.192 246.188 451.37 246.221C450.561 246.223 449.754 246.282 448.954 246.397C448.332 246.465 447.72 246.606 447.131 246.816L449.591 244.478C449.591 244.941 449.371 245.537 449.261 246.221C449.151 246.904 449.064 247.677 448.976 248.427C448.896 249.203 448.859 249.984 448.866 250.765C448.866 251.449 448.866 252.177 448.866 252.971C448.866 253.765 449.02 254.404 449.107 254.978C449.195 255.552 449.283 255.949 449.327 256.169L445.549 257.228C445.549 256.941 445.374 256.478 445.242 255.838C445.11 255.199 445.022 254.449 444.934 253.632C444.847 252.816 444.803 251.824 444.803 250.853C444.797 249.888 444.848 248.923 444.956 247.963C444.956 247.037 445.154 246.177 445.286 245.449C445.418 244.721 445.549 244.081 445.659 243.618C446.376 243.383 447.111 243.206 447.856 243.088C448.973 242.903 450.105 242.814 451.238 242.824C452.737 242.783 454.229 243.037 455.631 243.574C456.78 244.032 457.725 244.894 458.288 246C458.913 247.384 459.214 248.893 459.167 250.412V257.802L441.728 257.735ZM459.298 257.735V254.382H462.461V257.846L459.298 257.735ZM462.461 257.735V254.382C462.71 254.382 462.864 254.537 462.923 254.846C463.023 255.264 463.067 255.695 463.054 256.125C463.064 256.548 463.019 256.971 462.923 257.382C462.908 257.618 462.776 257.735 462.527 257.735H462.461Z" fill="#0F1D3E"/>
<path d="M462.527 257.735C462.285 257.735 462.132 257.581 462.044 257.272C461.947 256.86 461.903 256.438 461.912 256.015C461.899 255.584 461.943 255.154 462.044 254.735C462.044 254.427 462.285 254.272 462.527 254.272V257.735ZM462.527 257.735V254.382H475.353L474.014 255.485V249.949C474.049 249.437 473.967 248.924 473.773 248.449C473.578 247.975 473.277 247.552 472.894 247.213C471.853 246.511 470.607 246.185 469.358 246.287C468.896 246.287 468.259 246.287 467.469 246.397C466.678 246.507 465.821 246.574 464.877 246.706L464.482 243.529C465.338 243.331 466.217 243.154 467.095 243.022C467.96 242.884 468.833 242.81 469.709 242.801C471.218 242.759 472.718 243.053 474.102 243.662C475.277 244.189 476.282 245.038 477.001 246.11C477.728 247.254 478.096 248.592 478.055 249.949V257.846L462.527 257.735ZM468.281 264.132V260.713H472.279V264.132H468.281ZM477.967 257.735V254.382H481.13V257.846L477.967 257.735ZM481.13 257.735V254.382C481.35 254.382 481.503 254.537 481.591 254.846C481.692 255.264 481.736 255.695 481.723 256.125C481.732 256.548 481.688 256.971 481.591 257.382C481.503 257.618 481.35 257.735 481.13 257.735Z" fill="#0F1D3E"/>
<path d="M481.13 257.735C480.881 257.735 480.727 257.581 480.669 257.272C480.572 256.86 480.528 256.438 480.537 256.015C480.524 255.584 480.568 255.154 480.669 254.735C480.669 254.427 480.823 254.272 481.13 254.272V257.735ZM481.13 257.735V254.382H488.598V257.846L481.13 257.735ZM488.598 257.735V254.382C488.839 254.382 488.993 254.537 489.081 254.846C489.125 255.271 489.125 255.7 489.081 256.125C489.121 256.543 489.121 256.964 489.081 257.382C488.993 257.581 488.839 257.735 488.598 257.735Z" fill="#0F1D3E"/>
<path d="M488.598 257.735C488.356 257.735 488.202 257.581 488.115 257.272C488.074 256.854 488.074 256.433 488.115 256.015C488.071 255.589 488.071 255.161 488.115 254.735C488.115 254.427 488.356 254.272 488.598 254.272V257.735ZM488.598 257.735V254.382H496.043V257.846L488.598 257.735ZM496.043 257.735V254.382C496.285 254.382 496.461 254.537 496.527 254.846C496.627 255.264 496.671 255.695 496.658 256.125C496.668 256.548 496.623 256.971 496.527 257.382C496.461 257.581 496.241 257.735 496.043 257.735Z" fill="#0F1D3E"/>
<path d="M496.044 257.735C495.824 257.735 495.648 257.581 495.582 257.272C495.485 256.86 495.441 256.438 495.45 256.015C495.437 255.584 495.482 255.154 495.582 254.735C495.582 254.427 495.824 254.272 496.044 254.272V257.735ZM496.044 257.735V254.382H503.511V257.846L496.044 257.735ZM503.511 257.735V254.382C503.753 254.382 503.906 254.537 503.994 254.846C504.038 255.271 504.038 255.7 503.994 256.125C504.035 256.543 504.035 256.964 503.994 257.382C503.906 257.581 503.753 257.735 503.511 257.735Z" fill="#0F1D3E"/>
<path d="M503.511 257.735C503.27 257.735 503.116 257.581 503.028 257.272C502.987 256.854 502.987 256.433 503.028 256.015C502.984 255.589 502.984 255.161 503.028 254.735C503.028 254.427 503.27 254.272 503.511 254.272V257.735ZM503.511 257.735V254.382H510.978V257.846L503.511 257.735ZM510.978 257.735V254.382C511.213 254.382 511.367 254.537 511.44 254.846C511.54 255.264 511.585 255.695 511.572 256.125C511.581 256.548 511.537 256.971 511.44 257.382C511.381 257.618 511.227 257.735 510.978 257.735Z" fill="#0F1D3E"/>
<path d="M510.978 257.735C510.737 257.735 510.583 257.581 510.495 257.272C510.398 256.86 510.354 256.438 510.364 256.015C510.351 255.584 510.395 255.154 510.495 254.735C510.495 254.426 510.737 254.272 510.978 254.272V257.735ZM510.978 257.735V254.382H514.339V257.846L510.978 257.735ZM514.339 257.735V236.559H518.336V257.735H514.339Z" fill="#0F1D3E"/>
<path d="M523.124 257.735V236.559H527.078V257.735H523.124Z" fill="#0F1D3E"/> -->
<!-- <path d="M5.44686 296.294L4.37068 296.096L4.78799 292.875C6.81799 293.18 8.86423 293.364 10.9159 293.426C13.0243 293.426 14.0785 292.544 14.0785 290.779C14.1036 290.462 14.0386 290.145 13.8908 289.864C13.743 289.582 13.5187 289.349 13.244 289.191C12.3579 288.709 11.4127 288.346 10.4326 288.11C9.13662 287.782 7.88882 287.285 6.72078 286.632C5.90189 286.183 5.21891 285.52 4.74402 284.713C4.30311 283.864 4.09117 282.913 4.12911 281.956C4.07059 281.113 4.20439 280.267 4.52028 279.483C4.83618 278.7 5.32588 277.999 5.95211 277.434C7.41831 276.319 9.23447 275.771 11.0695 275.89C11.958 275.896 12.8455 275.955 13.7271 276.066C14.6496 276.176 15.9235 276.375 17.7684 276.706L17.4389 279.971C14.6935 279.662 12.7167 279.485 11.4868 279.485C9.29046 279.485 8.23626 280.213 8.23626 281.691C8.22734 281.923 8.27002 282.155 8.3612 282.368C8.45237 282.582 8.58973 282.773 8.76336 282.926C9.15419 283.276 9.60927 283.546 10.1031 283.721C10.6522 283.941 11.5528 284.25 12.8267 284.647C13.9472 284.97 15.024 285.429 16.0332 286.015C16.7302 286.446 17.2932 287.065 17.6585 287.801C18.0419 288.668 18.2223 289.611 18.1857 290.559C18.242 291.456 18.0997 292.354 17.7694 293.189C17.439 294.025 16.9286 294.776 16.2748 295.39C14.8389 296.574 13.0123 297.172 11.1574 297.066C9.23259 297.006 7.31892 296.748 5.44686 296.294Z" fill="#0F1D3E"/> -->
<!-- <path d="M20.1404 292.147C20.0814 291.526 20.1634 290.9 20.3802 290.315C20.5971 289.731 20.9431 289.203 21.3923 288.772C22.5566 287.956 23.9483 287.531 25.3677 287.559L28.5744 287.316V286.39C28.5996 286.161 28.5775 285.929 28.5095 285.709C28.4415 285.488 28.329 285.285 28.1791 285.11C27.776 284.846 27.2975 284.722 26.8174 284.757C26.1585 284.757 25.258 284.757 24.0939 284.757C22.9299 284.757 21.8976 284.757 21.1947 284.912L21.0848 282.11C23.0671 281.56 25.1122 281.271 27.1687 281.25C28.6452 281.113 30.1191 281.538 31.2978 282.441C31.7627 282.962 32.1157 283.574 32.3349 284.238C32.5541 284.902 32.6347 285.605 32.5718 286.301V292.544C32.5771 292.899 32.6675 293.247 32.8353 293.559C33.0227 293.769 33.2808 293.903 33.5601 293.934L33.4502 296.978C32.6244 297.002 31.7987 296.928 30.9903 296.757C30.3328 296.604 29.7129 296.319 29.1675 295.919C27.8029 296.604 26.3003 296.966 24.7748 296.978C21.6999 297.066 20.1404 295.434 20.1404 292.147ZM28.1351 293.426H28.5744V290.206L25.851 290.449C25.6182 290.441 25.3866 290.483 25.1717 290.573C24.9568 290.663 24.7636 290.799 24.6053 290.97C24.4471 291.142 24.3273 291.346 24.2543 291.568C24.1812 291.79 24.1564 292.025 24.1817 292.257C24.1817 293.36 24.6649 293.912 25.6532 293.912C26.498 293.859 27.3324 293.696 28.1351 293.426Z" fill="#0F1D3E"/>
<path d="M38.2383 296.294C37.4667 295.693 36.924 294.844 36.701 293.89C36.3573 292.446 36.2095 290.962 36.2617 289.478V281.603H40.259V289.676C40.2366 290.481 40.2881 291.286 40.4128 292.081C40.432 292.298 40.4967 292.508 40.6027 292.698C40.7087 292.889 40.8535 293.054 41.0277 293.184C41.4517 293.435 41.9422 293.551 42.4334 293.515C42.8544 293.519 43.2745 293.475 43.6853 293.382C44.0367 293.382 44.5639 293.162 45.2228 292.963V281.735H49.22V296.757H45.2446V295.897C44.5538 296.302 43.8162 296.621 43.0483 296.846C42.4418 297.023 41.8132 297.112 41.1814 297.11C40.1412 297.14 39.116 296.856 38.2383 296.294Z" fill="#0F1D3E"/>
<path d="M53.5248 295.169C52.6253 293.313 52.1707 291.27 52.1974 289.206C52.2241 287.141 52.7313 285.112 53.6786 283.279C54.2279 282.61 54.9303 282.084 55.7257 281.746C56.5211 281.408 57.3861 281.268 58.247 281.338C59.3842 281.382 60.5157 281.522 61.6293 281.757V275.691H65.6267V296.713H61.6513V296.074C60.9473 296.405 60.2113 296.664 59.4549 296.846C58.8884 296.994 58.3053 297.068 57.7199 297.066C56.9192 297.121 56.1174 296.977 55.3856 296.646C54.6538 296.315 54.0146 295.808 53.5248 295.169ZM61.212 293.096H61.6293V285.199C60.7538 285.023 59.8643 284.927 58.9717 284.912C58.5678 284.873 58.1611 284.947 57.7967 285.126C57.4323 285.305 57.1244 285.582 56.9071 285.927C56.4032 287.015 56.184 288.215 56.2702 289.412C56.1929 290.509 56.3892 291.608 56.8413 292.61C57.0438 292.928 57.3288 293.184 57.6655 293.351C58.0022 293.519 58.3778 293.59 58.7521 293.559C59.5883 293.51 60.4149 293.354 61.212 293.096Z" fill="#0F1D3E"/>
<path d="M69.3384 275.735H73.3357V279.772H69.3384V275.735ZM69.3384 281.691H73.3357V296.713H69.3384V281.691Z" fill="#0F1D3E"/>
<path d="M84.1858 296.294L83.1096 296.096L83.5269 292.875C85.5567 293.182 87.6029 293.366 89.6546 293.426C91.7631 293.426 92.8174 292.544 92.8174 290.779C92.8374 290.463 92.77 290.147 92.6227 289.867C92.4755 289.587 92.254 289.353 91.9827 289.191C91.0949 288.713 90.1502 288.35 89.1714 288.11C87.8738 287.787 86.6254 287.29 85.4595 286.632C84.631 286.196 83.9449 285.53 83.4829 284.713C83.042 283.864 82.8299 282.913 82.8679 281.956C82.8094 281.113 82.9432 280.267 83.2591 279.483C83.5749 278.7 84.0647 277.999 84.6909 277.434C86.1503 276.323 87.9586 275.775 89.7864 275.89C90.6823 275.896 91.5769 275.955 92.4659 276.066C93.3664 276.176 94.6623 276.375 96.4852 276.706L96.1558 279.971C93.4324 279.662 91.4557 279.485 90.2257 279.485C88.0294 279.485 86.9532 280.213 86.9532 281.691C86.9437 281.926 86.9882 282.159 87.0835 282.373C87.1787 282.588 87.3221 282.777 87.5023 282.926C87.8895 283.281 88.3457 283.552 88.842 283.721C89.3691 283.941 90.2916 284.25 91.5654 284.647C92.6792 284.969 93.7489 285.428 94.7502 286.015C95.4607 286.437 96.0332 287.057 96.3974 287.801C96.7725 288.67 96.9452 289.613 96.9025 290.559C96.957 291.454 96.8162 292.35 96.4899 293.184C96.1636 294.018 95.6599 294.771 95.0137 295.39C93.5757 296.57 91.7505 297.168 89.8962 297.066C87.9713 297.008 86.0576 296.749 84.1858 296.294Z" fill="#0F1D3E"/>
<path d="M100.9 295.015C99.6481 293.335 99.033 291.263 99.1649 289.169C99.0273 287.095 99.6438 285.041 100.9 283.39C102.286 282.074 104.121 281.341 106.028 281.341C107.936 281.341 109.771 282.074 111.157 283.39C112.413 285.041 113.03 287.095 112.892 289.169C113.024 291.263 112.409 293.335 111.157 295.015C109.771 296.33 107.936 297.063 106.028 297.063C104.121 297.063 102.286 296.33 100.9 295.015ZM108.148 292.588C108.686 291.534 108.921 290.35 108.829 289.169C108.924 287.995 108.688 286.818 108.148 285.772C107.893 285.454 107.57 285.198 107.203 285.022C106.836 284.846 106.435 284.754 106.028 284.754C105.622 284.754 105.221 284.846 104.854 285.022C104.487 285.198 104.164 285.454 103.909 285.772C103.369 286.818 103.133 287.995 103.228 289.169C103.135 290.35 103.371 291.534 103.909 292.588C104.157 292.917 104.477 293.184 104.845 293.368C105.213 293.551 105.618 293.647 106.028 293.647C106.439 293.647 106.844 293.551 107.212 293.368C107.58 293.184 107.9 292.917 108.148 292.588Z" fill="#0F1D3E"/>
<path d="M116.494 295.191C115.382 293.399 114.874 291.296 115.044 289.191C114.864 287.08 115.39 284.969 116.538 283.191C117.155 282.528 117.916 282.017 118.761 281.695C119.606 281.374 120.514 281.252 121.414 281.338C122.054 281.34 122.692 281.392 123.324 281.493C124.027 281.493 124.95 281.757 126.136 282L126.004 285.177C124.313 285.022 123.149 284.934 122.49 284.934C121.738 284.879 120.985 285.007 120.293 285.309C119.806 285.59 119.445 286.048 119.283 286.588C118.903 288.295 118.903 290.065 119.283 291.772C119.44 292.321 119.802 292.787 120.293 293.074C120.982 293.385 121.736 293.522 122.49 293.471L125.96 293.228L126.092 296.426C124.46 296.79 122.799 297.004 121.128 297.066C120.263 297.14 119.393 297.009 118.588 296.684C117.783 296.358 117.066 295.847 116.494 295.191Z" fill="#0F1D3E"/>
<path d="M129.079 275.735H133.098V279.772H129.079V275.735ZM129.079 281.691H133.098V296.713H129.079V281.691Z" fill="#0F1D3E"/>
<path d="M137.447 295.302C136.274 293.633 135.73 291.6 135.909 289.566C135.738 287.382 136.311 285.204 137.535 283.39C138.159 282.676 138.941 282.118 139.818 281.762C140.695 281.406 141.643 281.261 142.586 281.338C143.461 281.277 144.339 281.397 145.166 281.689C145.993 281.981 146.752 282.44 147.396 283.037C148.575 284.451 149.158 286.271 149.021 288.11L148.714 290.912H139.929C139.941 291.469 140.068 292.017 140.302 292.522C140.533 292.904 140.903 293.181 141.334 293.294C141.971 293.466 142.63 293.54 143.289 293.515H145.639L147.638 293.382H148.472V296.36C146.499 296.879 144.472 297.16 142.432 297.199C141.516 297.249 140.599 297.106 139.74 296.779C138.882 296.452 138.1 295.949 137.447 295.302ZM145.068 287.846C145.154 286.977 144.961 286.104 144.519 285.353C144.276 285.082 143.971 284.876 143.63 284.753C143.289 284.63 142.923 284.594 142.564 284.647C142.191 284.609 141.815 284.654 141.461 284.78C141.108 284.906 140.787 285.109 140.522 285.375C140.062 286.113 139.847 286.978 139.907 287.846H145.068Z" fill="#0F1D3E"/>
<path d="M154.271 296.515C153.606 296.126 153.118 295.493 152.909 294.75C152.589 293.648 152.448 292.5 152.492 291.353V285.11H150.713V281.691H152.492V277.522H156.489V281.691H160.201V285.11H156.533V291.265C156.505 291.838 156.572 292.412 156.731 292.963C156.83 293.149 156.986 293.299 157.175 293.39C157.365 293.482 157.579 293.51 157.785 293.471H159.982L160.179 296.669C159.366 296.868 158.752 296.978 158.312 297.044C157.859 297.077 157.404 297.077 156.951 297.044C156.027 297.101 155.104 296.919 154.271 296.515Z" fill="#0F1D3E"/> -->
<!-- <path d="M167.866 296.713H165.055L161.387 281.691H165.34L168.042 293.272H168.745L171.468 281.691H175.4L170.15 302.912H166.219L167.866 296.713Z" fill="#0F1D3E"/>
<path d="M188.753 279.904V285.904H195.979V289.5H188.753V296.713H184.624V276.287H197.539V279.904H188.753Z" fill="#0F1D3E"/>
<path d="M200.614 295.015C199.354 293.338 198.731 291.266 198.857 289.169C198.725 287.092 199.35 285.038 200.614 283.39C201.994 282.071 203.826 281.335 205.731 281.335C207.636 281.335 209.468 282.071 210.849 283.39C212.113 285.038 212.737 287.092 212.606 289.169C212.731 291.266 212.108 293.338 210.849 295.015C209.468 296.334 207.636 297.069 205.731 297.069C203.826 297.069 201.994 296.334 200.614 295.015ZM207.84 292.588C208.386 291.536 208.63 290.352 208.543 289.169C208.633 287.993 208.389 286.815 207.84 285.772C207.596 285.422 207.264 285.144 206.878 284.966C206.492 284.788 206.066 284.716 205.643 284.757C205.221 284.72 204.796 284.794 204.411 284.972C204.026 285.15 203.694 285.426 203.447 285.772C202.907 286.818 202.671 287.995 202.766 289.169C202.673 290.35 202.909 291.534 203.447 292.588C203.684 292.948 204.013 293.236 204.399 293.423C204.786 293.609 205.216 293.687 205.643 293.647C206.071 293.692 206.503 293.616 206.89 293.429C207.278 293.242 207.607 292.951 207.84 292.588Z" fill="#0F1D3E"/>
<path d="M215.527 281.691H219.502V283.279C220.987 282.383 222.602 281.728 224.29 281.338V285.397C222.888 285.665 221.502 286.011 220.139 286.434L219.524 286.654V296.713H215.527V281.691Z" fill="#0F1D3E"/>
<path d="M235.777 295.919C234.602 295.123 233.759 293.922 233.405 292.544C232.512 288.49 232.512 284.289 233.405 280.235C233.746 278.88 234.585 277.705 235.755 276.949C237.165 276.198 238.752 275.847 240.345 275.934C242.392 275.959 244.427 276.233 246.407 276.75V280.059C244.818 279.786 243.21 279.631 241.597 279.596C240.617 279.534 239.638 279.74 238.764 280.191C238.088 280.653 237.609 281.354 237.424 282.154C237.143 283.421 237.018 284.717 237.051 286.015V287.14C237.053 288.428 237.178 289.713 237.424 290.978C237.5 291.355 237.649 291.713 237.864 292.031C238.079 292.349 238.355 292.621 238.676 292.831C239.554 293.269 240.531 293.467 241.51 293.404C243.15 293.385 244.787 293.245 246.407 292.985V296.382C244.531 296.797 242.618 297.026 240.697 297.066C238.982 297.164 237.274 296.766 235.777 295.919Z" fill="#0F1D3E"/>
<path d="M250.251 295.015C248.977 293.346 248.352 291.267 248.494 289.169C248.352 287.091 248.978 285.034 250.251 283.39C251.631 282.071 253.463 281.335 255.368 281.335C257.274 281.335 259.106 282.071 260.486 283.39C261.75 285.038 262.374 287.092 262.243 289.169C262.369 291.266 261.745 293.338 260.486 295.015C259.106 296.334 257.274 297.069 255.368 297.069C253.463 297.069 251.631 296.334 250.251 295.015ZM257.477 292.588C258.023 291.536 258.267 290.352 258.18 289.169C258.27 287.993 258.026 286.815 257.477 285.772C257.233 285.422 256.902 285.144 256.516 284.966C256.13 284.788 255.703 284.716 255.28 284.757C254.858 284.72 254.433 284.794 254.048 284.972C253.663 285.15 253.331 285.426 253.084 285.772C252.544 286.818 252.308 287.995 252.403 289.169C252.311 290.35 252.546 291.534 253.084 292.588C253.321 292.948 253.65 293.236 254.037 293.423C254.423 293.609 254.853 293.687 255.28 293.647C255.698 293.679 256.116 293.598 256.49 293.411C256.865 293.225 257.183 292.941 257.411 292.588H257.477Z" fill="#0F1D3E"/>
<path d="M265.098 281.691H269.074V282.529C269.692 282.175 270.338 281.873 271.006 281.625C271.556 281.43 272.136 281.333 272.719 281.338C273.409 281.333 274.093 281.453 274.74 281.691C275.359 281.895 275.912 282.26 276.343 282.75C277.18 282.299 278.064 281.944 278.979 281.691C279.8 281.454 280.65 281.335 281.505 281.338C282.245 281.271 282.99 281.394 283.669 281.695C284.349 281.996 284.942 282.465 285.392 283.059C286.315 284.741 286.727 286.658 286.578 288.574V296.713H282.559V288.684C282.617 287.707 282.467 286.73 282.12 285.816C281.96 285.519 281.716 285.277 281.419 285.12C281.122 284.962 280.785 284.898 280.451 284.934C279.704 284.983 278.967 285.124 278.254 285.353L277.815 285.507C277.815 286.853 277.925 288 277.925 288.926V296.713H273.927V288.993C273.943 288.165 273.884 287.339 273.752 286.522C273.69 286.059 273.473 285.631 273.137 285.309C272.724 285.027 272.228 284.895 271.731 284.934C270.982 284.962 270.242 285.104 269.535 285.353L269.161 285.485V296.713H265.164L265.098 281.691Z" fill="#0F1D3E"/>
<path d="M290.158 281.691H294.178V282.507C294.791 282.123 295.447 281.812 296.133 281.581C296.682 281.42 297.251 281.339 297.824 281.338C298.634 281.28 299.447 281.422 300.19 281.753C300.933 282.084 301.583 282.593 302.085 283.235C303.149 285.077 303.631 287.2 303.468 289.324C303.531 290.875 303.3 292.425 302.787 293.89C302.378 294.943 301.596 295.807 300.591 296.316C299.373 296.872 298.04 297.129 296.704 297.066C295.856 297.057 295.011 296.976 294.178 296.824V302.912H290.158V281.691ZM298.68 292.721C299.22 291.715 299.456 290.573 299.361 289.434C299.441 288.289 299.23 287.143 298.746 286.103C298.535 285.751 298.229 285.465 297.864 285.278C297.499 285.091 297.09 285.01 296.682 285.044C295.926 285.048 295.179 285.205 294.485 285.507L294.134 285.64V293.515C294.862 293.616 295.595 293.675 296.33 293.691C296.78 293.721 297.231 293.637 297.641 293.449C298.051 293.26 298.408 292.972 298.68 292.61V292.721Z" fill="#0F1D3E"/>
<path d="M305.445 292.147C305.382 291.528 305.459 290.902 305.673 290.317C305.886 289.732 306.228 289.204 306.675 288.772C307.847 287.956 309.246 287.531 310.672 287.559L313.857 287.316V286.39C313.882 286.161 313.86 285.929 313.792 285.709C313.724 285.488 313.612 285.285 313.462 285.11C313.059 284.846 312.58 284.722 312.1 284.757C311.441 284.757 310.54 284.757 309.376 284.757C308.212 284.757 307.18 284.757 306.477 284.912L306.367 282.11C308.35 281.56 310.395 281.271 312.451 281.25C313.934 281.118 315.413 281.542 316.602 282.441C317.063 282.965 317.413 283.577 317.632 284.241C317.851 284.904 317.934 285.605 317.876 286.301V292.544C317.865 292.898 317.949 293.248 318.118 293.559C318.305 293.769 318.563 293.903 318.843 293.934L318.733 296.978C317.907 297.002 317.081 296.928 316.273 296.757C315.617 296.599 314.998 296.315 314.45 295.919C313.086 296.606 311.583 296.969 310.057 296.978C306.982 297.066 305.445 295.434 305.445 292.147ZM313.418 293.426H313.857V290.206L311.133 290.449C310.902 290.444 310.672 290.489 310.459 290.581C310.245 290.672 310.054 290.807 309.896 290.978C309.739 291.149 309.619 291.351 309.544 291.571C309.47 291.792 309.443 292.026 309.464 292.257C309.464 293.36 309.948 293.912 310.936 293.912C311.781 293.859 312.615 293.696 313.418 293.426Z" fill="#0F1D3E"/>
<path d="M321.698 281.691H325.673V283.279C327.15 282.384 328.759 281.729 330.439 281.338V285.397C329.038 285.665 327.652 286.011 326.288 286.434L325.695 286.654V296.713H321.698V281.691Z" fill="#0F1D3E"/>
<path d="M331.823 292.147C331.764 291.528 331.844 290.904 332.057 290.32C332.27 289.736 332.61 289.207 333.053 288.772C334.225 287.956 335.624 287.531 337.05 287.559L340.235 287.316V286.39C340.26 286.161 340.238 285.929 340.17 285.709C340.102 285.489 339.99 285.285 339.84 285.11C339.437 284.846 338.958 284.722 338.478 284.757C337.819 284.757 336.919 284.757 335.754 284.757C334.59 284.757 333.558 284.757 332.855 284.912L332.746 282.11C334.735 281.559 336.788 281.269 338.851 281.25C340.327 281.117 341.8 281.542 342.98 282.441C343.441 282.965 343.791 283.577 344.01 284.241C344.229 284.904 344.312 285.605 344.254 286.302V292.544C344.253 292.897 344.336 293.245 344.496 293.559C344.689 293.774 344.956 293.908 345.243 293.934L345.111 296.978C344.285 297.001 343.46 296.927 342.651 296.757C342 296.603 341.388 296.318 340.85 295.919C339.484 296.601 337.982 296.963 336.457 296.978C333.36 297.066 331.823 295.434 331.823 292.147ZM339.796 293.427H340.235V290.206L337.534 290.449C337.3 290.441 337.068 290.484 336.852 290.574C336.636 290.664 336.442 290.799 336.282 290.97C336.122 291.141 336 291.344 335.924 291.566C335.848 291.788 335.82 292.024 335.842 292.257C335.842 293.36 336.348 293.912 337.314 293.912C338.159 293.861 338.993 293.697 339.796 293.427Z" fill="#0F1D3E"/>
<path d="M350.47 296.515C349.805 296.122 349.311 295.492 349.086 294.75C348.766 293.648 348.625 292.5 348.669 291.353V285.11H346.89V281.691H348.647V277.522H352.644V281.691H356.334V285.11H352.644V291.265C352.621 291.839 352.695 292.414 352.864 292.963C352.996 293.316 353.347 293.493 353.918 293.471H356.115L356.29 296.669C355.5 296.868 354.863 296.978 354.423 297.044C353.97 297.078 353.515 297.078 353.062 297.044C352.167 297.088 351.276 296.906 350.47 296.515Z" fill="#0F1D3E"/>
<path d="M358.948 275.735H362.945V279.772H358.948V275.735ZM358.948 281.691H362.945V296.713H358.948V281.691Z" fill="#0F1D3E"/>
<path d="M365.251 281.691H369.446L371.818 293.272H372.675L375.179 281.691H379.242L375.662 296.713H368.853L365.251 281.691Z" fill="#0F1D3E"/>
<path d="M382.141 295.301C380.959 293.637 380.406 291.603 380.582 289.566C380.421 287.383 380.993 285.208 382.207 283.39C382.836 282.675 383.621 282.118 384.502 281.762C385.383 281.405 386.334 281.26 387.28 281.338C388.152 281.275 389.027 281.393 389.851 281.686C390.675 281.978 391.43 282.438 392.068 283.037C393.256 284.446 393.84 286.27 393.694 288.11L393.408 290.912H384.623C384.613 291.471 384.742 292.024 384.996 292.522C385.219 292.903 385.582 293.18 386.007 293.294C386.643 293.465 387.302 293.54 387.961 293.515H390.333L392.332 293.382H393.167V296.36C391.201 296.877 389.181 297.159 387.149 297.199C386.227 297.26 385.304 297.123 384.44 296.796C383.576 296.468 382.792 295.959 382.141 295.301ZM389.762 287.846C389.841 286.975 389.641 286.101 389.191 285.353C388.949 285.082 388.643 284.876 388.302 284.753C387.961 284.63 387.595 284.594 387.236 284.647C386.867 284.609 386.494 284.654 386.144 284.78C385.794 284.906 385.477 285.11 385.216 285.375C384.747 286.11 384.524 286.975 384.579 287.846H389.762Z" fill="#0F1D3E"/>
<path d="M414.976 293.051V296.713H403.402V276.287H407.531V293.051H414.976Z" fill="#0F1D3E"/>
<path d="M417.173 275.735H421.192V279.772H417.173V275.735ZM417.173 281.691H421.192V296.713H417.173V281.691Z" fill="#0F1D3E"/>
<path d="M427.012 296.515C426.347 296.122 425.853 295.492 425.628 294.75C425.319 293.645 425.178 292.5 425.211 291.353V285.11H423.454V281.691H425.211V277.522H429.23V281.691H432.898V285.11H429.23V291.265C429.202 291.838 429.269 292.412 429.428 292.963C429.582 293.316 429.911 293.493 430.482 293.471H432.679L432.854 296.669C432.239 296.826 431.616 296.952 430.988 297.044C430.542 297.077 430.094 297.077 429.648 297.044C428.739 297.093 427.832 296.911 427.012 296.515Z" fill="#0F1D3E"/>
<path d="M436.303 295.302C435.121 293.637 434.568 291.603 434.743 289.566C434.577 287.379 435.158 285.2 436.391 283.39C437.015 282.676 437.797 282.118 438.674 281.762C439.551 281.406 440.499 281.261 441.442 281.338C442.317 281.277 443.195 281.397 444.022 281.689C444.849 281.981 445.608 282.44 446.252 283.037C447.431 284.451 448.014 286.271 447.877 288.11L447.57 290.912H438.785C438.796 291.469 438.924 292.017 439.158 292.522C439.386 292.898 439.746 293.174 440.168 293.294C440.805 293.466 441.464 293.54 442.123 293.515H444.495L446.494 293.382H447.328V296.36C445.355 296.877 443.327 297.159 441.288 297.199C440.371 297.257 439.451 297.118 438.591 296.791C437.732 296.464 436.951 295.956 436.303 295.302ZM443.924 287.846C444.01 286.977 443.817 286.104 443.375 285.353C443.126 285.091 442.819 284.891 442.48 284.769C442.141 284.646 441.778 284.605 441.42 284.647C441.047 284.607 440.67 284.652 440.316 284.778C439.963 284.904 439.642 285.108 439.378 285.375C438.918 286.113 438.703 286.978 438.763 287.846H443.924Z" fill="#0F1D3E"/>
<path d="M450.733 281.691H454.708V283.279C456.193 282.383 457.808 281.728 459.496 281.338V285.397C458.094 285.665 456.709 286.011 455.345 286.434L454.752 286.654V296.713H450.733V281.691Z" fill="#0F1D3E"/>
<path d="M460.858 292.147C460.799 291.526 460.881 290.9 461.098 290.315C461.315 289.731 461.661 289.203 462.11 288.772C463.282 287.956 464.681 287.531 466.107 287.559L469.292 287.316V286.39C469.317 286.161 469.295 285.929 469.227 285.709C469.159 285.488 469.046 285.285 468.896 285.11C468.493 284.846 468.015 284.722 467.535 284.757C466.876 284.757 465.975 284.757 464.811 284.757C463.647 284.757 462.615 284.757 461.912 284.912V282.11C463.894 281.56 465.94 281.271 467.996 281.25C469.479 281.118 470.958 281.542 472.147 282.441C472.604 282.967 472.95 283.58 473.165 284.243C473.38 284.906 473.46 285.607 473.399 286.301V292.544C473.404 292.899 473.495 293.247 473.662 293.559C473.85 293.769 474.108 293.903 474.387 293.934V296.978C473.562 297.002 472.736 296.928 471.927 296.757C471.27 296.604 470.65 296.319 470.104 295.919C468.74 296.604 467.237 296.966 465.712 296.978C462.417 297.066 460.858 295.434 460.858 292.147ZM468.853 293.426H469.292V290.206L466.568 290.449C466.336 290.441 466.104 290.483 465.889 290.573C465.674 290.663 465.481 290.799 465.323 290.97C465.164 291.142 465.045 291.346 464.972 291.568C464.899 291.79 464.874 292.025 464.899 292.257C464.899 293.36 465.382 293.912 466.371 293.912C467.216 293.859 468.05 293.696 468.853 293.426Z" fill="#0F1D3E"/>
<path d="M479.505 296.515C478.84 296.126 478.352 295.493 478.143 294.75C477.823 293.648 477.682 292.5 477.726 291.353V285.11H475.947V281.691H477.726V277.522H481.723V281.691H485.391V285.11H481.723V291.265C481.689 291.84 481.763 292.416 481.943 292.963C482.075 293.316 482.426 293.493 482.975 293.471H485.171L485.347 296.669C484.535 296.868 483.919 296.978 483.48 297.044C483.027 297.077 482.572 297.077 482.118 297.044C481.217 297.09 480.318 296.908 479.505 296.515Z" fill="#0F1D3E"/> -->
<!-- <path d="M489.827 296.294C489.056 295.693 488.513 294.844 488.29 293.89C487.958 292.444 487.81 290.961 487.851 289.478V281.603H491.848V289.676C491.826 290.481 491.877 291.286 492.002 292.081C492.026 292.297 492.093 292.505 492.199 292.695C492.304 292.884 492.446 293.05 492.617 293.184C493.041 293.435 493.531 293.551 494.022 293.515C494.443 293.519 494.864 293.475 495.274 293.382C495.794 293.269 496.307 293.129 496.812 292.963V281.735H500.809V296.757H496.834V295.897C496.143 296.302 495.405 296.621 494.637 296.846C494.031 297.023 493.402 297.112 492.771 297.11C491.73 297.14 490.705 296.856 489.827 296.294Z" fill="#0F1D3E"/> -->
<!-- <path d="M504.521 281.691H508.496V283.279C509.979 282.38 511.596 281.724 513.285 281.338V285.397C511.876 285.667 510.483 286.013 509.112 286.434L508.518 286.654V296.713H504.521V281.691Z" fill="#0F1D3E"/> -->
<!-- <path d="M516.447 295.301C515.265 293.637 514.712 291.603 514.888 289.566C514.727 287.383 515.299 285.208 516.513 283.39C517.142 282.675 517.928 282.118 518.808 281.762C519.689 281.405 520.64 281.26 521.587 281.338C522.458 281.275 523.333 281.393 524.157 281.686C524.981 281.978 525.736 282.438 526.375 283.037C527.562 284.446 528.146 286.27 528 288.11L527.714 290.912H518.929C518.93 291.47 519.058 292.021 519.302 292.522C519.525 292.903 519.888 293.18 520.313 293.294C520.95 293.465 521.609 293.54 522.267 293.515H524.64L526.638 293.382H527.473V296.36C525.499 296.876 523.472 297.157 521.433 297.199C520.515 297.257 519.596 297.118 518.736 296.791C517.876 296.464 517.096 295.956 516.447 295.301ZM524.069 287.846C524.142 286.978 523.951 286.108 523.52 285.353C523.267 285.09 522.957 284.889 522.614 284.766C522.271 284.644 521.904 284.603 521.543 284.647C521.173 284.609 520.8 284.654 520.45 284.78C520.1 284.906 519.783 285.11 519.522 285.375C519.054 286.11 518.831 286.975 518.885 287.846H524.069Z" fill="#0F1D3E"/> -->
<path d="M161.145 58.2353C160.154 56.017 159.811 53.5611 160.157 51.1544C160.333 46.875 159.981 44.3162 159.081 43.5221C157.851 42.3971 153.063 42.2647 147.177 43.103C147.989 44.3382 148.297 47.1618 148.055 51.5515C147.814 55.9412 148.055 58.1691 149.241 59.1618C151.338 60.2749 153.708 60.7647 156.072 60.5735C158.147 60.6245 160.219 60.3719 162.222 59.8235C161.826 59.3204 161.466 58.7896 161.145 58.2353Z" fill="#9BA839"/>
<path d="M268.656 196.765L268.371 197.14C268.285 197.057 268.204 196.968 268.129 196.875L267.909 196.61C267.909 196.39 268.019 196.147 268.085 195.882C268.151 195.618 268.085 195.507 268.217 195.287L268.656 196.765Z" fill="#0F1D3E"/>
<path d="M351.656 20.5588C351.656 20.8456 351.656 21.1765 351.502 21.5294C351.498 21.1994 351.55 20.8711 351.656 20.5588Z" fill="#0F1D3E"/>
<path d="M404.302 11.1838C402.319 7.08619 399.727 3.31517 396.615 0C397.977 3.61628 398.849 7.40022 399.207 11.25C400.041 19.6324 400.459 28.8971 400.437 37.3015C400.437 55.2574 394.704 72.5956 386.116 88.2794C363.758 129.243 313.308 138.088 281.241 168.618C286.219 160.921 292.854 154.446 300.657 149.669C308.278 144.618 316.251 140.316 323.96 136.169C328.353 133.809 332.855 131.382 337.27 128.824C352.996 119.757 369.139 109.301 378.715 90.2206C387.093 72.8532 390.398 53.4565 388.247 34.2794C388.247 34.0147 388.247 33.7721 388.247 33.5515C387.315 24.4392 385.035 15.5175 381.482 7.08088C382.185 15.1765 382.976 23.2721 383.261 31.3456C383.75 43.49 381.816 55.6099 377.573 66.9927C375.926 71.316 373.797 75.4379 371.225 79.2794C361.254 94.3897 344.035 103.787 328.88 112.103C325.981 113.713 322.884 115.213 319.611 116.824C301.536 125.647 279.44 136.676 272.829 166.875C272.654 163.324 272.412 159.838 272.039 156.375C272.039 155.824 272.039 155.294 272.039 154.743C273.971 140.14 281.944 131.934 289.609 125.824C295.078 121.412 300.855 117.706 306.433 114.066C309.926 111.86 313.549 109.434 317.086 106.941C326.57 100.712 334.877 92.8396 341.619 83.6912C347.944 74.603 349.987 62.4044 351.217 50.2721C351.217 50.9559 351.217 51.6176 351.217 52.2132C351.546 59.9779 360.002 64.2574 363.868 68.9779C363.976 68.7936 364.071 68.602 364.153 68.4044C367.008 62.5809 367.755 53.3382 367.074 46.3456C366.952 44.2202 366.393 42.1433 365.433 40.2453C364.473 38.3472 363.132 36.669 361.496 35.3162C359.08 33.1103 355.192 31.3456 353.106 27.5956C352.214 25.6588 351.65 23.5863 351.436 21.4632C351.129 23.5147 350.689 26.5588 350.536 28.4779C350.536 28.4779 349.789 35.6691 349.723 36.5294C347.922 56.8456 342.871 63.375 332.833 73.8309C324.509 82.5 315.263 88.6103 306.214 94.5221C304.632 95.5588 302.985 96.5956 301.294 97.6544C288.116 105.838 273.576 115.015 269.886 138.728C268.791 133.785 267.323 128.932 265.494 124.213C264.703 122.007 263.824 120.044 262.88 117.993C257.8 106.526 250.369 96.2661 241.07 87.8824C231.758 79.875 220.534 74.5368 210.036 68.2059C198.268 61.0764 188.348 51.2495 181.088 39.5294C177.438 33.5535 174.371 27.2374 171.93 20.6691C167.405 44.9338 179.99 64.1912 198.286 78.9926C213.111 90.9706 232.79 96.9706 244.782 112.081C250.643 119.23 255.703 127.005 259.871 135.265C260.156 135.838 260.42 136.412 260.684 136.985C260.947 137.559 261.211 138.066 261.452 138.64C264.566 146.58 266.562 154.918 267.382 163.412C268.239 169.721 268.788 174.662 269.227 181.169C269.55 185.158 269.402 189.171 268.788 193.125C268.788 193.346 268.788 193.566 268.612 193.787C268.623 193.853 268.623 193.92 268.612 193.985C268.502 194.382 268.415 194.779 268.327 195.176L268.722 196.654C269.381 195.838 270.04 195.022 270.721 194.25C270.923 194.04 271.113 193.819 271.292 193.588L271.995 192.86C272.566 192.243 273.137 191.669 273.752 191.096C286.249 178.919 303.973 172.566 320.226 165.397C343.759 155.341 365.405 141.315 384.228 123.926C402.084 106.897 412.78 87.5735 414.032 62.7132C414.976 45.1765 412.582 26.8456 404.302 11.1838ZM365.669 54.2647C365.317 55.2574 364.966 56.2721 364.636 57.2868C363.494 56.1838 362.704 55.8309 360.925 54.3971C360.222 53.8235 359.629 53.3382 359.102 52.875C358.404 52.163 357.917 51.2701 357.696 50.2961C357.475 49.3222 357.528 48.3056 357.85 47.3603C358.223 46.2353 358.64 45.1544 358.97 44.0956C359.738 44.7574 360.463 45.4191 361.166 46.1029C363.297 48.3529 366.306 52.4559 365.669 54.2647Z" fill="#0F1D3E"/>
<path d="M363.934 69.0885C363.941 69.1552 363.941 69.2225 363.934 69.2892C363.946 69.2154 363.946 69.14 363.934 69.0662V69.0885Z" fill="#0F1D3E"/>
<path d="M364.221 68.5809C364.221 68.8235 364.221 69.0662 364.066 69.3088L363.934 69.1544C364.042 68.9701 364.138 68.7784 364.221 68.5809Z" fill="#0F1D3E"/>
<path d="M311.968 66.4412V66.8824C311.752 69.5578 311.297 72.2083 310.606 74.8015C309.275 80.8407 305.908 86.2328 301.074 90.0662C298.349 92.0301 295.4 93.6593 292.289 94.9191L289.631 96.1324C283.101 99.3666 277.272 103.864 272.478 109.368C270.561 111.511 268.97 113.927 267.756 116.537C266.606 119.01 265.865 121.655 265.559 124.368C264.769 122.162 263.89 120.199 262.946 118.147C263.127 115.991 263.435 113.847 263.868 111.728C264.24 109.903 264.732 108.105 265.34 106.346C266.985 101.473 269.816 97.0901 273.576 93.5956C278.045 89.4589 283.265 86.2237 288.95 84.0662L290.136 83.5809C292.157 82.7647 294.353 81.8382 296.506 80.7132C299.802 79.1764 302.711 76.9125 305.016 74.0901C307.32 71.2676 308.961 67.9594 309.816 64.4118C309.816 63.9265 310.189 62.9118 311.133 63C311.33 63.0329 311.517 63.1082 311.682 63.2206C312.166 63.5294 312.1 64.4559 311.968 66.4412Z" fill="#9BA839"/>
<path d="M311.749 63.1103C310.048 62.4663 308.29 61.9862 306.499 61.6764C304.653 61.4112 302.775 61.456 300.943 61.8088C299.148 62.0238 297.442 62.71 295.996 63.7982C294.55 64.8864 293.416 66.3382 292.706 68.0073C292.099 69.357 291.671 70.7809 291.432 72.2426C291.252 73.7058 291.179 75.1804 291.213 76.6544C291.316 78.9892 290.927 81.3195 290.071 83.4926C289.655 84.3425 289.123 85.1295 288.489 85.8309C289.565 84.6397 293.102 84.8603 294.441 83.3382C298.395 78.9264 296.33 78.397 297.406 72.7059C298.68 66.0882 306.829 66.6617 310.584 68.0735C311.265 64.9853 311.749 63.1765 311.749 63.1103Z" fill="#9BA839"/>
<path d="M317.349 57.2647C318.263 55.0918 318.493 52.6902 318.008 50.3823C317.591 46.1471 317.832 43.7647 318.711 42.9485C319.589 42.1324 323.521 42.1765 329.561 43.5882C328.77 44.7132 328.616 47.4706 329.078 51.8162C329.539 56.1618 329.319 58.4338 328.287 59.2279C326.573 60.1972 324.562 60.4957 322.642 60.0662C320.486 59.902 318.359 59.4571 316.317 58.7426C316.709 58.2856 317.055 57.7905 317.349 57.2647Z" fill="#9BA839"/>
<path d="M329.144 41.6912C330.043 39.5143 330.265 37.1149 329.781 34.8088C329.385 30.5515 329.627 28.1912 330.483 27.3529C331.691 26.3823 335.293 26.6029 341.333 27.9926C340.564 29.1397 340.411 31.875 340.872 36.2426C341.333 40.6103 341.092 42.8603 340.059 43.6323C338.354 44.6016 336.353 44.9078 334.437 44.4926C332.276 44.3406 330.148 43.8878 328.111 43.147C328.502 42.697 328.848 42.2094 329.144 41.6912Z" fill="#9BA839"/>
<path d="M268.568 193.831C268.579 193.897 268.579 193.964 268.568 194.029C268.459 194.426 268.371 194.823 268.283 195.221L268.129 195.353C268.019 195.353 267.997 195.353 268.129 195.154V195.022C268.139 194.978 268.139 194.933 268.129 194.89C268.313 194.553 268.46 194.199 268.568 193.831Z" fill="#0F1D3E"/>
<path d="M268.085 195.904C268.085 196.169 267.953 196.412 267.909 196.632C254.731 180.926 233.625 174.574 214.473 167.007C190.253 157.797 167.787 144.479 148.055 127.632C129.276 111.132 117.768 92.0294 115.396 66.8824C113.748 49.2353 115.396 30.5956 123.105 14.4265C124.923 10.2449 127.359 6.36289 130.331 2.91177C128.881 4.78677 129.43 12.3309 129.298 14.3824C128.848 22.9058 128.848 31.4472 129.298 39.9706C130.086 58.1832 135.369 75.9135 144.673 91.5662C167.668 129.949 215.066 138.11 248.604 164.029C244.936 157.015 241.685 151.456 235.953 147.904C224.839 141 212.957 137.118 201.734 130.588C196.32 127.482 191.33 123.686 186.887 119.294C182.975 115.372 179.633 110.917 176.959 106.059C175.08 102.743 173.57 99.2289 172.457 95.5809C171.764 93.1751 171.258 90.7193 170.941 88.2353C170.765 86.8897 170.59 85.5662 170.436 84.2427C170.436 83.5368 169.865 82.0368 170.436 81.4412C171.007 80.8456 172.259 83.3382 172.632 83.6471C174.829 86.625 176.739 89.9779 179.024 92.8235C181.24 95.5961 183.735 98.1316 186.469 100.39L187.26 101.051C191.115 104.068 195.274 106.67 199.669 108.816C209.531 113.757 219.81 116.912 229.342 123.022C240.685 130.577 249.935 140.899 256.225 153.022C262.933 165.74 266.977 179.704 268.107 194.051V194.934C267.997 195.154 268.107 195.199 268.107 195.132C268.069 195.388 268.062 195.647 268.085 195.904Z" fill="#9BA839"/>
<path d="M268.041 195.243C268.041 195.243 268.041 195.377 268.041 195.443C268.041 195.51 267.931 195.466 268.041 195.243Z" fill="#C7932C"/>
<path d="M268.129 196.897L267.909 196.632C267.909 196.412 268.019 196.169 268.085 195.904C268.107 196.257 268.129 196.566 268.129 196.897Z" fill="#C7932C"/>
<path d="M263.868 166.985C261.838 160.421 259.477 153.964 256.796 147.64C248.626 129.993 240.96 124.699 227.826 117.551C219.766 113.14 208.059 110.647 199.933 104.316C187.787 94.9191 183.307 75.8382 183.307 75.8382C183.307 75.8382 190.708 86.0074 210.607 95.8897C220.754 100.941 230.067 103.346 239.335 111.199C248.746 119.348 256.03 129.685 260.552 141.309C263.429 149.228 265.45 158.382 263.868 166.985Z" fill="#0F1D3E"/>
<path d="M268.656 196.765L268.371 197.14C268.285 197.057 268.204 196.968 268.129 196.875L267.909 196.61C267.909 196.39 268.019 196.147 268.085 195.882C268.074 195.728 268.074 195.573 268.085 195.419C267.975 195.419 267.953 195.419 268.085 195.221V194.338C268.085 194.537 268.217 194.779 268.261 194.978V195.221L268.656 196.765Z" fill="#9BA839"/>
</g>
<defs>
<clipPath id="clip0_175_342">
<rect width="528" height="303" fill="#0F1D3E"/>
</clipPath>
</defs>
</svg>
